<svg version="1.2" baseProfile="tiny" xmlns="http://www.w3.org/2000/svg" viewBox="0 0 387.935 101.67"><path fill-rule="evenodd" fill="#fff" d="M25.435 31.4c-3.54-2.31-6.02-5.3-6.84-8.35-.41-1.51-.43-3.01-.62-3.23-.18-.21-.03 1.8.24 3.12.67 3.32 3.15 6.7 6.88 9.31-1.35 3.34-2.54 6.84-3.52 10.48-4.21-2.2-7.64-5.06-9.98-8.2 1.13-2.48 2.56-4.98 4.34-7.51.05-.06 1.21-1.65 1.1-1.72-.12-.07-1.01.78-1.59 1.5-1.42 1.74-3.11 3.92-4.56 6.72-2-3.04-2.98-6.29-2.67-9.43 1.82-2.37 3.88-4.28 5.83-5.77 0 0 1.13-1.02 3.73-2.3-1.78.41-4.12 1.77-4.12 1.77C2.315 25.31-.925 36.41.215 45.21c.73 11.01 7.36 21.23 18.04 26.06.48 12.32 3.4 23.09 7.4 30.4-3.22-8.29-5.31-18.53-5.58-29.62 15.38 5.84 32.77-1.44 39.31-16.7 6.72-15.67-.54-33.82-16.21-40.54l-.85-.34c2.4 1.12 4.57 2.53 6.52 4.15 3.08 3.1 4.53 6.78 3.52 10.12-1.8 6-10.83 8.58-20.16 5.78-1.82-.56-3.53-1.27-5.08-2.11C32.435 18.98 40.235 7.73 48.315 0c-8.1 5.94-16.93 17.08-22.88 31.4zm26.57 6.27c-.31-1.41-.69-2.73-1.13-3.96 1.25-1.07 2.16-2.38 2.62-3.9.88-2.94-.07-6.15-2.33-9.03 2.95 3.06 5.18 6.7 6.59 10.64.27 1.76.19 3.52-.32 5.21-.77 2.55-2.39 4.69-4.63 6.36-.13-1.87-.41-3.66-.8-5.32zm-50.14 3.48c.28-5 1.7-9.66 3.97-13.38.65-1.23 1.39-2.36 2.18-3.41-.58 3.36.32 6.89 2.37 10.18l-.24.51c-1.87 4.01-3.19 9.1-3.27 14.82-2.72-2.73-4.46-5.73-5.01-8.72zm26.31 4.27c-1.65-.5-3.24-1.1-4.74-1.78.94-3.56 2.06-7.01 3.33-10.33 1.73 1.01 3.66 1.87 5.78 2.5 1.99.6 3.98.96 5.88 1.1.46 3.39.62 6.8.5 10.1h-.24c-3.35 0-6.91-.51-10.51-1.59zm21.22-10.66c.78 3.2 1.19 6.44 1.26 9.58-2.78 1.48-6.19 2.38-9.95 2.61.09-2.52-.02-4.93-.31-7.12-.12-1-.27-1.94-.44-2.85h.34c3.54 0 6.71-.78 9.1-2.22zM8.065 50.99c-.03-4.96.83-10.1 3.05-15.37 2.32 3.27 5.79 6.27 10.07 8.61-.25.96-.47 1.94-.69 2.93-.78 3.43-1.35 6.82-1.73 10.17-4.26-1.68-7.9-3.86-10.7-6.34zm44.82-5.27c3.03-1.83 5.22-4.37 6.17-7.51l.18-.75c.67 5.02.06 10.27-2 15.27-1.57 2.05-3.84 3.74-6.61 5.03 1.55-4.12 2.22-8.22 2.26-12.04zM6.115 59.3c-2.69-4.72-4.03-9.78-4.27-14.65.94 2.52 2.67 4.99 5.06 7.26.13 3.31.68 6.79 1.79 10.37-.93-.93-1.8-1.93-2.58-2.98zm15.86-.84c-.43-.13-.84-.28-1.26-.42.39-3.45.97-6.94 1.76-10.44.18-.81.38-1.61.58-2.42 1.75.83 3.62 1.56 5.59 2.16 3.47 1.04 6.9 1.58 10.16 1.65-.21 3.04-.65 5.96-1.29 8.58-.23 1.06-.5 2.06-.78 3.03h-.64c-4.56 0-9.39-.68-14.12-2.14zm18.62-9.48c3.71-.11 7.15-.84 10.04-2.1-.11 2.79-.47 5.46-1.09 7.89-.3 1.36-.67 2.65-1.08 3.86-3.05 1.09-6.56 1.74-10.3 1.92 1.37-3.94 2.13-7.86 2.43-11.57zm-22.51 19.71c-3.22-1.38-6.06-3.26-8.48-5.52-.69-2.73-1.28-6.19-1.48-10.17 2.8 2.37 6.34 4.47 10.46 6.11-.31 3.27-.43 6.5-.39 9.62l-.11-.04zm31.34-8.12c1.73-.61 3.32-1.35 4.75-2.21-2.21 3.19-5 5.86-8.15 7.9 1.35-1.87 2.48-3.78 3.4-5.69zm-29.39 8.87c.01-3.15.17-6.36.49-9.61.54.19 1.09.37 1.65.55 4.67 1.44 9.43 2.14 13.94 2.2-1.25 3.68-2.74 6.56-3.8 8.41-.84.07-1.69.11-2.54.11-3.24 0-6.53-.54-9.74-1.66zm17.38-6.87c3.6-.05 7.02-.54 10.08-1.4-1.1 2.6-2.34 4.69-3.32 6.2-3.45 1.91-7.26 3.13-11.21 3.55 1.84-2.71 3.31-5.52 4.45-8.35z"/><path fill="#fff" d="M20.495 47.16c-4.98 21.8-1.3 42.67 5.16 54.51-5.49-14.15-7.74-33.97-3.18-54.07 4.41-20.13 14.86-37.11 25.84-47.6-10.87 7.98-23.07 25.31-27.82 47.16z"/><path fill-rule="evenodd" fill="#fff" d="M107.665 49.05c-5.71-14.25-8.56-21.84-8.56-22.73h-.4c0 .76-2.94 8.33-8.84 22.73h17.8zm13.96 20.09h-7.69c0-1.62-1.53-6.73-4.6-15.32h-21.01c-3.01 8.47-4.51 13.58-4.51 15.32h-7.36c0-.89 3.13-8.65 9.4-23.28 6.27-14.63 9.4-22.67 9.4-24.12h8.44c0 1.42 2.99 9.35 8.96 23.77 5.97 14.43 8.97 22.3 8.97 23.63zm29.83-7.21c0-7.54-.21-14.81-.62-21.81-1.96-1.62-4.41-2.44-7.35-2.44-4.11 0-7.18 1.37-9.22 4.1-2.05 2.73-3.06 6.16-3.06 10.3 0 3.67.97 6.79 2.9 9.31 1.93 2.53 4.6 3.79 8.03 3.79 4.29 0 7.4-1.09 9.32-3.25zm5.87 7.17l-5.43.19c-.2-1.04-.29-2.15-.29-3.31h-.41c-2.54 2.77-6.33 4.15-11.35 4.15-4.62 0-8.29-1.67-11.02-5.03-2.73-3.35-4.09-7.39-4.09-12.12 0-5.37 1.5-9.99 4.54-13.88 3.04-3.88 7.31-5.83 12.82-5.83 3.94 0 6.75.8 8.45 2.42h.29c0-6.03-.16-11.94-.51-17.74l6.92-.27c-.46 6.17-.68 14.25-.68 24.23 0 10.15.24 19.21.76 27.19z"/><path fill="#fff" d="M195.505 34.55c0 1.19-2.46 6.92-7.38 17.21-4.92 10.28-7.38 16.08-7.38 17.38h-4.87c0-1.69-2.17-7.63-6.5-17.82-4.34-10.19-6.5-15.78-6.5-16.77h7.06c0 1.16 1.58 5.78 4.74 13.87 3.15 8.09 4.73 12.72 4.73 13.88h.32c0-1.11 1.5-5.57 4.51-13.37 3-7.79 4.48-12.58 4.48-14.38h6.79z"/><path fill-rule="evenodd" fill="#fff" d="M221.925 62.08c-.13-3.69-.18-7-.18-9.94-4.57 0-8.05.35-10.43 1.02-3.98 1.21-5.97 3.53-5.97 6.95 0 3.31 2.34 4.96 6.99 4.96 4.02 0 7.21-.99 9.59-2.99zm6.44 7.06l-5.72.23c-.29-1.2-.44-2.32-.44-3.39h-.36c-2.99 2.72-7.05 4.08-12.19 4.08-2.8 0-5.21-.82-7.22-2.46-2.01-1.64-3.01-3.98-3.01-7.01 0-3.74 1.56-6.75 4.73-9.02 3.15-2.26 9.01-3.47 17.59-3.58.06-.58.1-1.25.1-2.01 0-2.98-.79-4.97-2.38-5.96-1.6-1-4-1.5-7.24-1.5-3.81 0-7.56.47-11.25 1.42l.62-5.03c3.64-1.04 7.83-1.56 12.56-1.56 4.33 0 7.66.89 10.02 2.68 2.36 1.78 3.53 4.83 3.53 9.11 0 1.16-.06 3.22-.16 6.22-.11 3-.17 4.99-.17 5.99 0 4.41.33 8.34.99 11.79z"/><path fill="#fff" d="M267.565 69.14h-6.63c.54-6.38.81-13.35.81-20.9 0-3.73-.77-6.29-2.29-7.66s-3.68-2.06-6.5-2.06c-3.45 0-6.62 1.25-9.54 3.75 0 8.28.06 17.24.15 26.87h-6.63c.41-8.25.62-14.22.62-17.91 0-5.68-.53-11.19-1.6-16.53l6.41-.92.68 4.45h.3c3.59-3.25 7.45-4.88 11.55-4.88 4.02 0 7.15.89 9.35 2.68 2.21 1.78 3.32 4.96 3.32 9.52 0 .46-.03 1.37-.07 2.72-.05 1.37-.08 2.28-.08 2.75 0 4.05.05 10.09.15 18.12zm35.13-5.57l-.37 4.89c-1.97 1.11-4.61 1.67-7.91 1.67-6.29 0-11.09-1.73-14.42-5.21-3.33-3.46-4.98-7.66-4.98-12.56 0-5.2 1.75-9.66 5.24-13.41 3.49-3.73 8.13-5.61 13.87-5.61 2.89 0 5.25.3 7.06.88l-.97 5.72c-2.56-.95-5.15-1.42-7.76-1.42-3.45 0-6.2 1.2-8.23 3.61-2.04 2.4-3.06 5.41-3.06 9.02 0 3.94 1.22 7.22 3.63 9.84 2.44 2.62 5.88 3.93 10.31 3.93 1.83 0 4.35-.44 7.59-1.35zm6.74 5.58c.32-7.33.48-15.6.48-24.8 0-8.84-.16-16.38-.48-22.62h29.58l-.41 7.97c-7.28-.38-13.89-.58-19.8-.58.23 3.38.36 7.36.36 11.95 5.07 0 10.49-.14 16.28-.4v7.6c-5.68-.23-11.11-.35-16.28-.35 0 4.93.09 9.54.29 13.83 6.65 0 13.74-.2 21.27-.62l-.3 8.02h-30.99z"/><path fill-rule="evenodd" fill="#fff" d="M358.915 21.63c-2.07.06-3.63.11-4.67.11h-6.38c.32 6.23.48 13.77.48 22.6 0 9.21-.16 17.48-.48 24.8 6.31.3 11.27.44 14.87.44 7.95 0 14.15-2.57 18.57-7.72s6.63-11.16 6.63-18.06c0-6.12-1.97-11.37-5.92-15.73-3.95-4.37-10.3-6.55-19.07-6.55-.62 0-1.97.03-4.03.11zm-1.03 39.97c-.24-5.7-.36-11.45-.36-17.26 0-5.28-.12-10.36-.36-15.22 1.82-.22 3.25-.32 4.29-.32 5.58 0 9.74 1.59 12.46 4.79 2.72 3.18 4.08 7.12 4.08 11.78s-1.26 8.6-3.77 11.85c-2.51 3.24-6.39 4.86-11.6 4.86-1.58 0-3.15-.16-4.74-.48z"/></svg>