<svg xmlns="http://www.w3.org/2000/svg" width="200.484" height="70.724" viewBox="0 0 200.484 70.724"><g fill="#6FC96F"><path d="M100.173 35.64c0 .64-.17 1.082-.508 1.323-.34.24-.67.36-.99.36H82.168c0 1.5.147 2.854.44 4.067.295 1.213.78 2.252 1.46 3.116.677.865 1.56 1.53 2.647 1.993 1.088.463 2.426.695 4.014.695 1.122 0 2.13-.1 3.022-.295.89-.196 1.662-.414 2.313-.655.65-.24 1.186-.46 1.605-.655.42-.196.718-.295.896-.295.106 0 .204.027.294.08.09.054.16.14.214.255.054.116.094.264.12.44.027.18.04.402.04.67 0 .125-.01.245-.026.36-.018.117-.04.224-.066.32-.027.1-.067.193-.12.282-.055.09-.126.18-.215.268-.09.09-.365.245-.83.468-.463.224-1.07.446-1.818.67-.75.223-1.62.423-2.61.602-.99.178-2.055.268-3.196.268-1.873 0-3.532-.28-4.976-.843-1.445-.562-2.658-1.392-3.64-2.488-.98-1.097-1.725-2.457-2.233-4.08-.508-1.623-.763-3.505-.763-5.645 0-2.052.263-3.89.79-5.512.526-1.623 1.28-3 2.26-4.133.98-1.133 2.163-1.998 3.546-2.595 1.382-.598 2.92-.896 4.615-.896 1.82 0 3.37.304 4.655.91 1.284.606 2.34 1.423 3.17 2.448.83 1.026 1.436 2.216 1.82 3.572.383 1.356.574 2.782.574 4.28v.643zm-3.29-.938c.053-2.568-.535-4.575-1.767-6.02-1.23-1.445-3.022-2.167-5.377-2.167-1.214 0-2.28.228-3.198.682-.92.455-1.695 1.057-2.328 1.806-.633.75-1.12 1.62-1.458 2.608-.34.99-.535 2.02-.588 3.092h14.715zM124.412 45.403c0 .214-.01.406-.026.575-.018.17-.045.317-.08.44-.036.126-.085.237-.147.336-.063.098-.21.263-.442.494-.232.232-.62.526-1.164.883-.544.358-1.154.67-1.832.938-.68.268-1.41.486-2.194.655-.785.17-1.597.255-2.435.255-1.677 0-3.16-.28-4.454-.843-1.295-.562-2.378-1.392-3.252-2.488-.874-1.097-1.538-2.443-1.993-4.04-.455-1.596-.682-3.438-.682-5.524 0-2.354.28-4.37.843-6.047.562-1.676 1.333-3.05 2.313-4.12.98-1.07 2.126-1.86 3.438-2.368 1.31-.508 2.715-.763 4.214-.763.802 0 1.568.076 2.3.227.73.152 1.405.353 2.02.602.616.25 1.165.535 1.647.856.48.32.832.593 1.056.816.223.224.374.393.455.508.08.116.144.246.188.388.045.143.076.3.094.468.018.17.027.37.027.602 0 .517-.077.878-.23 1.084-.15.205-.316.308-.494.308-.25 0-.558-.16-.923-.482-.366-.32-.834-.673-1.404-1.057-.572-.383-1.264-.736-2.075-1.057-.812-.32-1.778-.48-2.902-.48-2.318 0-4.106.89-5.364 2.674-1.26 1.783-1.887 4.36-1.887 7.73 0 1.696.17 3.18.508 4.456.34 1.275.826 2.337 1.46 3.184.632.848 1.404 1.48 2.313 1.9.91.418 1.936.628 3.077.628 1.07 0 2.015-.17 2.836-.51.82-.337 1.533-.712 2.14-1.122.606-.41 1.11-.785 1.512-1.124.4-.34.7-.51.896-.51.106 0 .2.033.28.095.08.062.147.16.2.294.055.134.095.294.12.48.025.19.038.41.038.66zM150.443 48.988c0 .107-.027.205-.08.294-.054.09-.14.16-.255.215-.116.053-.276.098-.482.134-.205.036-.46.054-.763.054-.32 0-.584-.018-.79-.053-.204-.035-.364-.08-.48-.133-.117-.054-.2-.125-.255-.215-.054-.09-.08-.187-.08-.294V34.62c0-1.497-.116-2.714-.35-3.65-.23-.937-.578-1.74-1.042-2.408-.464-.67-1.057-1.186-1.78-1.552-.722-.366-1.563-.548-2.527-.548-1.23 0-2.462.437-3.692 1.31-1.23.875-2.524 2.16-3.88 3.854V48.99c0 .106-.026.204-.08.293-.054.09-.14.16-.254.215-.116.053-.277.098-.48.134-.207.035-.47.053-.79.053-.304 0-.56-.018-.763-.053-.204-.036-.37-.08-.494-.134-.125-.054-.21-.125-.254-.215-.045-.09-.067-.187-.067-.294V12.923c0-.107.022-.205.067-.294.044-.09.13-.165.254-.228.124-.062.29-.107.495-.134.205-.026.46-.04.763-.04.32 0 .584.014.79.04.204.027.365.072.48.134.116.063.2.14.255.228.054.09.08.188.08.294V28.04c1.32-1.462 2.64-2.537 3.96-3.224 1.32-.686 2.64-1.03 3.96-1.03 1.587 0 2.925.268 4.013.803 1.09.534 1.967 1.256 2.636 2.166.67.91 1.15 1.97 1.445 3.184.295 1.213.442 2.676.442 4.388v14.66zM180.702 36.628c0 1.927-.25 3.7-.75 5.324-.498 1.623-1.243 3.032-2.232 4.228-.99 1.194-2.226 2.126-3.706 2.795-1.48.67-3.2 1.004-5.163 1.004-1.89 0-3.544-.3-4.962-.898-1.418-.598-2.605-1.453-3.56-2.568-.953-1.114-1.667-2.466-2.14-4.054-.473-1.587-.708-3.38-.708-5.377 0-1.927.244-3.7.735-5.324.49-1.624 1.23-3.028 2.22-4.214.99-1.186 2.226-2.11 3.706-2.77 1.48-.66 3.212-.99 5.19-.99 1.892 0 3.546.295 4.964.884 1.418.59 2.6 1.44 3.545 2.555.944 1.115 1.657 2.466 2.14 4.053.482 1.587.722 3.37.722 5.35zm-3.37.295c0-1.374-.135-2.684-.402-3.934-.268-1.25-.713-2.35-1.337-3.305-.625-.954-1.463-1.712-2.516-2.274-1.052-.56-2.363-.842-3.933-.842-1.444 0-2.693.26-3.745.776-1.054.518-1.914 1.235-2.583 2.153-.67.92-1.164 2.003-1.484 3.25-.32 1.25-.482 2.596-.482 4.04 0 1.392.135 2.716.402 3.974.268 1.258.714 2.36 1.338 3.305.624.946 1.463 1.695 2.515 2.247 1.053.554 2.363.83 3.934.83 1.443 0 2.69-.26 3.744-.776 1.052-.517 1.913-1.23 2.582-2.14.67-.91 1.163-1.99 1.484-3.237.32-1.25.48-2.605.48-4.067z"/></g><g fill="#6FC96F"><circle cx="44.05" cy="42.756" r="2.567"/><circle cx="51.765" cy="19.308" r="1.782"/><circle cx="36.184" cy="57.832" r="1.693"/><circle cx="36.184" cy="11.947" r="1.693"/><circle cx="59.126" cy="42.756" r="1.572"/><circle cx="59.126" cy="27.023" r="1.572"/><circle cx="28.318" cy="27.023" r="2.567"/><circle cx="44.05" cy="11.947" r="1.572"/><circle cx="28.318" cy="11.947" r="1.572"/><circle cx="13.241" cy="42.756" r="1.572"/><circle cx="13.241" cy="27.023" r="1.572"/><circle cx="59.126" cy="34.889" r="1.693"/><circle cx="28.318" cy="19.308" r="2.101"/><circle cx="13.241" cy="34.889" r="1.693"/><circle cx="20.603" cy="50.47" r="1.782"/><circle cx="51.765" cy="50.47" r="1.782"/><circle cx="44.05" cy="57.832" r="1.572"/><circle cx="28.318" cy="57.832" r="1.572"/><circle cx="36.184" cy="34.889" r="3.121"/><circle cx="44.05" cy="34.889" r="2.801"/><circle cx="36.184" cy="42.756" r="2.801"/><circle cx="28.318" cy="34.889" r="2.801"/><circle cx="36.184" cy="27.023" r="2.801"/><circle cx="44.05" cy="27.023" r="2.567"/><circle cx="28.318" cy="42.756" r="2.567"/><circle cx="20.603" cy="34.889" r="2.284"/><circle cx="51.765" cy="34.889" r="2.284"/><circle cx="36.184" cy="50.47" r="2.284"/><circle cx="36.184" cy="19.308" r="2.284"/><circle cx="51.765" cy="42.756" r="2.101"/><circle cx="51.765" cy="27.023" r="2.101"/><circle cx="44.05" cy="50.47" r="2.101"/><circle cx="28.318" cy="50.47" r="2.101"/><circle cx="20.603" cy="42.756" r="2.101"/><circle cx="20.603" cy="27.023" r="2.101"/><circle cx="44.05" cy="19.308" r="2.101"/><circle cx="20.603" cy="19.312" r="1.782"/></g><path fill="#6FC96F" d="M181.536 14.066h-1.23v-.443h2.993v.443h-1.236v3.598h-.528v-3.598zM187.157 15.89c-.03-.564-.066-1.24-.06-1.745h-.02c-.137.474-.305.977-.51 1.535l-.712 1.96h-.396l-.654-1.924c-.19-.57-.354-1.09-.468-1.57h-.012c-.012.503-.043 1.18-.078 1.786l-.108 1.733h-.497l.28-4.042h.667l.69 1.955c.167.498.305.94.407 1.36h.018c.102-.407.246-.85.426-1.36l.72-1.955h.666l.253 4.042h-.512l-.1-1.775z"/></svg>