<svg width="108" height="108" viewBox="0 0 108 108" xmlns="http://www.w3.org/2000/svg"><title>icon-schools</title><desc>Created with Sketch.</desc><g transform="translate(2 2)" stroke="#5EAFF8" stroke-width="2.5" fill="none"><path d="M52.344 80.106H66.97V64.178H52.345v15.928zM39.077 26.81h41.05v53.296h-41.05V26.81zM19 52.828h20.077v27.278H19V52.828zm6.61 10.212h6.624v9.415H25.61V63.04zm13.467-30.907h41.05-41.05zm-13.5 35.79h6.657-6.656zm34.158 12.183V64.178v15.928zm-13.61-27.278h6.016-6.016zm-27.1 5.323h20.052-20.05zM63.14 40.135c0-1.926-1.558-3.487-3.48-3.487-1.923 0-3.48 1.56-3.48 3.487 0 1.926 1.557 3.487 3.48 3.487 1.922 0 3.48-1.56 3.48-3.486zM52.14 58.417h-6.016V51.71c0-1.662 1.35-3.013 3.01-3.013 1.657 0 3.006 1.35 3.006 3.013v6.707zm4.524-5.59h6.017-6.016zm6.017 5.59h-6.016V51.71c0-1.662 1.35-3.013 3.01-3.013 1.658 0 3.006 1.35 3.006 3.013v6.707zm4.49-5.59h6.016-6.017zm6.016 5.59H67.17V51.71c0-1.662 1.35-3.013 3.008-3.013 1.66 0 3.007 1.35 3.007 3.013v6.707z"/><ellipse cx="52" cy="52" rx="52" ry="52"/></g></svg>