<?xml version="1.0" encoding="UTF-8" standalone="no"?>
<svg width="360px" height="52px" viewBox="0 0 360 52" version="1.1" xmlns="http://www.w3.org/2000/svg" xmlns:xlink="http://www.w3.org/1999/xlink" xmlns:sketch="http://www.bohemiancoding.com/sketch/ns">
    <!-- Generator: Sketch 3.3.2 (12043) - http://www.bohemiancoding.com/sketch -->
    <title>Fill 1 + Fill 8 + Fill 9 + Imported Layers Copy 5 + Stroke 1 + e Prove + Path 647 + Group + Group Copy + Fill 1 + Stroke 7 + Fill 13 Copy + TM Copy Copy</title>
    <desc>Created with Sketch.</desc>
    <defs></defs>
    <g id="week5---landing" stroke="none" stroke-width="1" fill="none" fill-rule="evenodd" sketch:type="MSPage">
        <g id="landing-02a-surveys-long" sketch:type="MSArtboardGroup" transform="translate(-60.000000, -70.000000)">
            <g id="Fill-1-+-Fill-8-+-Fill-9-+-Imported-Layers-Copy-5-+-Stroke-1-+-e-Prove-+-Path-647-+-Group-+-Group-Copy-+-Fill-1-+-Stroke-7-+-Fill-13-Copy-+-TM-Copy-Copy" sketch:type="MSLayerGroup" transform="translate(60.000000, 70.000000)">
                <path d="M226.728099,36.091318 C228.777388,37.1817364 230.3263,37.6369771 232.102411,37.6369771 C235.200235,37.6369771 237.476722,36.0004498 237.476722,33.8187135 C237.476722,32.137202 236.429087,30.9550157 234.015561,29.8178138 L231.784153,28.7723797 C230.098201,28.0004498 229.414804,27.5910931 228.64125,27.0008997 C227.320437,25.9095816 226.591059,24.4556905 226.591059,22.7732794 C226.591059,19.3634728 229.506765,17.1826361 234.06064,17.1826361 C235.74569,17.1826361 237.294603,17.4552407 239.435852,18.137202 L239.207753,20.7732794 C237.249524,19.9095816 235.791671,19.5910931 234.015561,19.5910931 C231.281974,19.5910931 229.460785,20.8191633 229.460785,22.7282951 C229.460785,24.2280702 230.3263,25.1367521 232.876867,26.3189384 L235.018116,27.3184885 C238.935476,29.1367521 240.529467,30.9550157 240.529467,33.8187135 C240.529467,37.5002249 237.158464,40.0463338 232.329608,40.0463338 C230.3263,40.0463338 228.549289,39.7269456 226.5,38.9091318 L226.728099,36.091318 Z M245.49356,28.5006748 L245.44758,17.5919928 L248.226245,17.5919928 L248.271324,28.5006748 C248.271324,32.4089069 248.408364,33.454341 249.091761,34.8641475 C249.957277,36.6374269 251.460209,37.5452092 253.418438,37.5452092 C256.014985,37.5452092 258.338353,35.7278453 259.385988,32.8641475 C259.841285,31.6819613 259.841285,31.3184885 259.932344,29.1817364 C259.932344,28.6824112 259.977423,28.4098066 259.977423,28.2730544 L259.932344,17.5919928 L262.71101,17.5919928 L262.756089,31.5452092 C262.756089,36.0454341 262.847149,37.1817364 263.029267,39.6369771 L260.432721,39.6369771 C260.342563,38.5906433 260.342563,38.091318 260.342563,37.1367521 C260.342563,36.3639226 260.342563,35.9554656 260.432721,35.0917679 C259.111908,38.2271705 256.471183,39.9545659 253.009121,39.9545659 C249.911296,39.9545659 247.633908,38.545659 246.450135,35.8636977 C245.675679,34.1821862 245.49356,33.0008997 245.49356,28.5006748 Z M269.952491,26.4089069 C269.952491,24.9091318 269.815451,19.9095816 269.679312,17.5919928 L272.320938,17.5919928 C272.366919,19.1367521 272.366919,19.5011246 272.366919,19.9554656 C272.366919,21.0008997 272.366919,21.6369771 272.274958,22.8182636 C272.867295,21.1367521 273.095394,20.6824112 273.642653,19.9554656 C274.917485,18.3189384 276.556555,17.4093567 278.333567,17.4093567 C278.833943,17.4093567 279.290142,17.4552407 280.200737,17.6369771 L280.200737,20.5006748 C279.472261,20.2730544 279.108023,20.2271705 278.561667,20.2271705 C276.055278,20.2271705 274.234088,21.6369771 273.277513,24.2730544 C272.821315,25.5910931 272.731157,26.5006748 272.731157,29.6819613 L272.731157,39.6369771 L269.952491,39.6369771 L269.952491,26.4089069 Z M282.888343,17.5919928 L285.848226,17.5919928 L288.580912,25.7728295 C291.405558,34.1821862 291.860855,35.7278453 292.225093,38.1812865 C292.589331,35.8178138 293.545906,32.7273954 295.869274,25.7278453 L298.555979,17.5919928 L301.380626,17.5919928 L293.819986,39.6369771 L290.540042,39.6369771 L282.888343,17.5919928 Z M319.189511,26.9550157 C319.099353,25.0917679 318.871254,24.0454341 318.323996,22.8641475 C317.322342,20.6824112 315.364112,19.4093567 313.040744,19.4093567 C310.626316,19.4093567 308.485968,20.9091318 307.302195,23.3643725 C306.800016,24.4098066 306.572818,25.3634728 306.390699,26.9550157 L319.189511,26.9550157 Z M313.996417,37.7278453 C316.228726,37.7278453 318.323996,37.1367521 320.191165,36.0454341 L320.283126,38.8182636 C318.278917,39.7269456 316.365766,40.1363023 314.088378,40.1363023 C307.438333,40.1363023 303.520974,35.7737292 303.520974,28.3189384 C303.520974,21.4552407 307.346372,17 313.176882,17 C317.413401,17 320.419265,19.4093567 321.467801,23.6369771 C321.878019,25.4093567 322.014157,26.6824112 322.014157,29.2276203 L306.298738,29.2276203 C306.526837,34.4098066 309.487622,37.7278453 313.996417,37.7278453 Z M327.661647,46.5906433 C329.756916,46.5906433 330.71259,45.5910931 331.943245,42.0004498 L332.489601,40.4089069 L324.518743,17.5919928 L327.479528,17.5919928 L332.76278,33.0458839 C333.355117,34.7282951 333.765335,36.091318 333.902375,36.9091318 C333.992533,36.1821862 334.128672,35.7278453 335.040168,33.0008997 L340.187281,17.5919928 L343.011927,17.5919928 L334.539791,42.3180387 C333.583216,45.0908682 333.127018,46.1363023 332.353463,47.0458839 C331.305828,48.3180387 329.665857,49 327.979904,49 C327.388469,49 326.887191,48.9550157 325.657437,48.6815115 L325.930616,46.2730544 C326.705072,46.4997751 327.06931,46.5906433 327.661647,46.5906433 Z M345.698632,36.091318 C347.747921,37.1817364 349.296833,37.6369771 351.072943,37.6369771 C354.170768,37.6369771 356.447254,36.0004498 356.447254,33.8187135 C356.447254,32.137202 355.39962,30.9550157 352.986093,29.8178138 L350.754686,28.7723797 C349.068734,28.0004498 348.385337,27.5910931 347.611782,27.0008997 C346.290969,25.9095816 345.561592,24.4556905 345.561592,22.7732794 C345.561592,19.3634728 348.477298,17.1826361 353.031172,17.1826361 C354.716223,17.1826361 356.265135,17.4552407 358.406385,18.137202 L358.178286,20.7732794 C356.220056,19.9095816 354.762204,19.5910931 352.986093,19.5910931 C350.252506,19.5910931 348.431317,20.8191633 348.431317,22.7282951 C348.431317,24.2280702 349.296833,25.1367521 351.847399,26.3189384 L353.988649,27.3184885 C357.906009,29.1367521 359.5,30.9550157 359.5,33.8187135 C359.5,37.5002249 356.128997,40.0463338 351.300141,40.0463338 C349.296833,40.0463338 347.519821,39.7269456 345.470533,38.9091318 L345.698632,36.091318 Z" id="Fill-1" fill="#FFFFFF" sketch:type="MSShapeGroup"></path>
                <g id="Fill-8-+-Fill-9" sketch:type="MSShapeGroup">
                    <path d="M4.266,0.944 L47.566,0.944 C49.416,0.944 50.916,2.444 50.916,4.293 L50.916,47.596 C50.916,49.445 49.416,50.944 47.566,50.944 L4.266,50.944 C2.416,50.944 0.916,49.445 0.916,47.596 L0.916,4.293 C0.916,2.444 2.416,0.944 4.266,0.944" id="Fill-8" fill="#6FC96F"></path>
                    <path d="M15.293,17.093 C14.604,17.093 14.045,16.536 14.045,15.847 C14.045,15.157 14.604,14.599 15.293,14.599 C15.981,14.599 16.54,15.157 16.54,15.847 C16.54,16.536 15.981,17.093 15.293,17.093 L15.293,17.093 Z M31.705,17.314 C30.895,17.314 30.234,16.656 30.234,15.844 C30.234,15.032 30.895,14.373 31.705,14.373 C32.516,14.373 33.176,15.032 33.176,15.844 C33.176,16.656 32.516,17.314 31.705,17.314 L31.705,17.314 Z M15.293,22.714 C14.479,22.714 13.82,22.057 13.82,21.244 C13.82,20.432 14.479,19.774 15.293,19.774 C16.104,19.774 16.762,20.432 16.762,21.244 C16.762,22.057 16.104,22.714 15.293,22.714 L15.293,22.714 Z M15.293,33.727 C14.479,33.727 13.82,33.069 13.82,32.257 C13.82,31.444 14.479,30.787 15.293,30.787 C16.104,30.787 16.762,31.444 16.762,32.257 C16.762,33.069 16.104,33.727 15.293,33.727 L15.293,33.727 Z M20.691,39.128 C19.881,39.128 19.222,38.47 19.222,37.657 C19.222,36.845 19.881,36.188 20.691,36.188 C21.505,36.188 22.164,36.845 22.164,37.657 C22.164,38.47 21.505,39.128 20.691,39.128 L20.691,39.128 Z M31.705,39.128 C30.895,39.128 30.234,38.47 30.234,37.657 C30.234,36.845 30.895,36.188 31.705,36.188 C32.516,36.188 33.176,36.845 33.176,37.657 C33.176,38.47 32.516,39.128 31.705,39.128 L31.705,39.128 Z M37.106,22.714 C36.293,22.714 35.635,22.057 35.635,21.244 C35.635,20.432 36.293,19.774 37.106,19.774 C37.918,19.774 38.578,20.432 38.578,21.244 C38.578,22.057 37.918,22.714 37.106,22.714 L37.106,22.714 Z M37.106,33.727 C36.293,33.727 35.635,33.069 35.635,32.257 C35.635,31.444 36.293,30.787 37.106,30.787 C37.918,30.787 38.578,31.444 38.578,32.257 C38.578,33.069 37.918,33.727 37.106,33.727 L37.106,33.727 Z M26.197,17.443 C25.315,17.443 24.6,16.727 24.6,15.844 C24.6,14.961 25.315,14.246 26.197,14.246 C27.08,14.246 27.799,14.961 27.799,15.844 C27.799,16.727 27.08,17.443 26.197,17.443 L26.197,17.443 Z M26.197,39.256 C25.315,39.256 24.6,38.54 24.6,37.657 C24.6,36.775 25.315,36.059 26.197,36.059 C27.08,36.059 27.799,36.775 27.799,37.657 C27.799,38.54 27.08,39.256 26.197,39.256 L26.197,39.256 Z M37.106,28.349 C36.224,28.349 35.506,27.633 35.506,26.751 C35.506,25.868 36.224,25.152 37.106,25.152 C37.988,25.152 38.704,25.868 38.704,26.751 C38.704,27.633 37.988,28.349 37.106,28.349 L37.106,28.349 Z M15.293,28.349 C14.41,28.349 13.693,27.633 13.693,26.751 C13.693,25.868 14.41,25.152 15.293,25.152 C16.176,25.152 16.891,25.868 16.891,26.751 C16.891,27.633 16.176,28.349 15.293,28.349 L15.293,28.349 Z M20.691,34.054 C19.699,34.054 18.895,33.25 18.895,32.257 C18.895,31.265 19.699,30.46 20.691,30.46 C21.686,30.46 22.488,31.265 22.488,32.257 C22.488,33.25 21.686,34.054 20.691,34.054 L20.691,34.054 Z M31.705,23.042 C30.713,23.042 29.908,22.237 29.908,21.245 C29.908,20.252 30.713,19.447 31.705,19.447 C32.697,19.447 33.502,20.252 33.502,21.245 C33.502,22.237 32.697,23.042 31.705,23.042 L31.705,23.042 Z M26.197,23.205 C25.116,23.205 24.237,22.327 24.237,21.244 C24.237,20.161 25.116,19.283 26.197,19.283 C27.281,19.283 28.159,20.161 28.159,21.244 C28.159,22.327 27.281,23.205 26.197,23.205 L26.197,23.205 Z M20.691,28.71 C19.609,28.71 18.731,27.833 18.731,26.75 C18.731,25.667 19.609,24.79 20.691,24.79 C21.775,24.79 22.652,25.667 22.652,26.75 C22.652,27.833 21.775,28.71 20.691,28.71 L20.691,28.71 Z M26.197,34.217 C25.116,34.217 24.237,33.339 24.237,32.257 C24.237,31.174 25.116,30.296 26.197,30.296 C27.281,30.296 28.159,31.174 28.159,32.257 C28.159,33.339 27.281,34.217 26.197,34.217 L26.197,34.217 Z M31.705,28.71 C30.622,28.71 29.744,27.833 29.744,26.75 C29.744,25.667 30.622,24.79 31.705,24.79 C32.788,24.79 33.666,25.667 33.666,26.75 C33.666,27.833 32.788,28.71 31.705,28.71 L31.705,28.71 Z M26.197,28.935 C24.992,28.935 24.014,27.958 24.014,26.751 C24.014,25.544 24.992,24.566 26.197,24.566 C27.404,24.566 28.383,25.544 28.383,26.751 C28.383,27.958 27.404,28.935 26.197,28.935 L26.197,28.935 Z M20.691,43.91 C20.084,43.91 19.593,43.417 19.593,42.811 C19.593,42.204 20.084,41.709 20.691,41.709 C21.299,41.709 21.793,42.204 21.793,42.811 C21.793,43.417 21.299,43.91 20.691,43.91 L20.691,43.91 Z M31.705,43.91 C31.098,43.91 30.604,43.417 30.604,42.811 C30.604,42.204 31.098,41.709 31.705,41.709 C32.312,41.709 32.806,42.204 32.806,42.811 C32.806,43.417 32.312,43.91 31.705,43.91 L31.705,43.91 Z M37.106,38.905 C36.418,38.905 35.858,38.346 35.858,37.657 C35.858,36.968 36.418,36.41 37.106,36.41 C37.795,36.41 38.354,36.968 38.354,37.657 C38.354,38.346 37.795,38.905 37.106,38.905 L37.106,38.905 Z M15.293,38.905 C14.604,38.905 14.045,38.346 14.045,37.657 C14.045,36.968 14.604,36.41 15.293,36.41 C15.981,36.41 16.54,36.968 16.54,37.657 C16.54,38.346 15.981,38.905 15.293,38.905 L15.293,38.905 Z M10.138,27.936 C9.482,27.936 8.951,27.405 8.951,26.751 C8.951,26.096 9.482,25.565 10.138,25.565 C10.793,25.565 11.323,26.096 11.323,26.751 C11.323,27.405 10.793,27.936 10.138,27.936 L10.138,27.936 Z M20.691,17.314 C19.881,17.314 19.222,16.656 19.222,15.844 C19.222,15.032 19.881,14.373 20.691,14.373 C21.505,14.373 22.164,15.032 22.164,15.844 C22.164,16.656 21.505,17.314 20.691,17.314 L20.691,17.314 Z M42.26,27.936 C41.605,27.936 41.074,27.405 41.074,26.751 C41.074,26.096 41.605,25.565 42.26,25.565 C42.914,25.565 43.444,26.096 43.444,26.751 C43.444,27.405 42.914,27.936 42.26,27.936 L42.26,27.936 Z M10.138,22.344 C9.531,22.344 9.037,21.852 9.037,21.245 C9.037,20.637 9.531,20.144 10.138,20.144 C10.746,20.144 11.238,20.637 11.238,21.245 C11.238,21.852 10.746,22.344 10.138,22.344 L10.138,22.344 Z M10.138,33.357 C9.531,33.357 9.037,32.865 9.037,32.257 C9.037,31.649 9.531,31.157 10.138,31.157 C10.746,31.157 11.238,31.649 11.238,32.257 C11.238,32.865 10.746,33.357 10.138,33.357 L10.138,33.357 Z M20.691,11.792 C20.084,11.792 19.593,11.299 19.593,10.69 C19.593,10.083 20.084,9.59 20.691,9.59 C21.299,9.59 21.793,10.083 21.793,10.69 C21.793,11.299 21.299,11.792 20.691,11.792 L20.691,11.792 Z M31.705,11.792 C31.098,11.792 30.604,11.299 30.604,10.69 C30.604,10.083 31.098,9.59 31.705,9.59 C32.312,9.59 32.806,10.083 32.806,10.69 C32.806,11.299 32.312,11.792 31.705,11.792 L31.705,11.792 Z M20.691,23.042 C19.699,23.042 18.895,22.237 18.895,21.245 C18.895,20.252 19.699,19.447 20.691,19.447 C21.686,19.447 22.488,20.252 22.488,21.245 C22.488,22.237 21.686,23.042 20.691,23.042 L20.691,23.042 Z M42.26,22.344 C41.651,22.344 41.158,21.852 41.158,21.245 C41.158,20.637 41.651,20.144 42.26,20.144 C42.867,20.144 43.359,20.637 43.359,21.245 C43.359,21.852 42.867,22.344 42.26,22.344 L42.26,22.344 Z M42.26,33.357 C41.651,33.357 41.158,32.865 41.158,32.257 C41.158,31.649 41.651,31.157 42.26,31.157 C42.867,31.157 43.359,31.649 43.359,32.257 C43.359,32.865 42.867,33.357 42.26,33.357 L42.26,33.357 Z M26.197,11.876 C25.545,11.876 25.013,11.346 25.013,10.691 C25.013,10.037 25.545,9.505 26.197,9.505 C26.854,9.505 27.383,10.037 27.383,10.691 C27.383,11.346 26.854,11.876 26.197,11.876 L26.197,11.876 Z M26.197,43.996 C25.545,43.996 25.013,43.465 25.013,42.811 C25.013,42.155 25.545,41.624 26.197,41.624 C26.854,41.624 27.383,42.155 27.383,42.811 C27.383,43.465 26.854,43.996 26.197,43.996 L26.197,43.996 Z M37.106,17.092 C36.418,17.092 35.858,16.533 35.858,15.844 C35.858,15.155 36.418,14.596 37.106,14.596 C37.795,14.596 38.354,15.155 38.354,15.844 C38.354,16.533 37.795,17.092 37.106,17.092 L37.106,17.092 Z M31.705,34.054 C30.713,34.054 29.908,33.25 29.908,32.257 C29.908,31.265 30.713,30.46 31.705,30.46 C32.697,30.46 33.502,31.265 33.502,32.257 C33.502,33.25 32.697,34.054 31.705,34.054 L31.705,34.054 Z" id="Fill-9" fill="#FFFFFF"></path>
                </g>
                <g id="Imported-Layers-Copy-5-+-Stroke-1-+-e-Prove-+-Path-647-+-Group-+-Group-Copy-+-Fill-1-+-Stroke-7-+-Fill-13-Copy-+-TM-Copy-Copy" transform="translate(80.000000, 1.000000)">
                    <g id="Imported-Layers-Copy-5" transform="translate(0.500000, 0.000000)" sketch:type="MSShapeGroup">
                        <path d="M10.7179541,37.5143389 C12.871785,37.5143389 14.8931039,36.9243184 16.6947585,35.834807 L16.78293,38.603324 C14.8492729,39.5112502 13.0032778,39.9196854 10.8061256,39.9196854 C4.38999275,39.9196854 0.610850242,35.5626923 0.610850242,28.1192765 C0.610850242,21.2669338 4.30233092,16.818885 9.9274686,16.818885 C14.0139372,16.818885 16.9149324,19.2242315 17.9255918,23.444904 C18.3205797,25.2154917 18.4525821,26.486062 18.4525821,29.0272027 L3.29116184,29.0272027 C3.51082609,34.2015925 6.36799034,37.5143389 10.7179541,37.5143389 L10.7179541,37.5143389 Z M15.7284396,26.7576504 C15.6402681,24.8970596 15.4206039,23.8533392 14.8931039,22.6732983 C13.9262754,20.4953281 12.0364493,19.2242315 9.79546618,19.2242315 C7.46631159,19.2242315 5.40065217,20.7216518 4.25799034,23.1727893 C3.77483092,24.2165097 3.55516667,25.1697006 3.37882367,26.7576504 L15.7284396,26.7576504 Z M35.0665386,9.14914553 L40.6035048,9.14914553 C44.0314903,9.14914553 45.9651473,9.55758073 47.5471377,10.5560364 C49.9639541,12.0534567 51.4144517,14.7767089 51.4144517,17.8173406 C51.4144517,20.5858576 50.184128,23.0364688 48.0302971,24.5796802 C46.0971498,25.9413063 44.1196618,26.440271 40.5596739,26.440271 L37.8793623,26.440271 L37.8793623,39.4201944 L35.0665386,39.4201944 L35.0665386,9.14914553 Z M40.5153333,23.8533392 C43.5483309,23.8533392 45.0421498,23.444904 46.4926473,22.2653895 C47.7668019,21.2216691 48.4701353,19.6326667 48.4701353,17.7720759 C48.4701353,15.5935793 47.5033068,13.7782533 45.7011425,12.6887419 C44.5146498,12.008192 43.1523237,11.7360773 40.6035048,11.7360773 L37.8793623,11.7360773 L37.8793623,23.8533392 L40.5153333,23.8533392 Z M56.1619517,26.213421 C56.1619517,24.7154744 56.0304589,19.7237225 55.8984565,17.4089054 L58.4472754,17.4089054 C58.4911063,18.9521168 58.4911063,19.3152872 58.4911063,19.7689872 C58.4911063,20.8127076 58.4911063,21.4479927 58.4034444,22.6285599 C58.9742657,20.9485017 59.1944396,20.4953281 59.7219396,19.7689872 C60.9522633,18.1352464 62.5342536,17.2273202 64.2482464,17.2273202 C64.7314058,17.2273202 65.1707343,17.2725849 66.049901,17.4541701 L66.049901,20.3137429 C65.3470773,20.0863666 64.9954106,20.0411019 64.4684203,20.0411019 C62.0505845,20.0411019 60.2927609,21.4479927 59.3697633,24.0801892 C58.9304348,25.3965506 58.8427729,26.3044768 58.8427729,29.4809026 L58.8427729,39.4201944 L56.1619517,39.4201944 L56.1619517,26.213421 Z M78.2241932,16.9094144 C84.156657,16.9094144 88.0234614,21.4479927 88.0234614,28.4371823 C88.0234614,35.3358423 84.0689952,39.9196854 78.1360217,39.9196854 C72.1153865,39.9196854 68.11607,35.3358423 68.11607,28.4829733 C68.11607,21.402728 72.0715556,16.9094144 78.2241932,16.9094144 Z M78.0921908,37.6959241 C82.223,37.6959241 85.2559976,33.7921046 85.2559976,28.4829733 C85.2559976,23.0817335 82.2668309,19.133702 78.1803623,19.133702 C73.8293792,19.133702 70.8845531,22.945413 70.8845531,28.5277117 C70.8845531,33.7921046 73.960872,37.6959241 78.0921908,37.6959241 Z M89.9148164,17.4089054 L92.7709614,17.4089054 L95.4084614,25.5781358 C98.1326039,33.9742162 98.572442,35.5174276 98.9241087,37.9680388 C99.2752657,35.6084834 100.198263,32.5220606 102.439246,25.5323448 L105.032406,17.4089054 L107.757058,17.4089054 L100.461758,39.4201944 L97.2977778,39.4201944 L89.9148164,17.4089054 Z M119.93135,37.5143389 C122.084671,37.5143389 124.10599,36.9243184 125.907645,35.834807 L125.995816,38.603324 C124.062159,39.5112502 122.216164,39.9196854 120.019522,39.9196854 C113.602879,39.9196854 109.823227,35.5626923 109.823227,28.1192765 C109.823227,21.2669338 113.515217,16.818885 119.140355,16.818885 C123.227333,16.818885 126.127819,19.2242315 127.138478,23.444904 C127.533976,25.2154917 127.665978,26.486062 127.665978,29.0272027 L112.504048,29.0272027 C112.723713,34.2015925 115.579857,37.5143389 119.93135,37.5143389 Z M124.941326,26.7576504 C124.853155,24.8970596 124.63349,23.8533392 124.10599,22.6732983 C123.139671,20.4953281 121.249845,19.2242315 119.008353,19.2242315 C116.679198,19.2242315 114.613539,20.7216518 113.470877,23.1727893 C112.987717,24.2165097 112.768053,25.1697006 112.59171,26.7576504 L124.941326,26.7576504 L124.941326,26.7576504 Z" id="Fill-1" fill="#FFFFFF"></path>
                        <path d="M25.7004831,0.609375953 L25.7004831,48.8526265" id="Stroke-7" stroke="#FFFFFF" stroke-width="1.3365"></path>
                    </g>
                    <g id="Stroke-1-+-e-Prove-+-Path-647-+-Group-+-Group-Copy-+-Fill-1-+-Stroke-7-+-Fill-13-Copy-+-TM-Copy-Copy" transform="translate(125.000000, 8.000000)" font-size="5" font-family="Open Sans" fill="#FFFFFF" sketch:type="MSTextLayer" font-weight="260">
                        <text id="TM">
                            <tspan x="0.5" y="5.14990234">TM</tspan>
                        </text>
                    </g>
                </g>
            </g>
        </g>
    </g>
</svg>