<svg width="116" height="28" viewBox="0 0 116 28" xmlns="http://www.w3.org/2000/svg"><title>Imported Layers Copy 7 + TM Copy</title><desc>Created with Sketch.</desc><g fill="none"><g><path d="M42.332 21.43c1.272 0 2.466-.338 3.53-.96l.053 1.583c-1.142.52-2.233.753-3.53.753-3.79 0-6.024-2.492-6.024-6.75 0-3.92 2.182-6.464 5.505-6.464 2.414 0 4.128 1.376 4.725 3.79.233 1.013.31 1.74.31 3.193h-8.955c.13 2.96 1.817 4.855 4.387 4.855zm2.96-6.153c-.052-1.064-.182-1.66-.494-2.336-.57-1.245-1.687-1.972-3.01-1.972-1.377 0-2.597.856-3.272 2.258-.285.597-.415 1.143-.52 2.05h7.296zM56.716 5.204h3.27c2.026 0 3.168.234 4.102.805 1.428.856 2.285 2.413 2.285 4.153 0 1.583-.727 2.985-2 3.868-1.14.78-2.31 1.065-4.412 1.065h-1.583v7.425h-1.66V5.204zm3.218 8.412c1.792 0 2.675-.234 3.53-.91.754-.596 1.17-1.505 1.17-2.57 0-1.245-.572-2.284-1.636-2.907-.7-.39-1.506-.546-3.01-.546h-1.61v6.932h1.556zm9.243 1.35c0-.857-.077-3.713-.155-5.037h1.505c.026.882.026 1.09.026 1.35 0 .596 0 .96-.05 1.635.336-.96.466-1.22.777-1.636.727-.935 1.662-1.455 2.674-1.455.286 0 .545.026 1.065.13v1.636c-.417-.13-.624-.155-.936-.155-1.428 0-2.466.805-3.012 2.31-.26.753-.31 1.273-.31 3.09v5.685h-1.585v-7.554zM82.21 9.643c3.505 0 5.79 2.597 5.79 6.595 0 3.946-2.337 6.568-5.842 6.568-3.556 0-5.92-2.622-5.92-6.542 0-4.05 2.338-6.62 5.972-6.62zm-.078 11.89c2.44 0 4.232-2.232 4.232-5.27 0-3.09-1.765-5.347-4.18-5.347-2.57 0-4.31 2.18-4.31 5.373 0 3.01 1.818 5.244 4.258 5.244zM89.116 9.93h1.688l1.558 4.672c1.61 4.803 1.87 5.686 2.077 7.087.206-1.35.75-3.116 2.075-7.114l1.532-4.647h1.61l-4.31 12.59h-1.87l-4.36-12.59zm17.732 11.5c1.272 0 2.466-.338 3.53-.96l.053 1.583c-1.14.52-2.232.753-3.53.753-3.79 0-6.023-2.492-6.023-6.75 0-3.92 2.18-6.464 5.504-6.464 2.415 0 4.13 1.376 4.726 3.79.233 1.013.31 1.74.31 3.193h-8.955c.13 2.96 1.818 4.855 4.388 4.855zm2.96-6.153c-.052-1.064-.182-1.66-.494-2.336-.57-1.245-1.687-1.972-3.01-1.972-1.377 0-2.597.856-3.272 2.258-.286.597-.415 1.143-.52 2.05h7.296z" fill="#fff"/><path d="M51.183.32v27.596" stroke="#fff" stroke-width=".8"/><path d="M19.11 18.883c.286-.166.52-.574.52-.905v-6.1c0-.332.234-.738.52-.904l3.364-1.94c.287-.167.522-.032.522.3v11.314c0 .332-.234.74-.52.905L13.313 27.48c-.286.166-.52.03-.52-.3v-4.01c0-.33.234-.738.52-.905l5.796-3.382zm-6.564-13c-.284-.168-.753-.17-1.04-.006L5.65 9.245c-.288.165-.757.164-1.043-.003l-3.36-1.948c-.286-.167-.286-.44 0-.604L11.503.754c.287-.165.756-.165 1.043 0l10.262 5.933c.287.165.286.436 0 .6l-3.478 1.998c-.288.165-.756.162-1.04-.006l-5.744-3.397zm-1.004 1.615c.288-.162.758-.156 1.043.013l4.488 2.665c.285.17.282.44-.007.602l-4.552 2.555c-.29.162-.76.16-1.048-.003l-4.6-2.617c-.288-.164-.287-.43.002-.593l4.674-2.622zm1.25 7.888c0-.332.236-.738.523-.904l4.52-2.61c.287-.165.522-.03.522.3v5.22c0 .332-.235.74-.522.904l-4.52 2.61c-.287.165-.522.03-.522-.3v-5.22zM4.93 18.883c-.286-.166-.52-.574-.52-.905v-6.1c0-.332-.235-.738-.52-.904L.524 9.034c-.287-.167-.52-.032-.52.3v11.314c0 .332.233.74.52.905l10.2 5.927c.287.166.52.03.52-.3v-4.01c0-.33-.233-.738-.52-.905L4.93 18.883z" fill="#fff"/></g><text font-family="Open Sans" font-size="3.5" font-weight="526" fill="#ccc" transform="translate(-1143 -29) translate(1143 29)"><tspan x="110.5" y="7.75">TM</tspan></text></g></svg>