<svg xmlns="http://www.w3.org/2000/svg" width="492.579" height="340.157" viewBox="0 0 492.579 340.157"><g fill-rule="evenodd" clip-rule="evenodd"><path fill="#828282" d="M245.898 250.203c19.773 18.226 46.33 29.275 75.22 29.275 62.045 0 112.26-50.604 112.26-112.835 0-62.435-50.215-113.03-112.26-113.03-28.89 0-55.446 11.04-75.22 29.274-22.682 20.744-37.034 50.604-37.034 83.755 0 33.16 14.353 63.005 37.034 83.56zM418.46 229.46c0-1.936 1.548-3.487 3.484-3.487 2.134 0 3.686 1.552 3.686 3.486 0 2.136-1.552 3.687-3.686 3.687-1.936 0-3.485-1.55-3.485-3.688zm3.484 2.908c1.55 0 2.91-1.356 2.91-2.908 0-1.553-1.36-2.715-2.91-2.715-1.356 0-2.705 1.162-2.705 2.715 0 1.55 1.348 2.908 2.704 2.908zm-.384-1.162h-.772v-3.3h1.353c.2 0 .586 0 .773.204.397.188.397.383.397.764 0 .398-.198.773-.585.773l.77 1.56h-.97l-.385-1.357h-.58v1.356-1.934h.78c.187 0 .187-.195.187-.398 0-.194 0-.194-.187-.38h-.78V231.205z"/><path fill="#A6A6A6" d="M282.157 154.617c-.397-4.07-1.166-7.946-1.95-12.017h-68.625c.78-4.07 1.94-7.955 3.1-11.83h62.24c-1.36-4.07-2.913-8.142-4.652-12.018h-52.74c1.94-4.07 4.077-8.14 6.4-12.017h39.742c-2.52-4.08-5.42-8.15-8.536-11.83h-22.682c3.494-4.266 7.373-8.336 11.444-12.018-19.968-18.038-46.34-29.275-75.423-29.275-61.85 0-112.258 50.596-112.258 113.03 0 62.232 50.41 112.836 112.258 112.836 29.084 0 55.455-11.05 75.423-29.275 4.07-3.68 7.756-7.557 11.237-11.822h-22.682c-3.096-3.875-5.812-7.75-8.523-12.017h39.74c2.52-3.884 4.665-7.76 6.6-12.024h-52.742c-1.747-3.878-3.486-7.76-4.847-11.832h62.24c1.354-3.876 2.328-7.946 3.287-12.017.783-3.884 1.552-7.946 1.95-12.024.38-3.877.58-7.752.58-11.823s-.198-8.142-.58-12.026z"/><path fill="#fff" d="M418.46 192.822c0-2.137 1.548-3.688 3.484-3.688 2.134 0 3.686 1.552 3.686 3.688 0 1.935-1.552 3.68-3.686 3.68-1.936 0-3.485-1.746-3.485-3.68zm3.484 2.706c1.55 0 2.91-1.162 2.91-2.706 0-1.56-1.36-2.722-2.91-2.722-1.356 0-2.705 1.162-2.705 2.722 0 1.544 1.348 2.706 2.704 2.706zm-.384-1.162h-.772v-3.104h2.126c.397.195.397.585.397.967 0 .194-.198.592-.585.778l.77 1.357h-.97l-.385-1.162h-.58v1.163-1.738h.385c.195 0 .395 0 .395-.203.187 0 .187-.195.187-.383 0 0 0-.194-.187-.194 0-.195-.2 0-.395 0h-.385v2.518z"/><path fill="#666" d="M207.7 199.217c-3.68.967-6.394 1.55-9.103 1.55-5.82 0-9.312-3.687-9.312-10.276 0-1.356.195-2.714.387-4.265l.775-4.46.585-3.69 5.23-31.786H207.9l-1.36 6.97h7.37l-1.75 11.636h-7.363l-3.1 19.005c-.2.968-.2 1.544-.2 1.935 0 2.527 1.167 3.494 4.072 3.494 1.355 0 2.518-.196 3.683-.392l-1.552 10.28zM245.317 198.827c-4.266 1.162-8.142 1.74-12.407 1.74-13.187 0-20.75-6.973-20.75-20.745 0-16.088 8.92-27.724 21.328-27.724 9.888 0 16.283 6.598 16.283 16.868 0 3.494-.386 6.784-1.353 11.44h-24.233c-.195.78-.195 1.162-.195 1.552 0 5.43 3.685 8.142 10.66 8.142 4.465 0 8.345-.967 12.603-2.908l-1.936 11.635zm-7.173-27.73v-2.318c0-3.885-2.13-6.014-5.818-6.014-3.875 0-6.59 2.91-7.75 8.33h13.568zM114.64 199.8H102.62l6.98-44.013L93.896 199.8H85.56l-.973-43.818-7.37 43.82h-11.83l9.507-57.202H92.54l.388 35.287L104.75 142.6h19.388l-9.5 57.2zM143.914 179.05c-1.162-.195-1.552-.195-2.324-.195-6.98 0-10.473 2.714-10.473 6.98 0 2.907 1.747 4.85 4.46 4.85 5.82 0 8.147-4.85 8.337-11.636zm9.694 20.75h-10.466l.195-4.85c-2.714 3.68-6.402 5.615-12.797 5.615-5.822 0-10.86-5.225-10.86-12.79 0-2.137.386-4.07.97-6.012 1.94-7.176 9.11-11.636 20.164-11.83 1.36 0 3.49 0 5.432.194.382-1.544.382-2.13.382-3.096 0-3.103-2.52-4.07-8.142-4.07-3.486 0-7.37.577-10.083 1.552l-1.747.382-.772.195 1.747-10.475c5.62-1.747 9.694-2.52 14.155-2.52 10.465 0 16.088 4.852 16.088 13.766 0 2.333.195 4.07-.577 9.117l-2.714 16.673-.39 2.91-.195 2.33-.195 1.545-.194 1.366zM303.876 153.658c3.486 0 6.59.96 10.855 3.096l2.134-12.407c-1.165-.585-1.552-.585-3.11-1.162l-4.84-1.357c-1.552-.39-3.485-.585-5.623-.585-6.012 0-9.505.195-13.182 2.332-1.946 1.35-4.465 3.096-7.183 6.2l-1.548-.39-12.407 8.727.584-4.85h-12.8l-7.557 46.54h12.207l4.462-25.018s1.75-3.485 2.52-4.655c2.33-2.91 4.265-2.91 6.788-2.91h.966c-.385 2.714-.58 5.623-.58 8.922 0 15.12 8.53 24.627 21.718 24.627 3.3 0 6.208-.39 10.668-1.552l2.138-13.188c-3.883 2.137-7.37 3.104-10.286 3.104-7.175 0-11.44-5.428-11.44-13.96 0-12.602 6.403-21.516 15.518-21.516zM406.824 142.6l-2.715 16.283c-2.905-4.453-6.403-6.59-11.06-6.59-6.398 0-12.398 3.688-16.088 10.668v-.194l-7.75-4.655.77-4.85h-12.99l-7.37 46.54h12.02l4.074-25.017s3.108-3.485 3.876-4.655c1.938-2.324 3.884-2.714 5.436-2.91-1.365 3.878-2.132 8.532-2.132 13.773 0 11.637 6 19.39 14.922 19.39 4.465 0 7.954-1.554 11.252-5.234l-.588 4.655h11.44l9.315-57.2h-12.413zm-14.927 46.143c-4.078 0-6.21-3.104-6.21-9.107 0-9.117 3.878-15.707 9.5-15.707 4.267 0 6.4 3.29 6.4 9.108 0 9.31-3.88 15.705-9.69 15.705zM335.865 179.05c-1.16-.195-1.548-.195-2.327-.195-6.984 0-10.47 2.714-10.47 6.98 0 2.907 1.747 4.85 4.453 4.85 5.82 0 8.15-4.85 8.345-11.636zm9.69 20.75h-10.668l.398-4.85c-2.72 3.68-6.398 5.615-12.802 5.615-6.013 0-11.24-5.038-11.24-12.79 0-11.05 8.324-17.843 21.51-17.843 1.365 0 3.486 0 5.233.195.402-1.544.59-2.13.59-3.096 0-3.103-2.523-4.07-8.34-4.07-3.3 0-7.367.577-10.085 1.552l-1.55.382-.766.195 1.732-10.475c5.63-1.747 9.704-2.52 14.153-2.52 10.473 0 15.9 4.852 15.9 13.766 0 2.333.39 4.07-.577 9.117l-2.52 16.673-.39 2.91-.393 2.33-.188 1.545v1.366h.003zM179.012 163.15c2.328 0 5.62.194 9.104.778l1.75-10.855c-3.488-.39-8.146-.975-10.854-.975-13.573 0-18.034 7.37-18.034 15.9 0 5.624 2.52 9.696 9.116 12.8 4.844 2.322 5.616 2.712 5.616 4.84 0 2.91-2.515 4.657-7.167 4.657-3.688 0-7.174-.578-11.058-1.934l-1.35 10.66.188.196 2.328.38c.777.204 1.752.392 3.102.587 2.913.195 5.427.382 6.98.382 13.577 0 19.2-5.225 19.2-15.503 0-6.403-3.104-10.28-9.117-12.993-5.233-2.325-5.817-2.714-5.817-4.852-.003-2.127 2.328-4.07 6.014-4.07z"/><path fill="#fff" d="M320.15 140.658l-2.13 12.416c-4.268-2.137-7.367-3.104-10.854-3.104-9.116 0-15.51 8.914-15.51 21.523 0 8.72 4.27 13.95 11.44 13.95 2.9 0 6.402-.966 10.27-2.9l-2.125 12.985c-4.46 1.162-7.365 1.747-10.664 1.747-13.187 0-21.328-9.5-21.328-24.814 0-20.36 11.245-34.703 27.334-34.703 2.128 0 4.07.195 5.622.577l4.847 1.162c1.55.585 1.948.78 3.1 1.162zM280.99 149.19h-1.164c-4.07 0-6.39 1.94-10.084 7.564l1.163-7.174h-11.052l-7.552 46.533h12.217c4.453-28.503 5.62-33.346 11.433-33.346h.772c1.17-5.623 2.72-9.693 4.655-13.382l-.386-.195zM210.803 195.528c-3.292 1.162-6.006 1.553-8.72 1.553-6.207 0-9.697-3.485-9.697-10.278 0-1.162.2-2.713.39-4.062l.776-4.664.577-3.673 5.24-31.802h12.017l-1.356 6.98h6.2l-1.548 11.44h-6.204l-3.29 19.387c-.195.78-.195 1.357-.195 1.94 0 2.325 1.16 3.292 4.07 3.292 1.357 0 2.52 0 3.3-.383l-1.56 10.27zM164.078 164.32c0 5.81 2.717 9.888 9.117 12.983 5.038 2.332 5.817 3.104 5.817 5.045 0 2.91-2.138 4.258-6.984 4.258-3.685 0-6.98-.576-10.855-1.738l-1.747 10.66.582.195 2.133.39c.777.194 1.748.39 3.3.39 2.714.39 5.037.39 6.59.39 12.798 0 18.81-4.85 18.81-15.52 0-6.394-2.523-10.074-8.53-12.983-5.234-2.332-5.818-2.91-5.818-5.046 0-2.52 2.136-3.68 6.012-3.68 2.325 0 5.615.186 8.724.576l1.742-10.66c-3.1-.585-7.947-.967-10.66-.967-13.58 0-18.424 7.174-18.232 15.706zM413.023 196.113h-11.437l.585-4.46c-3.302 3.493-6.787 5.037-11.248 5.037-8.922 0-14.74-7.557-14.74-19.19 0-15.513 9.117-28.692 19.785-28.692 4.85 0 8.337 2.128 11.628 6.395l2.722-16.283h12.02l-9.314 57.193zm-17.835-10.856c5.63 0 9.502-6.598 9.502-15.706 0-6.012-2.133-9.115-6.402-9.115-5.424 0-9.486 6.402-9.486 15.51 0 6.21 2.12 9.312 6.386 9.312zM248.032 195.146c-4.267 1.356-8.14 1.935-12.604 1.935-13.572 0-20.552-7.175-20.552-20.938 0-15.9 8.918-27.723 21.138-27.723 10.083 0 16.474 6.588 16.474 16.867 0 3.494-.386 6.784-1.548 11.635h-24.042c-.19.578-.19.967-.19 1.357 0 5.427 3.68 8.14 10.663 8.14 4.457 0 8.33-.78 12.6-2.908l-1.938 11.634zm-6.785-27.73v-2.325c0-3.875-2.133-6.012-5.818-6.012-3.88 0-6.59 2.91-7.756 8.337h13.573zM117.743 196.113h-12.017l6.97-44.015-15.705 44.015h-8.335l-.967-43.625-7.37 43.625h-11.24l9.5-57.194h17.446l.585 35.482 11.627-35.483h19.004l-9.497 57.193zM147.794 175.37c-1.166 0-1.743-.195-2.718-.195-6.785 0-10.274 2.52-10.274 7.174 0 2.908 1.552 4.655 4.27 4.655 5.037 0 8.532-4.657 8.722-11.636zm8.918 20.743H146.63l.194-4.85c-3.1 3.883-7.174 5.63-12.797 5.63-6.59 0-11.05-5.046-11.05-12.61 0-11.44 7.755-18.03 21.328-18.03 1.356 0 3.104.194 5.038.39.39-1.552.39-2.13.39-2.91 0-3.103-2.128-4.265-7.75-4.265-3.495 0-7.37.382-10.084 1.162l-1.748.585-1.162.195 1.743-10.474c6.008-1.746 10.083-2.324 14.54-2.324 10.474 0 16.096 4.648 16.096 13.57 0 2.33-.196 4.07-.968 9.31l-2.718 16.48-.386 2.9-.2 2.33-.19 1.748-.196 1.163zM339.733 175.37c-1.345 0-1.942-.195-2.71-.195-6.983 0-10.47 2.52-10.47 7.174 0 2.908 1.747 4.655 4.465 4.655 4.847 0 8.524-4.657 8.715-11.636zm8.922 20.743h-10.08l.19-4.85c-3.096 3.883-7.166 5.63-12.796 5.63-6.587 0-11.052-5.046-11.052-12.61 0-11.44 7.756-18.03 21.32-18.03 1.365 0 3.112.194 4.85.39.4-1.552.587-2.13.587-2.91 0-3.103-2.134-4.265-7.756-4.265-3.486 0-7.558.382-10.272 1.162l-1.548.585-1.17.195 1.743-10.474c6.017-1.746 10.08-2.324 14.548-2.324 10.47 0 15.887 4.648 15.887 13.57 0 2.33 0 4.07-.967 9.31l-2.52 16.48-.382 2.9-.383 2.33-.202 1.748v1.163h.002zM381.23 149.19h-1.163c-4.07 0-6.403 1.94-10.084 7.564l1.163-7.174h-11.05l-7.37 46.533h12.017c4.47-28.503 5.63-33.346 11.44-33.346h.78c1.165-5.623 2.717-9.693 4.65-13.382l-.384-.195z"/></g></svg>