<svg xmlns="http://www.w3.org/2000/svg" width="224.874" height="73.931" viewBox="0 0 224.874 73.931"><path fill-rule="evenodd" clip-rule="evenodd" fill="#999" d="M67.728 39.49c-3.06-7.64-4.59-11.71-4.59-12.19h-.22c0 .41-1.58 4.47-4.75 12.19h9.56zm7.5 10.78h-4.13c0-.87-.82-3.61-2.47-8.22h-11.29c-1.61 4.54-2.42 7.29-2.42 8.22h-3.95c0-.48 1.68-4.64 5.04-12.49 3.37-7.84 5.06-12.16 5.06-12.94h4.53c0 .77 1.61 5.02 4.82 12.76 3.2 7.73 4.81 11.96 4.81 12.67zM91.258 46.4c0-4.04-.11-7.94-.33-11.7-1.06-.87-2.37-1.3-3.95-1.3-2.21 0-3.86.73-4.95 2.19-1.1 1.47-1.65 3.31-1.65 5.53 0 1.97.52 3.64 1.56 4.99 1.04 1.36 2.47 2.03 4.31 2.03 2.31 0 3.98-.58 5.01-1.74zm3.15 3.85l-2.91.1c-.11-.56-.16-1.15-.16-1.78h-.22c-1.36 1.49-3.4 2.23-6.1 2.23-2.48 0-4.45-.9-5.92-2.7-1.47-1.79-2.2-3.96-2.2-6.5 0-2.88.81-5.36 2.45-7.44 1.63-2.09 3.92-3.13 6.88-3.13 2.12 0 3.63.43 4.54 1.29h.16c0-3.23-.09-6.4-.28-9.51l3.72-.14c-.25 3.31-.37 7.64-.37 12.99 0 5.45.14 10.31.41 14.59z"/><path fill="#999" d="M114.553 31.72c0 .64-1.32 3.71-3.97 9.23-2.64 5.51-3.96 8.62-3.96 9.32h-2.62c0-.91-1.17-4.1-3.49-9.56-2.33-5.46-3.5-8.46-3.5-8.99h3.8c0 .62.85 3.1 2.54 7.44 1.7 4.33 2.55 6.82 2.55 7.44h.17c0-.6.81-2.99 2.42-7.17s2.41-6.75 2.41-7.71h3.65z"/><path fill-rule="evenodd" clip-rule="evenodd" fill="#999" d="M128.743 46.48c-.07-1.97-.1-3.76-.1-5.33-2.45 0-4.32.19-5.6.55-2.14.65-3.21 1.89-3.21 3.73 0 1.77 1.26 2.66 3.76 2.66 2.16 0 3.87-.54 5.15-1.61zm3.46 3.79l-3.07.12c-.16-.64-.24-1.24-.24-1.82h-.19c-1.61 1.46-3.79 2.19-6.55 2.19-1.51 0-2.8-.44-3.88-1.32-1.08-.88-1.62-2.13-1.62-3.76 0-2 .84-3.62 2.54-4.83 1.69-1.22 4.84-1.86 9.45-1.92.04-.32.06-.68.06-1.08 0-1.6-.43-2.67-1.28-3.2-.86-.54-2.15-.8-3.89-.8-2.05 0-4.06.25-6.04.76l.33-2.7c1.95-.56 4.21-.84 6.75-.84 2.32 0 4.11.48 5.38 1.44 1.27.95 1.9 2.59 1.9 4.89 0 .62-.03 1.72-.09 3.33s-.09 2.68-.09 3.22c0 2.36.18 4.47.53 6.32z"/><path fill="#999" d="M152.763 50.27h-3.56c.29-3.42.43-7.16.43-11.21 0-2-.41-3.38-1.22-4.11-.82-.74-1.98-1.1-3.5-1.1-1.85 0-3.56.67-5.12 2.01 0 4.44.03 9.24.08 14.41h-3.56c.22-4.43.33-7.63.33-9.61 0-3.04-.29-6-.86-8.87l3.44-.49.37 2.39h.16c1.93-1.74 4-2.62 6.2-2.62 2.17 0 3.84.48 5.03 1.44 1.19.95 1.78 2.66 1.78 5.11 0 .24-.01.73-.04 1.46-.02.73-.04 1.22-.04 1.47 0 2.17.03 5.41.08 9.72zM171.633 47.28l-.2 2.62c-1.05.6-2.47.9-4.24.9-3.38 0-5.96-.93-7.75-2.79-1.79-1.86-2.68-4.11-2.68-6.74 0-2.79.94-5.18 2.82-7.19 1.88-2 4.37-3.01 7.45-3.01 1.56 0 2.82.16 3.8.47l-.53 3.07c-1.37-.51-2.76-.76-4.17-.76-1.85 0-3.33.64-4.42 1.93-1.1 1.29-1.64 2.9-1.64 4.84 0 2.12.65 3.87 1.95 5.28 1.31 1.4 3.16 2.11 5.54 2.11.98 0 2.34-.24 4.07-.73zM175.263 50.28c.17-3.94.25-8.37.25-13.31 0-4.74-.08-8.78-.25-12.13h15.89l-.22 4.28c-3.92-.21-7.46-.31-10.64-.31.12 1.81.19 3.94.19 6.4 2.73 0 5.64-.07 8.75-.21v4.08c-3.05-.13-5.97-.19-8.75-.19 0 2.64.05 5.11.16 7.42 3.57 0 7.38-.11 11.43-.34l-.16 4.31h-16.65z"/><path fill-rule="evenodd" clip-rule="evenodd" fill="#999" d="M201.843 24.78c-1.11.04-1.95.06-2.51.06h-3.42c.17 3.35.25 7.39.25 12.13 0 4.94-.08 9.37-.25 13.3 3.38.16 6.05.24 7.98.24 4.27 0 7.6-1.38 9.98-4.15 2.37-2.76 3.56-5.98 3.56-9.68 0-3.28-1.06-6.1-3.18-8.44-2.12-2.35-5.53-3.51-10.24-3.51-.34 0-1.06.01-2.17.05zm-.55 21.45c-.13-3.06-.2-6.15-.2-9.26 0-2.84-.06-5.56-.19-8.16.98-.12 1.74-.18 2.3-.18 3 0 5.24.86 6.7 2.57s2.19 3.82 2.19 6.32-.68 4.61-2.03 6.36c-1.34 1.73-3.43 2.6-6.23 2.6-.85 0-1.69-.08-2.54-.25zM24.318 23.35c-2.44-1.59-4.14-3.64-4.7-5.73-.28-1.04-.3-2.07-.42-2.22-.13-.14-.03 1.24.16 2.14.46 2.28 2.16 4.59 4.73 6.39-.93 2.29-1.75 4.69-2.42 7.19-2.9-1.51-5.26-3.47-6.86-5.63.77-1.7 1.75-3.41 2.98-5.15.04-.04.84-1.13.76-1.18-.09-.05-.69.54-1.1 1.03-.97 1.19-2.13 2.69-3.13 4.61-1.37-2.09-2.05-4.32-1.83-6.47 1.25-1.63 2.66-2.94 4-3.96 0 0 .78-.7 2.57-1.58-1.23.28-2.84 1.22-2.84 1.22-7.79 5.16-10.02 12.77-9.23 18.81.5 7.55 5.05 14.56 12.39 17.88.34 8.45 2.35 15.84 5.09 20.86-2.21-5.69-3.64-12.72-3.83-20.33 10.57 4.01 22.52-.98 27.01-11.45 4.62-10.76-.37-23.21-11.14-27.82l-.59-.23c1.65.77 3.15 1.73 4.49 2.85 2.11 2.12 3.11 4.65 2.42 6.94-1.25 4.11-7.45 5.89-13.86 3.96-1.25-.38-2.42-.86-3.49-1.44 3.65-9.21 9.01-16.94 14.56-22.24-5.57 4.08-11.63 11.72-15.72 21.55zm18.26 4.3c-.21-.97-.48-1.88-.78-2.72.86-.73 1.49-1.63 1.8-2.68.61-2.02-.04-4.22-1.6-6.19 2.02 2.1 3.56 4.6 4.53 7.3.19 1.21.13 2.41-.22 3.58-.53 1.75-1.65 3.21-3.18 4.36-.09-1.29-.28-2.52-.55-3.65zm-34.46 2.38c.19-3.43 1.17-6.63 2.73-9.17.44-.85.96-1.63 1.5-2.35-.4 2.31.22 4.73 1.63 6.99l-.17.35c-1.28 2.75-2.19 6.24-2.24 10.17-1.87-1.87-3.07-3.93-3.45-5.99zm18.09 2.93c-1.15-.34-2.23-.75-3.27-1.22.65-2.44 1.42-4.8 2.3-7.08 1.19.69 2.51 1.28 3.96 1.71 1.37.41 2.74.65 4.05.76.31 2.32.42 4.66.34 6.93h-.16c-2.3 0-4.76-.36-7.22-1.1zm14.57-7.31c.54 2.2.82 4.42.87 6.57-1.91 1.01-4.25 1.63-6.84 1.79.07-1.73-.01-3.37-.21-4.88-.08-.69-.19-1.33-.3-1.96l.23.01c2.43 0 4.61-.54 6.25-1.53zm-28.4 11.13c-.02-3.4.57-6.92 2.1-10.54 1.59 2.24 3.98 4.3 6.92 5.9-.17.67-.33 1.34-.48 2.02-.53 2.35-.92 4.68-1.18 6.97-2.93-1.15-5.43-2.65-7.36-4.35zm30.8-3.61c2.08-1.26 3.59-3 4.24-5.15.05-.17.08-.34.12-.51.47 3.44.05 7.04-1.37 10.47-1.08 1.41-2.64 2.57-4.54 3.45 1.07-2.83 1.52-5.64 1.55-8.26zm-32.14 9.32c-1.85-3.24-2.76-6.71-2.93-10.05.65 1.72 1.83 3.42 3.48 4.98.08 2.27.47 4.66 1.22 7.11-.63-.64-1.23-1.32-1.77-2.04zm10.9-.58c-.29-.09-.58-.19-.87-.29.27-2.37.67-4.76 1.21-7.16.13-.56.27-1.11.4-1.66 1.21.57 2.49 1.07 3.85 1.48 2.38.71 4.74 1.08 6.98 1.13-.15 2.09-.45 4.09-.89 5.89-.16.73-.34 1.41-.53 2.08h-.44c-3.14 0-6.45-.47-9.71-1.47zm12.8-6.51c2.55-.07 4.91-.57 6.89-1.43-.06 1.91-.32 3.74-.74 5.41-.21.93-.46 1.81-.74 2.64-2.1.75-4.51 1.2-7.08 1.32.94-2.7 1.46-5.39 1.67-7.94zm-15.47 13.53c-2.21-.95-4.17-2.24-5.83-3.79-.47-1.87-.88-4.25-1.02-6.98 1.93 1.63 4.36 3.07 7.19 4.19-.21 2.25-.29 4.46-.27 6.61l-.07-.03zm21.53-5.57c1.19-.42 2.29-.93 3.27-1.52-1.52 2.19-3.44 4.02-5.6 5.42.93-1.28 1.7-2.59 2.33-3.9zm-20.19 6.09c.01-2.17.11-4.37.33-6.6.38.13.75.25 1.14.38 3.21.98 6.48 1.47 9.58 1.5-.86 2.53-1.89 4.51-2.62 5.78-.57.05-1.15.07-1.74.07-2.22 0-4.48-.37-6.69-1.13zm11.94-4.72c2.47-.04 4.82-.37 6.93-.96-.76 1.78-1.61 3.22-2.29 4.25-2.37 1.31-4.99 2.15-7.7 2.44 1.27-1.86 2.28-3.79 3.06-5.73z"/></svg>