<svg xmlns="http://www.w3.org/2000/svg" width="492.579" height="340.157" viewBox="0 0 492.579 340.157"><path fill="#828282" d="M84.75 115.947H51.57c-2.274 0-4.203 1.65-4.558 3.89l-13.417 85.078c-.265 1.677 1.033 3.193 2.74 3.193h15.837c2.27 0 4.202-1.65 4.552-3.895l3.62-22.95c.35-2.245 2.283-3.894 4.552-3.894h10.504c21.854 0 34.47-10.575 37.758-31.534 1.487-9.17.066-16.373-4.227-21.418-4.718-5.54-13.08-8.47-24.184-8.47zm3.827 31.072c-1.815 11.904-10.91 11.904-19.704 11.904H63.86l3.516-22.233c.21-1.343 1.375-2.332 2.73-2.332h2.297c5.993 0 11.64 0 14.563 3.416 1.74 2.037 2.278 5.064 1.61 9.245zM183.926 146.637h-15.89c-1.356 0-2.522.988-2.73 2.333l-.706 4.444-1.11-1.61c-3.438-4.994-11.113-6.662-18.764-6.662-17.557 0-32.552 13.296-35.47 31.953-1.52 9.304.634 18.202 5.913 24.403 4.84 5.71 11.77 8.082 20.01 8.082 14.146 0 21.99-9.096 21.99-9.096l-.705 4.415c-.27 1.69 1.033 3.2 2.724 3.2h14.31c2.275 0 4.2-1.647 4.56-3.897l8.584-54.375c.275-1.672-1.023-3.19-2.718-3.19zm-22.15 30.922c-1.534 9.076-8.736 15.17-17.927 15.17-4.615 0-8.3-1.48-10.67-4.284-2.345-2.785-3.24-6.75-2.492-11.16 1.43-9.002 8.755-15.294 17.803-15.294 4.512 0 8.183 1.498 10.6 4.326 2.422 2.855 3.38 6.845 2.687 11.24zM268.538 146.637H252.57c-1.52 0-2.954.756-3.816 2.023l-22.02 32.433-9.334-31.168c-.588-1.95-2.387-3.288-4.425-3.288H197.29c-1.91 0-3.23 1.862-2.625 3.658L212.25 201.9l-16.532 23.34c-1.304 1.842.008 4.366 2.254 4.366h15.946c1.512 0 2.934-.738 3.79-1.98l53.104-76.65c1.27-1.833-.038-4.34-2.274-4.34z"/><path fill="#A6A6A6" d="M321.4 115.947h-33.184c-2.264 0-4.197 1.65-4.552 3.89l-13.42 85.078c-.268 1.677 1.035 3.193 2.728 3.193H290c1.58 0 2.937-1.156 3.183-2.73l3.81-24.113c.35-2.246 2.282-3.895 4.547-3.895h10.5c21.858 0 34.47-10.574 37.768-31.533 1.487-9.17.057-16.373-4.235-21.418-4.712-5.543-13.068-8.473-24.174-8.473zm3.828 31.072c-1.81 11.904-10.906 11.904-19.708 11.904h-5.004l3.52-22.233c.21-1.343 1.36-2.332 2.725-2.332h2.293c5.99 0 11.646 0 14.568 3.416 1.74 2.037 2.27 5.064 1.608 9.245zM420.566 146.637H404.69c-1.364 0-2.524.988-2.724 2.333l-.706 4.444-1.112-1.61c-3.44-4.994-11.105-6.662-18.76-6.662-17.56 0-32.55 13.296-35.473 31.953-1.512 9.304.64 18.202 5.918 24.403 4.852 5.71 11.77 8.082 20.012 8.082 14.146 0 21.987-9.096 21.987-9.096l-.707 4.415c-.265 1.69 1.033 3.2 2.734 3.2h14.307c2.265 0 4.192-1.647 4.553-3.897l8.59-54.375c.26-1.672-1.038-3.19-2.744-3.19zm-22.142 30.922c-1.526 9.076-8.736 15.17-17.928 15.17-4.604 0-8.3-1.48-10.67-4.284-2.344-2.785-3.23-6.75-2.49-11.16 1.438-9.002 8.754-15.294 17.803-15.294 4.51 0 8.177 1.498 10.592 4.326 2.436 2.855 3.393 6.845 2.692 11.24zM439.298 118.28l-13.615 86.634c-.266 1.677 1.034 3.193 2.725 3.193h13.69c2.274 0 4.203-1.65 4.554-3.895l13.43-85.073c.267-1.68-1.032-3.2-2.723-3.2h-15.332c-1.354.007-2.52.998-2.73 2.34z"/></svg>