<svg xmlns="http://www.w3.org/2000/svg" width="340.158" height="340.157" viewBox="0 0 340.158 340.157"><radialGradient id="a" cx="-68.496" cy="515.017" r="263.083" gradientTransform="matrix(1 0 0 -1 149.052 594.623)" gradientUnits="userSpaceOnUse"><stop offset="0" stop-color="#A6A6A6"/><stop offset="1" stop-color="#828282"/></radialGradient><path fill="url(#a)" d="M31.103 30.173h281.945v282.965H31.103z"/><path fill="#fff" d="M56.517 152.617L51.093 139.4 45.7 152.617h10.817zm119.49-5.263c-1.09.66-2.377.683-3.92.683h-9.627v-7.364h9.758c1.38 0 2.822.062 3.758.598 1.028.484 1.664 1.512 1.664 2.932 0 1.45-.605 2.615-1.633 3.152zm68.678 5.263L239.2 139.4l-5.452 13.217h10.937zm-128.02 14.306h-8.123l-.03-25.966-11.492 25.966h-6.958l-11.52-25.99v25.99H62.42l-3.044-7.395h-16.5l-3.076 7.395h-8.607l14.19-33.154H57.16l13.48 31.39v-31.39h12.933l10.37 22.49 9.528-22.49h13.195v33.153zm32.38 0H122.57V133.77h26.474v6.903h-18.548v5.976H148.6v6.795h-18.104v6.62h18.548v6.858zm37.325-24.225c0 5.286-3.527 8.017-5.584 8.837 1.734.66 3.216 1.826 3.92 2.792 1.12 1.65 1.313 3.122 1.313 6.083v6.513h-7.994l-.03-4.18c0-1.996.19-4.865-1.25-6.46-1.158-1.166-2.924-1.42-5.776-1.42h-8.507v12.06h-7.925V133.77h18.228c4.05 0 7.034.106 9.596 1.587 2.505 1.48 4.008 3.643 4.008 7.34zm12.682 24.225h-8.086V133.77h8.086v33.153zm93.808 0h-11.23l-15.02-24.884v24.883h-16.14l-3.084-7.395h-16.462l-2.992 7.395h-9.273c-3.853 0-8.73-.852-11.49-3.666-2.786-2.816-4.235-6.628-4.235-12.658 0-4.918.866-9.413 4.272-12.965 2.562-2.646 6.573-3.866 12.034-3.866h7.674v7.103h-7.512c-2.892 0-4.524.43-6.098 1.964-1.352 1.396-2.278 4.035-2.278 7.51 0 3.552.706 6.113 2.18 7.786 1.22 1.312 3.437 1.71 5.522 1.71h3.56l11.17-26.073h11.873l13.418 31.36v-31.36h12.065l13.93 23.09v-23.09h8.117v33.153zm-261.757 6.513h13.54l3.053-7.364h6.835l3.046 7.364h26.642v-5.63l2.378 5.653h13.83l2.378-5.738v5.714h66.208l-.03-12.088h1.28c.896.03 1.16.114 1.16 1.595v10.493h34.242v-2.814c2.762 1.48 7.058 2.814 12.71 2.814h14.406l3.083-7.364h6.835l3.016 7.364h27.76v-6.995l4.205 6.996h22.245v-46.24h-22.017v5.46l-3.083-5.46h-22.59v5.46l-2.832-5.46h-30.515c-5.108 0-9.598.713-13.225 2.7v-2.7h-21.06v2.7c-2.307-2.048-5.452-2.7-8.95-2.7h-76.93L93.56 139.14l-5.3-11.944H64.026v5.46l-2.662-5.46H40.7L31.1 149.18v24.256zM313.048 207.326c1.12 1.512 1.673 3.307 1.673 6.205 0 2.532-.552 4.605-1.672 6.224l-.246.31c-1.925 2.814-5.43 3.932-10.508 3.932H286.99v-7.11h15.242c1.512 0 2.57-.2 3.207-.822.55-.512.937-1.258.937-2.162 0-.967-.386-1.732-.97-2.193-.573-.507-1.41-.737-2.79-.737-7.44-.252-16.725.23-16.725-10.264 0-4.812 3.054-9.874 11.37-9.874h15.785v-6.598H298.38c-4.425 0-7.64 1.06-9.917 2.708v-2.708H266.77c-3.47 0-7.54.86-9.467 2.708v-2.708h-38.738v2.708c-3.083-2.224-8.285-2.708-10.686-2.708h-25.553v2.708c-2.44-2.362-7.863-2.708-11.17-2.708H142.56l-6.544 7.082-6.13-7.082H87.17v46.27h41.914l6.742-7.192 6.353 7.193 25.835.022v-10.885h2.54c3.428.053 7.47-.086 11.038-1.627v12.488h21.31v-12.06h1.028c1.313 0 1.442.054 1.442 1.364v10.693h64.735c4.11 0 8.406-1.052 10.785-2.96v2.96h20.534c4.272 0 8.446-.6 11.62-2.133l2.282-1.964v-26.596l-2.28-1.923h-14.444c-1.44 0-2.4.053-3.207.598-.836.537-1.158 1.334-1.158 2.386 0 1.252.705 2.102 1.732 2.47.836.292 1.734.376 3.054.376l4.295.115c4.335.107 7.23.852 8.992 2.67.322.253.515.538.736.82m-31.61-.82c1.542 1.597 2.37 3.613 2.37 7.026 0 7.135-4.458 10.465-12.45 10.465h-15.435v-7.11h15.373c1.503 0 2.568-.2 3.236-.822.545-.512.937-1.258.937-2.162 0-.966-.424-1.732-.968-2.192-.606-.506-1.442-.736-2.822-.736-7.41-.252-16.692.23-16.692-10.264 0-4.81 3.022-9.873 11.33-9.873h15.888v7.06H267.67c-1.442 0-2.38.053-3.177.598-.867.537-1.19 1.334-1.19 2.386 0 1.25.738 2.1 1.735 2.47.836.29 1.733.375 3.084.375l4.266.115c4.3.103 7.254.848 9.05 2.666zm-71.51-2.048c-1.06.63-2.37.684-3.912.684h-9.627v-7.447h9.757c1.41 0 2.823.03 3.782.6 1.026.536 1.64 1.563 1.64 2.98 0 1.42-.613 2.563-1.64 3.184zm4.787 4.127c1.764.65 3.206 1.818 3.882 2.784 1.12 1.62 1.28 3.13 1.312 6.054v6.573h-7.956v-4.15c0-1.993.19-4.948-1.28-6.49-1.16-1.187-2.924-1.472-5.815-1.472h-8.47v12.112h-7.963v-33.162h18.296c4.012 0 6.934.177 9.535 1.565 2.5 1.51 4.074 3.58 4.074 7.363 0 5.295-3.53 7.996-5.617 8.824zm10.01-17.75h26.45v6.857h-18.558v6.03h18.104v6.766h-18.103v6.598l18.558.03v6.88h-26.45v-33.16zm-53.466 15.303h-10.242v-8.444h10.333c2.862 0 4.848 1.166 4.848 4.065 0 2.87-1.894 4.38-4.94 4.38zm-18.135 14.842l-12.167-13.51 12.167-13.077v26.586zm-31.42-3.896H102.22v-6.598h17.397v-6.766H102.22v-6.03h19.868l8.668 9.665-9.05 9.73zm63.002-15.326c0 9.213-6.873 11.114-13.8 11.114h-9.89v11.123h-15.402l-9.758-10.978-10.14 10.978h-31.39v-33.162h31.872l9.75 10.87 10.08-10.87h25.32c6.29 0 13.357 1.74 13.357 10.925z"/></svg>