<svg xmlns="http://www.w3.org/2000/svg" width="492.579" height="340.157" viewBox="0 0 492.579 340.157"><g fill-rule="evenodd" clip-rule="evenodd"><path fill="#828282" d="M194.025 220.098l16.39-101.348h26.204l-16.39 101.348h-26.205zM315.225 121.228c-5.177-2.048-13.372-4.312-23.506-4.312-25.88 0-44.103 13.8-44.21 33.53-.217 14.555 13.046 22.64 22.965 27.492 10.14 4.963 13.587 8.197 13.587 12.615-.105 6.797-8.195 9.92-15.743 9.92-10.458 0-16.067-1.613-24.583-5.39l-3.455-1.616-3.662 22.75c6.146 2.8 17.465 5.28 29.22 5.39 27.5 0 45.395-13.585 45.613-34.61.104-11.54-6.904-20.377-22-27.6-9.163-4.637-14.772-7.764-14.772-12.507.11-4.314 4.748-8.732 15.097-8.732 8.52-.216 14.772 1.83 19.52 3.88l2.37 1.078 3.558-21.888zM350.054 184.192c2.156-5.82 10.457-28.355 10.457-28.355-.103.216 2.157-5.93 3.454-9.703l1.833 8.733s4.958 24.26 6.038 29.325h-21.78zm32.348-65.442H362.13c-6.252 0-11 1.832-13.696 8.41L309.51 220.1h27.496s4.528-12.51 5.5-15.206h33.644c.753 3.56 3.124 15.205 3.124 15.205h24.263l-21.135-101.35zM172.137 118.75l-25.664 69.108-2.805-14.016c-4.743-16.172-19.625-33.745-36.23-42.48l23.507 88.626h27.714l41.187-101.24h-27.71v.002z"/><path fill="#A6A6A6" d="M122.644 118.75H80.48l-.428 2.047c32.887 8.41 54.668 28.68 63.616 53.045l-9.164-46.577c-1.51-6.468-6.145-8.302-11.86-8.515z"/></g></svg>