<?xml version="1.0" encoding="utf-8"?>
<!-- Generator: Adobe Illustrator 17.0.2, SVG Export Plug-In . SVG Version: 6.00 Build 0)  -->
<!DOCTYPE svg PUBLIC "-//W3C//DTD SVG 1.1//EN" "http://www.w3.org/Graphics/SVG/1.1/DTD/svg11.dtd">
<svg version="1.1" id="Layer_1" xmlns="http://www.w3.org/2000/svg" xmlns:xlink="http://www.w3.org/1999/xlink" x="0px" y="0px"
	 width="120px" height="70px" viewBox="0 0 120 70" enable-background="new 0 0 120 70" xml:space="preserve">
<rect x="0.022" y="0.023" fill-rule="evenodd" clip-rule="evenodd" fill="none" width="120" height="70"/>
<g>
	<g>
		<path fill-rule="evenodd" clip-rule="evenodd" fill="#A9A9A9" d="M72.27,29.773c0,6.52-5.3,11.81-11.81,11.81
			c-6.51,0-11.81-5.29-11.81-11.81c0-6.51,5.3-11.81,11.81-11.81C66.969,17.963,72.27,23.263,72.27,29.773z M60.46,43.733
			c-7.7,0-13.96-6.26-13.96-13.96c0-7.69,6.26-13.96,13.96-13.96c7.7,0,13.96,6.27,13.96,13.96
			C74.42,37.473,68.159,43.733,60.46,43.733z M72.639,39.853c2.27-2.73,3.64-6.25,3.64-10.08c0-8.72-7.1-15.82-15.82-15.82
			c-8.72,0-15.82,7.1-15.82,15.82c0,4.16,1.62,7.93,4.25,10.76l-3.15,11.38c-0.11,0.36,0.02,0.74,0.32,0.97
			c0.29,0.24,0.69,0.27,1.02,0.09l5.21-2.88l3.11,4.61c0.17,0.26,0.46,0.41,0.77,0.41l0.13-0.01c0.35-0.04,0.64-0.29,0.75-0.63
			l2.94-8.9c0.16,0,0.31,0.02,0.47,0.02c0.4,0,0.8-0.03,1.2-0.06l2.94,8.94c0.11,0.34,0.41,0.58,0.76,0.63l0.12,0.01
			c0.31,0,0.6-0.15,0.78-0.41l3.1-4.61l5.22,2.88c0.33,0.18,0.73,0.15,1.03-0.09c0.29-0.23,0.42-0.61,0.32-0.97L72.639,39.853z"/>
	</g>
</g>
</svg>
