<?xml version="1.0" encoding="utf-8"?>
<!-- Generator: Adobe Illustrator 17.0.2, SVG Export Plug-In . SVG Version: 6.00 Build 0)  -->
<!DOCTYPE svg PUBLIC "-//W3C//DTD SVG 1.1//EN" "http://www.w3.org/Graphics/SVG/1.1/DTD/svg11.dtd">
<svg version="1.1" id="Layer_1" xmlns="http://www.w3.org/2000/svg" xmlns:xlink="http://www.w3.org/1999/xlink" x="0px" y="0px"
	 width="120px" height="70px" viewBox="0 0 120 70" enable-background="new 0 0 120 70" xml:space="preserve">
<rect x="-0.01" y="0.001" fill-rule="evenodd" clip-rule="evenodd" fill="none" width="120" height="70"/>
<g>
	<path fill-rule="evenodd" clip-rule="evenodd" fill="#9A9A9A" d="M50.82,57.221c-1.94,0-3.52-1.56-3.52-3.47
		c0-1.92,1.58-3.48,3.52-3.48s3.53,1.56,3.53,3.48C54.35,55.661,52.76,57.221,50.82,57.221z M53.19,48.531v-12.44
		c-1.84-1.36-3.54-3-4.73-5.13v17.57c-2.03,0.89-3.44,2.88-3.44,5.21c0,3.16,2.6,5.73,5.8,5.73c3.21,0,5.81-2.57,5.81-5.73
		C56.63,51.411,55.21,49.421,53.19,48.531z"/>
	<path fill-rule="evenodd" clip-rule="evenodd" fill="#9A9A9A" d="M50.82,22.531c-1.94,0-3.52-1.56-3.52-3.48s1.58-3.48,3.52-3.48
		s3.53,1.56,3.53,3.48S52.76,22.531,50.82,22.531z M76.3,48.531l-3.25,3.18v-1.69c-0.17-9.85-6.59-13.55-11.78-16.53
		c-4.95-2.83-7.77-4.7-7.85-9.34c1.89-0.95,3.21-2.86,3.21-5.1c0-3.16-2.6-5.72-5.81-5.72c-3.2,0-5.8,2.56-5.8,5.72
		c0,2.41,1.51,4.46,3.64,5.31c0.2,7.43,5.51,10.49,10.22,13.19c5.06,2.9,9.43,5.4,9.43,12.84v1.39l-3.26-3.24l-2.99,2.92l8.6,8.49
		l8.6-8.47L76.3,48.531z"/>
</g>
</svg>
