<?xml version="1.0" encoding="utf-8"?>
<!-- Generator: Adobe Illustrator 17.0.2, SVG Export Plug-In . SVG Version: 6.00 Build 0)  -->
<!DOCTYPE svg PUBLIC "-//W3C//DTD SVG 1.1//EN" "http://www.w3.org/Graphics/SVG/1.1/DTD/svg11.dtd">
<svg version="1.1" id="Layer_1" xmlns="http://www.w3.org/2000/svg" xmlns:xlink="http://www.w3.org/1999/xlink" x="0px" y="0px"
	 width="120px" height="70px" viewBox="0 0 120 70" enable-background="new 0 0 120 70" xml:space="preserve">
<rect x="0.02" y="-0.004" fill-rule="evenodd" clip-rule="evenodd" fill="none" width="120" height="70"/>
<g>
	<path fill-rule="evenodd" clip-rule="evenodd" fill="#9A9A9A" d="M48.48,40.926c0-0.21-0.03-0.53,0.46-1.03l4.28-4.28
		c0.47-0.47,0.71-0.34,1.05,0l1.59,1.59c0.18,0.18,0.31,0.48,0.79,0l5.8-5.8c0.46-0.46,0.97-0.35,1.32,0l4.74,4.74
		c0.38,0.38,0.79,0.69,0.79,1.06v4.21c0,0.47-0.19,0.53-0.52,0.53H49c-0.38,0-0.53-0.38-0.53-0.53L48.48,40.926z M49.53,29.396
		c0-1.31,1.06-2.37,2.37-2.37c1.31,0,2.37,1.06,2.37,2.37c0,1.31-1.06,2.37-2.37,2.37C50.59,31.766,49.53,30.706,49.53,29.396z
		 M71.24,43.856H46.67v-19.95h24.57V43.856z M46.33,22.566c-0.56,0-1.02,0.46-1.02,1.02v20.66c0,0.56,0.46,1.02,1.02,1.02h25.38
		c0.56,0,1.02-0.46,1.02-1.02v-20.66c0-0.56-0.46-1.02-1.02-1.02H46.33z"/>
</g>
<g>
	<path fill-rule="evenodd" clip-rule="evenodd" fill="#989898" d="M25.37,30.626l-1.3,1.29c0.67,0.66,1.08,1.58,1.08,2.59
		c0,1.02-0.41,1.93-1.08,2.59l1.3,1.3c0.99-1,1.61-2.37,1.61-3.89C26.98,32.996,26.36,31.616,25.37,30.626z M30.62,34.506
		c0-2.52-1.02-4.8-2.68-6.45l-1.28,1.28c1.32,1.32,2.14,3.15,2.14,5.17s-0.82,3.85-2.14,5.18l1.28,1.28
		C29.6,39.316,30.62,37.036,30.62,34.506z M34.27,34.506c0-3.53-1.44-6.72-3.75-9.03l-1.29,1.29c1.99,1.98,3.22,4.72,3.22,7.74
		c0,3.03-1.23,5.77-3.22,7.75l1.29,1.29C32.83,41.236,34.27,38.036,34.27,34.506z M11.58,38.156h4.8l5.22,4.83v-16.95l-5.12,4.83
		h-4.9V38.156z"/>
</g>
<path fill-rule="evenodd" clip-rule="evenodd" fill="#989898" d="M107.03,29.546h-2.49v-2.32h2.49V29.546z M107.03,33.386h-2.49
	v-2.32h2.49V33.386z M107.03,37.226h-2.49v-2.32h2.49V37.226z M107.03,41.066h-2.49v-2.32h2.49V41.066z M102.98,33.516H91.04v-7.76
	h11.95v7.76H102.98z M102.98,42.536H91.04v-7.75h11.95v7.75H102.98z M89.49,29.546h-2.5v-2.32h2.5V29.546z M89.49,33.386h-2.5v-2.32
	h2.5V33.386z M89.49,37.226h-2.5v-2.32h2.5V37.226z M89.49,41.066h-2.5v-2.32h2.5V41.066z M108.69,24.496h-1.66v1.22h-2.49v-1.22
	H89.49v1.22h-2.5v-1.22h-1.65v19.3h1.65v-1.21h2.5v1.21h15.05v-1.21h2.49v1.21h1.66V24.496z"/>
</svg>
