<?xml version="1.0" encoding="utf-8"?>
<!-- Generator: Adobe Illustrator 17.0.2, SVG Export Plug-In . SVG Version: 6.00 Build 0)  -->
<!DOCTYPE svg PUBLIC "-//W3C//DTD SVG 1.1//EN" "http://www.w3.org/Graphics/SVG/1.1/DTD/svg11.dtd">
<svg version="1.1" id="Layer_1" xmlns="http://www.w3.org/2000/svg" xmlns:xlink="http://www.w3.org/1999/xlink" x="0px" y="0px"
	 width="120px" height="70px" viewBox="0 0 120 70" enable-background="new 0 0 120 70" xml:space="preserve">
<rect x="0.014" y="-0.03" fill-rule="evenodd" clip-rule="evenodd" fill="none" width="120" height="70"/>
<g>
	<path fill-rule="evenodd" clip-rule="evenodd" fill="#9A9A9A" d="M52.924,22.85c-3.79,0-6.34,2.54-6.34,6.31
		c0,2.93,0.56,4.05,1.15,5.23c0.57,1.14,1.17,2.32,1.17,4.73c0,2.42-2.53,3.49-4.97,4.52c-2.98,1.27-4.93,2.24-4.93,4.23v7.6
		c0,1.54,2.36,1.66,3.08,1.66h21.69c0.72,0,3.08-0.12,3.08-1.66v-7.6c0-1.99-1.95-2.96-4.93-4.23c-2.44-1.03-4.97-2.1-4.97-4.52
		c0-2.41,0.59-3.59,1.17-4.73c0.59-1.18,1.14-2.3,1.14-5.23C59.264,25.39,56.714,22.85,52.924,22.85z M63.774,59.58h-21.69
		c-3.37,0-5.55-1.61-5.55-4.11v-7.6c0-3.75,3.56-5.26,6.43-6.48c1.62-0.68,3.46-1.46,3.46-2.27c0-1.83-0.4-2.63-0.91-3.65
		c-0.66-1.31-1.4-2.8-1.4-6.31c0-5.16,3.62-8.76,8.81-8.76s8.82,3.6,8.82,8.76c0,3.51-0.75,5-1.41,6.31c-0.5,1.02-0.9,1.81-0.9,3.65
		c0,0.81,1.84,1.59,3.46,2.27c2.87,1.22,6.43,2.73,6.43,6.48v7.6C69.324,57.97,67.144,59.58,63.774,59.58z"/>
	<path fill-rule="evenodd" clip-rule="evenodd" fill="#9A9A9A" d="M79.164,45.04c-0.95-0.39-2.53-1.05-2.53-1.48
		c0-1.35,0.28-1.91,0.68-2.68c0.5-0.99,1.13-2.21,1.13-4.98c0-4.14-2.95-7.03-7.16-7.03c-4.22,0-7.16,2.89-7.16,7.03l0.1,0.88
		c0.52,0.21,1.37,0.49,2.49,0.6c-0.01-0.22-0.12-1.23-0.12-1.48c0-2.74,1.89-4.58,4.69-4.58s4.68,1.84,4.68,4.58
		c0,2.18-0.42,3.01-0.86,3.88c-0.44,0.87-0.94,1.85-0.94,3.78c0,2.05,2.14,2.95,4.04,3.74c2.22,0.93,3.68,1.64,3.68,2.99v5.51
		c0,1.3-0.7,1.33-2.13,1.33h-6.72c-0.68,0-0.69,0.55-0.69,1.22c0,0.68,0.01,1.23,0.69,1.23h6.72c2.8,0,4.61-1.35,4.61-3.45v-5.84
		C84.364,47.21,81.354,45.96,79.164,45.04z"/>
</g>
</svg>
