<?xml version="1.0" encoding="utf-8"?>
<!-- Generator: Adobe Illustrator 17.0.2, SVG Export Plug-In . SVG Version: 6.00 Build 0)  -->
<!DOCTYPE svg PUBLIC "-//W3C//DTD SVG 1.1//EN" "http://www.w3.org/Graphics/SVG/1.1/DTD/svg11.dtd">
<svg version="1.1" id="Layer_1" xmlns="http://www.w3.org/2000/svg" xmlns:xlink="http://www.w3.org/1999/xlink" x="0px" y="0px"
	 width="120px" height="70px" viewBox="0 0 120 70" enable-background="new 0 0 120 70" xml:space="preserve">
<rect x="0.183" y="-0.047" fill-rule="evenodd" clip-rule="evenodd" fill="none" width="120" height="70"/>
<g>
	
		<path fill-rule="evenodd" clip-rule="evenodd" fill="#9A9A9A" stroke="#9A9A9A" stroke-linecap="round" stroke-linejoin="round" stroke-miterlimit="10" d="
		M89.034,31.753c-0.47-0.76-0.99-1.47-1.56-2.14c-0.56-0.68-1.22-1.34-1.97-1.99l1.33-1.05c0.4,0.41,0.76,0.77,1.08,1.11
		c0.31,0.33,0.6,0.65,0.88,0.97c0.28,0.31,0.55,0.63,0.81,0.94c0.26,0.32,0.53,0.66,0.81,1.03L89.034,31.753z M88.854,45.423
		c0.5-0.52,0.97-1.04,1.39-1.55c0.43-0.5,0.93-1.14,1.5-1.91c0.16,0.29,0.32,0.53,0.47,0.7c0.16,0.18,0.33,0.35,0.5,0.5l-3.26,3.76
		c-0.39,0.44-0.7,0.81-0.96,1.13c-0.25,0.31-0.52,0.67-0.82,1.07c-0.19-0.29-0.4-0.54-0.61-0.75c-0.22-0.2-0.46-0.37-0.72-0.51
		c0.33-0.31,0.56-0.7,0.69-1.17c0.13-0.46,0.2-1.02,0.2-1.69v-9.61c-0.89,0-1.59,0.03-2.11,0.07c-0.51,0.04-1.03,0.13-1.55,0.25
		v-1.71c0.17,0.04,0.34,0.06,0.48,0.07l0.54,0.04c0.21,0.02,0.45,0.02,0.73,0.02h1.07c0.59,0,1.14-0.01,1.63-0.03
		c0.5-0.03,0.92-0.06,1.27-0.1c-0.14,0.3-0.25,0.75-0.33,1.35c-0.08,0.61-0.11,1.21-0.11,1.8V45.423z M98.404,29.203
		c-1.42,0.21-3.11,0.42-5.06,0.63c-0.04-0.26-0.1-0.5-0.19-0.72c-0.08-0.22-0.25-0.52-0.49-0.91c0.97,0.07,2.02,0.07,3.13-0.01
		c1.12-0.08,2.45-0.25,4-0.51c1.2-0.21,2.22-0.42,3.07-0.63c0.84-0.21,1.45-0.42,1.84-0.63c0.14,0.28,0.28,0.54,0.44,0.78
		c0.16,0.25,0.38,0.51,0.65,0.79c0.2,0.19,0.25,0.37,0.16,0.51c-0.09,0.15-0.23,0.17-0.42,0.07c-0.08-0.05-0.23-0.09-0.43-0.12
		c-0.2-0.02-0.42-0.04-0.66-0.05c-0.25-0.01-0.5-0.01-0.76,0.01c-0.26,0.02-0.51,0.05-0.73,0.08c-0.35,0.07-0.77,0.15-1.26,0.22
		c-0.48,0.08-1.03,0.17-1.64,0.25v4.86l1.97-0.01c0.69-0.01,1.35-0.03,1.99-0.04c0.63-0.02,1.21-0.04,1.74-0.07
		c0.54-0.02,0.96-0.06,1.27-0.09v1.65c-0.31-0.03-0.73-0.07-1.27-0.1c-0.53-0.04-1.11-0.06-1.74-0.08l-1.99-0.04l-1.97-0.01v4.38
		c0.73,0,1.35,0,1.85-0.01c0.51-0.01,0.95-0.02,1.33-0.04c0.39-0.02,0.73-0.05,1.02-0.08l0.89-0.11c-0.07,0.37-0.12,0.73-0.14,1.08
		c-0.03,0.35-0.04,0.78-0.04,1.29v4.41c0,0.59,0.01,1.13,0.04,1.6c0.02,0.47,0.07,1.01,0.14,1.63h-1.75v-1.63h-8.09v1.81h-1.75
		c0.08-0.63,0.14-1.2,0.17-1.69c0.02-0.5,0.03-1.01,0.03-1.54v-4.59c0-0.97-0.05-1.75-0.15-2.37l0.86,0.11
		c0.3,0.03,0.63,0.06,1.01,0.08c0.37,0.02,0.79,0.03,1.26,0.04c0.47,0.01,1.03,0.01,1.67,0.01v-4.38l-2.02,0.01
		c-0.71,0.01-1.38,0.03-2.04,0.05l-1.79,0.08l-1.28,0.07v-1.63c0.32,0.03,0.74,0.07,1.28,0.09c0.54,0.03,1.14,0.05,1.79,0.07
		c0.66,0.01,1.33,0.03,2.04,0.04l2.02,0.01V29.203z M103.394,46.293v-5.62h-8.09v5.62H103.394z M68.244,28.623h-3.55h-2.5
		c-0.67,0-1.24,0.01-1.71,0.03l-1.22,0.05c-0.35,0.02-0.71,0.04-1.07,0.08v-1.55l1.03,0.09c0.32,0.03,0.71,0.05,1.17,0.07
		c0.46,0.02,1.04,0.03,1.74,0.04c0.7,0.01,1.59,0.01,2.69,0.01c1.04,0,1.92,0,2.62-0.01c0.71-0.01,1.31-0.02,1.79-0.04
		c0.49-0.02,0.9-0.04,1.24-0.07l1.03-0.09v1.47c-0.22,0.04-0.46,0.08-0.7,0.15c-0.24,0.06-0.55,0.19-0.93,0.4
		c-0.37,0.21-0.84,0.51-1.39,0.91c-0.56,0.39-1.27,0.93-2.12,1.61l0.43,0.26l0.43,0.27l-0.47,0.57c0.85,0,1.58,0,2.18-0.02
		l1.54-0.05c0.43-0.02,0.79-0.04,1.07-0.07c0.29-0.03,0.54-0.06,0.75-0.09c-0.09,0.37-0.15,0.78-0.17,1.24
		c-0.03,0.47-0.04,1.06-0.04,1.78v8.24c0,0.31-0.04,0.59-0.11,0.83c-0.06,0.23-0.23,0.44-0.48,0.61c-0.25,0.18-0.62,0.34-1.1,0.48
		c-0.47,0.14-1.13,0.27-1.97,0.39c-0.03-0.26-0.12-0.55-0.26-0.85c-0.14-0.31-0.35-0.63-0.65-0.96c0.68,0.05,1.22,0.07,1.62,0.06
		c0.4-0.01,0.7-0.05,0.91-0.14c0.21-0.09,0.35-0.22,0.41-0.39c0.06-0.18,0.09-0.4,0.09-0.66v-1.79h-4.7c0,0.83,0.01,1.57,0.04,2.24
		c0.02,0.66,0.06,1.19,0.11,1.6h-1.77c0.05-0.41,0.09-0.94,0.12-1.62c0.02-0.67,0.04-1.41,0.04-2.22h-4.42v4.23h-1.67
		c0.07-0.51,0.12-0.99,0.16-1.44c0.03-0.46,0.05-0.95,0.05-1.47v-7.14c0-0.44-0.01-0.81-0.01-1.11l-0.03-0.76
		c-0.01-0.21-0.03-0.4-0.05-0.57l-0.09-0.58l1.37,0.13c0.39,0.03,0.82,0.06,1.28,0.06l1.66,0.03c0.64,0.01,1.48,0.01,2.53,0.01
		c-0.59-0.4-1.22-0.77-1.89-1.1c-0.67-0.33-1.43-0.68-2.26-1.05l0.88-1.07l1.64,0.69c0.51,0.22,1,0.45,1.47,0.7L68.244,28.623z
		 M55.374,31.563c-0.46-0.61-1.04-1.26-1.77-1.95c-0.72-0.7-1.51-1.31-2.36-1.85l1.04-1.11c0.89,0.62,1.68,1.24,2.38,1.88
		c0.7,0.64,1.35,1.29,1.96,1.96L55.374,31.563z M65.844,37.863v2.5h4.7v-2.5H65.844z M70.544,36.733v-2.67h-4.7v2.67H70.544z
		 M64.384,36.733v-2.67h-4.42v2.67H64.384z M59.964,37.863v2.5h4.42v-2.5H59.964z M54.094,35.503c-0.96,0-1.72,0.01-2.28,0.03
		c-0.55,0.01-1,0.04-1.33,0.07v-1.54c0.35,0.05,0.76,0.09,1.23,0.13c0.47,0.03,0.96,0.05,1.46,0.05c0.47,0,0.95-0.02,1.44-0.05
		c0.49-0.04,0.9-0.08,1.25-0.13c-0.09,0.35-0.14,0.78-0.17,1.29c-0.02,0.52-0.04,1.13-0.04,1.83v8.24c0.39,0.07,0.76,0.16,1.13,0.26
		c0.36,0.11,0.64,0.21,0.83,0.32c0.89,0.47,1.84,0.84,2.85,1.12c1.01,0.27,2.18,0.44,3.51,0.51s2.88,0.05,4.64-0.07
		c1.75-0.11,3.83-0.31,6.21-0.59c-0.29,0.3-0.49,0.6-0.57,0.92c-0.09,0.31-0.13,0.7-0.11,1.16c-1.77,0.06-3.33,0.12-4.67,0.15
		c-1.34,0.04-2.53,0.05-3.55,0.04c-1.03-0.01-1.95-0.05-2.75-0.13c-0.8-0.08-1.54-0.2-2.22-0.37c-0.67-0.16-1.34-0.37-1.98-0.61
		c-0.64-0.25-1.33-0.56-2.06-0.92c-0.51-0.25-0.94-0.42-1.31-0.52c-0.37-0.09-0.73-0.07-1.08,0.06c-0.36,0.13-0.73,0.38-1.11,0.75
		c-0.39,0.36-0.85,0.88-1.39,1.55c-0.26-0.36-0.48-0.63-0.68-0.83c-0.19-0.2-0.38-0.38-0.57-0.54c0.45-0.42,0.85-0.77,1.19-1.05
		s0.64-0.51,0.9-0.7c0.26-0.18,0.49-0.32,0.69-0.43c0.2-0.1,0.38-0.17,0.54-0.21V35.503z M24.054,44.193v2.6h11.55v-2.6H24.054z
		 M35.604,42.983v-2.49h-11.55v2.49H35.604z M24.054,48.023v1.79h-1.75c0.07-0.51,0.12-0.96,0.15-1.36
		c0.02-0.39,0.04-0.81,0.04-1.27v-6.12c0-0.4-0.02-0.75-0.04-1.05c-0.03-0.29-0.09-0.62-0.17-0.97c0.31,0.04,0.69,0.07,1.12,0.09
		l1.57,0.08c0.61,0.03,1.32,0.05,2.13,0.06c0.81,0.01,1.74,0.01,2.8,0.01c2.01,0,3.58-0.02,4.73-0.05c1.15-0.04,2.05-0.1,2.69-0.19
		l-0.09,0.46c-0.03,0.13-0.04,0.27-0.05,0.42l-0.02,0.49v0.65v6.15c0,0.4,0.02,0.78,0.04,1.13c0.03,0.34,0.08,0.77,0.15,1.26h-1.75
		v-1.58H24.054z M38.504,31.563c0.2,0.09,0.33,0.19,0.36,0.29c0.04,0.11-0.1,0.2-0.39,0.29c-0.09,0.03-0.18,0.08-0.28,0.14
		c-0.09,0.07-0.24,0.21-0.45,0.44c-0.21,0.22-0.5,0.56-0.86,0.99l-1.49,1.79c-0.14-0.18-0.3-0.32-0.47-0.42
		c-0.18-0.11-0.4-0.23-0.68-0.37c0.36-0.33,0.68-0.65,0.95-0.96c0.27-0.3,0.52-0.61,0.73-0.93c0.22-0.31,0.42-0.65,0.62-1
		c0.19-0.35,0.38-0.73,0.57-1.15c0.3,0.26,0.54,0.45,0.75,0.58C38.064,31.373,38.274,31.473,38.504,31.563z M24.344,35.323
		c-0.4-0.6-0.84-1.17-1.32-1.71c-0.48-0.54-1.03-1.07-1.66-1.58l1.07-0.94c0.56,0.51,1.07,1.01,1.54,1.52
		c0.48,0.51,0.99,1.1,1.55,1.76L24.344,35.323z M33.384,35.893l2.48-0.01c0.82-0.01,1.59-0.02,2.31-0.04s1.37-0.04,1.94-0.08
		c0.58-0.03,1.04-0.07,1.39-0.1v1.68c-0.79-0.09-2.14-0.15-4.06-0.19c-1.93-0.03-4.42-0.05-7.48-0.05c-2.16,0-3.9,0-5.21,0.01
		c-1.32,0.01-2.38,0.03-3.18,0.04c-0.8,0.02-1.42,0.05-1.85,0.08l-1.23,0.11v-1.68c0.33,0.03,0.78,0.07,1.35,0.1
		c0.56,0.04,1.2,0.06,1.9,0.08c0.71,0.02,1.46,0.03,2.26,0.04l2.43,0.01v-5.77c-1.38,0-2.6,0.02-3.68,0.05
		c-1.08,0.04-2.07,0.1-2.95,0.18v-1.78c0.83,0.07,1.75,0.12,2.76,0.16c1.01,0.03,2.16,0.06,3.45,0.08
		c-0.12-0.21-0.24-0.41-0.36-0.58c-0.13-0.18-0.26-0.35-0.41-0.53l-0.49-0.56c-0.19-0.2-0.4-0.43-0.64-0.67l1.38-0.84
		c0.5,0.65,0.91,1.2,1.21,1.67c0.31,0.46,0.62,0.97,0.93,1.53h4.81c0.22-0.33,0.41-0.62,0.56-0.88c0.15-0.25,0.27-0.5,0.38-0.73
		c0.1-0.24,0.2-0.49,0.28-0.75l0.29-0.92c0.3,0.21,0.58,0.38,0.84,0.51c0.26,0.13,0.49,0.24,0.7,0.33c0.35,0.12,0.52,0.26,0.5,0.41
		s-0.19,0.27-0.52,0.38c-0.13,0.03-0.3,0.16-0.51,0.38c-0.22,0.22-0.56,0.63-1.01,1.25c1.27,0,2.4-0.02,3.4-0.06
		c0.99-0.03,1.9-0.09,2.74-0.18v1.78c-0.89-0.08-1.88-0.14-2.97-0.18c-1.08-0.03-2.33-0.05-3.74-0.05V35.893z M31.784,35.893v-5.8
		h-3.84v5.8H31.784z"/>
</g>
</svg>
