<?xml version="1.0" encoding="utf-8"?>
<!-- Generator: Adobe Illustrator 17.0.2, SVG Export Plug-In . SVG Version: 6.00 Build 0)  -->
<!DOCTYPE svg PUBLIC "-//W3C//DTD SVG 1.1//EN" "http://www.w3.org/Graphics/SVG/1.1/DTD/svg11.dtd">
<svg version="1.1" id="Layer_1" xmlns="http://www.w3.org/2000/svg" xmlns:xlink="http://www.w3.org/1999/xlink" x="0px" y="0px"
	 width="120px" height="70px" viewBox="0 0 120 70" enable-background="new 0 0 120 70" xml:space="preserve">
<rect x="-0.005" y="0.003" fill-rule="evenodd" clip-rule="evenodd" fill="none" width="120" height="70"/>
<path fill-rule="evenodd" clip-rule="evenodd" fill="#9A9A9A" d="M77.475,36.923c-1.38,0-2.51-1.11-2.51-2.48
	c0-1.36,1.13-2.47,2.51-2.47c1.39,0,2.52,1.11,2.52,2.47C79.995,35.813,78.865,36.923,77.475,36.923z M67.055,52.203
	c-1.38,0-2.51-1.11-2.51-2.47s1.13-2.47,2.51-2.47c1.39,0,2.52,1.11,2.52,2.47S68.445,52.203,67.055,52.203z M53.615,42.943
	c-1.38,0-2.51-1.11-2.51-2.47c0-1.36,1.13-2.47,2.51-2.47c1.39,0,2.52,1.11,2.52,2.47C56.135,41.833,55.005,42.943,53.615,42.943z
	 M43.195,57.773c-1.38,0-2.51-1.11-2.51-2.47c0-1.37,1.13-2.48,2.51-2.48c1.39,0,2.52,1.11,2.52,2.48
	C45.715,56.663,44.585,57.773,43.195,57.773z M77.475,29.013c-3.04,0-5.52,2.44-5.52,5.43c0,1.36,0.52,2.59,1.37,3.55l-4.55,6.6
	c-0.55-0.18-1.12-0.3-1.72-0.3c-1.38,0-2.63,0.52-3.6,1.35l-4.66-3.33c0.22-0.58,0.35-1.19,0.35-1.84c0-3-2.48-5.43-5.53-5.43
	s-5.53,2.43-5.53,5.43c0,1.24,0.44,2.36,1.15,3.28l-3.76,6.6c-0.7-0.31-1.47-0.49-2.28-0.49c-3.05,0-5.53,2.44-5.53,5.44
	c0,2.99,2.48,5.43,5.53,5.43c3.05,0,5.53-2.44,5.53-5.43c0-1.11-0.34-2.13-0.91-2.99l3.85-6.77c0.61,0.23,1.26,0.37,1.95,0.37
	c1.3,0,2.47-0.46,3.42-1.2l4.77,3.41c-0.17,0.51-0.28,1.05-0.28,1.61c0,3,2.48,5.43,5.53,5.43c3.05,0,5.53-2.43,5.53-5.43
	c0-1.33-0.51-2.53-1.31-3.48l4.57-6.64c0.52,0.16,1.06,0.27,1.63,0.27c3.05,0,5.53-2.44,5.53-5.44
	C83.005,31.453,80.525,29.013,77.475,29.013z"/>
</svg>
