<svg width="27" height="31" viewBox="0 0 27 31" xmlns="http://www.w3.org/2000/svg"><title>logo-platform-android-white</title><desc>Created with Sketch.</desc><path d="M1.913 10.022C.856 10.022 0 10.88 0 11.932v8.01C0 21 .86 21.856 1.915 21.856c1.057 0 1.912-.854 1.91-1.91V11.93c0-1.055-.856-1.91-1.912-1.91zm15.42-7.19L18.668.39c.07-.127.025-.29-.104-.36-.132-.07-.29-.022-.36.105L16.856 2.6c-1.135-.505-2.404-.788-3.748-.786-1.34 0-2.608.28-3.738.783L8.02.14c-.07-.13-.232-.176-.36-.105-.13.07-.177.23-.104.36L8.89 2.83C6.268 4.183 4.496 6.76 4.497 9.718l17.225-.002c.003-2.957-1.767-5.53-4.387-6.885zM9.19 6.596c-.396 0-.72-.323-.72-.722 0-.397.324-.723.72-.723.4 0 .724.326.724.723 0 .397-.323.722-.723.722zm7.844-.002c-.398 0-.722-.323-.722-.722 0-.395.324-.722.722-.724.397 0 .722.326.722.723 0 .4-.324.722-.722.722zM4.566 10.382l.003 12.41c0 1.13.91 2.04 2.04 2.04H8v4.24c0 1.053.858 1.91 1.913 1.91 1.056 0 1.91-.857 1.91-1.912v-4.236h2.583v4.236c0 1.054.86 1.913 1.912 1.912 1.057 0 1.913-.858 1.913-1.913V24.83h1.394c1.125 0 2.04-.913 2.042-2.04l-.002-12.412-17.097.003zm21.66 1.55c0-1.057-.856-1.912-1.912-1.912-1.055-.002-1.91.857-1.91 1.912v8.008c0 1.056.856 1.912 1.912 1.912 1.057 0 1.912-.856 1.912-1.912v-8.01z" fill="#fff"/></svg>