<svg xmlns="http://www.w3.org/2000/svg" viewBox="0 0 61.7 61.7" enable-background="new 0 0 61.7 61.7"><path fill="#ccc" enable-background="new" d="M52.5 41.8c-1.2 2.6-1.7 3.8-3.3 6.1-2.1 3.2-5.1 7.2-8.8 7.3-3.3 0-4.1-2.1-8.6-2.1s-5.4 2.2-8.7 2.1c-3.7 0-6.5-3.7-8.7-6.9-5.9-9-6.6-19.6-2.9-25.3 2.6-4 6.7-6.3 10.6-6.3 3.9 0 6.4 2.2 9.6 2.2 3.1 0 5.1-2.2 9.6-2.2 3.4 0 7.1 1.9 9.7 5.1-8.5 4.6-7.1 16.7 1.5 20zM37.9 13c1.6-2.1 2.9-5.1 2.4-8.2-2.7.2-5.8 1.9-7.7 4.1-1.7 2-3 5-2.5 8 3 .2 6-1.6 7.8-3.9z"/></svg>