<svg width="26" height="31" viewBox="0 0 26 31" xmlns="http://www.w3.org/2000/svg"><title>logo-platform-apple-white</title><desc>Created with Sketch.</desc><path d="M25.937 22.705c-.72 1.596-1.02 2.332-1.978 3.744-1.26 1.962-3.058 4.417-5.275 4.478-1.978 0-2.457-1.288-5.154-1.288-2.696 0-3.235 1.35-5.213 1.288-2.218 0-3.896-2.27-5.214-4.234C-.433 21.17-.853 14.666 1.365 11.17 2.923 8.713 5.38 7.302 7.717 7.302c2.338 0 3.836 1.35 5.754 1.35 1.86 0 3.057-1.35 5.754-1.35 2.038 0 4.256 1.166 5.814 3.13-5.094 2.822-4.255 10.247.9 12.272zm-8.75-17.673c.96-1.29 1.738-3.13 1.438-5.032-1.618.123-3.476 1.166-4.615 2.516-1.018 1.227-1.798 3.068-1.498 4.91 1.798.122 3.596-.983 4.675-2.394z" fill="#fff"/></svg>