<svg xmlns="http://www.w3.org/2000/svg" width="61.727" height="61.727" viewBox="0 0 61.727 61.727"><path d="M11.683 42.973c-2.483.002-4.5-2.018-4.502-4.502V24.687c0-2.48 2.016-4.502 4.497-4.502 1.207 0 2.335.467 3.188 1.318.85.85 1.32 1.98 1.32 3.183v13.787c.002 1.2-.465 2.33-1.316 3.18-.85.852-1.984 1.32-3.187 1.32" fill="none"/><path fill="#fff" d="M11.68 21.395c-1.818 0-3.292 1.475-3.292 3.29l.002 13.786c0 1.82 1.477 3.292 3.292 3.294 1.82-.002 3.293-1.473 3.292-3.293V24.685c0-1.816-1.477-3.29-3.295-3.29"/><path d="M46.99 22.076h-1.21l-29.652.004h-1.21v-1.21c-.003-4.97 2.704-9.59 7.137-12.32l-1.723-3.147c-.212-.368-.264-.835-.142-1.263.125-.427.42-.793.814-1.003.228-.13.506-.202.788-.202.61 0 1.17.332 1.465.868L25.06 7.09c1.868-.686 3.84-1.035 5.876-1.034 2.065 0 4.046.35 5.922 1.037l1.8-3.292c.29-.533.855-.866 1.462-.866.275 0 .55.066.79.197.406.223.69.578.813 1.007.124.428.073.878-.144 1.27l-1.722 3.145c4.425 2.736 7.13 7.354 7.13 12.314l.002 1.21z" fill="none"/><path fill="#fff" d="M38.224 9.016l2.298-4.196c.12-.22.042-.5-.18-.622-.225-.12-.5-.04-.62.182l-2.32 4.238c-1.953-.867-4.14-1.355-6.45-1.353-2.307-.002-4.488.484-6.435 1.348l-2.323-4.23c-.12-.222-.4-.303-.62-.18-.22.12-.303.4-.18.618l2.3 4.193c-4.517 2.33-7.568 6.764-7.566 11.857l29.65-.003c.002-5.09-3.045-9.516-7.554-11.85M24.208 15.5c-.683-.002-1.24-.557-1.24-1.243 0-.683.557-1.244 1.24-1.244.688 0 1.244.56 1.245 1.244 0 .684-.557 1.242-1.245 1.243m13.5-.003c-.685 0-1.244-.554-1.243-1.243 0-.682.558-1.243 1.243-1.246.683.002 1.242.563 1.242 1.246 0 .686-.557 1.243-1.242 1.243"/><path d="M25.45 58.686c-2.482 0-4.5-2.02-4.502-4.504V48.1h-1.183c-1.264.002-2.45-.49-3.34-1.383-.892-.89-1.385-2.076-1.382-3.34l-.004-21.36v-1.21h1.21l29.428-.004h1.21v1.21l.002 21.36c0 2.605-2.118 4.724-4.722 4.724l-1.19.002v6.08c0 2.48-2.018 4.503-4.498 4.503-1.202.004-2.33-.465-3.184-1.316-.854-.852-1.322-1.982-1.32-3.184V48.1H29.95v6.083c0 2.48-2.02 4.503-4.503 4.503" fill="none"/><path fill="#fff" d="M16.254 43.375c0 1.945 1.568 3.516 3.512 3.516h2.392l.003 7.294c0 1.814 1.476 3.29 3.29 3.29 1.82 0 3.292-1.476 3.29-3.292l.002-7.293h4.445l-.002 7.292c.002 1.814 1.48 3.293 3.292 3.29 1.82 0 3.294-1.476 3.294-3.292v-7.293h2.4c1.935 0 3.512-1.574 3.512-3.514l-.006-21.363-29.427.005.004 21.36z"/><path d="M50.242 42.967c-2.483 0-4.502-2.018-4.502-4.5l-.004-13.784c0-2.483 2.017-4.503 4.498-4.503 2.484 0 4.506 2.018 4.505 4.5v13.785c.003 2.48-2.016 4.502-4.498 4.502" fill="none"/><path fill="#fff" d="M50.238 21.39c-1.817-.002-3.29 1.475-3.29 3.292l.002 13.784c0 1.818 1.473 3.29 3.292 3.29 1.817 0 3.29-1.472 3.29-3.29L53.53 24.68c0-1.817-1.474-3.29-3.292-3.29"/><path opacity=".5" fill="#999" d="M11.68 21.395c-1.818 0-3.292 1.475-3.292 3.29l.002 13.786c0 1.82 1.475 3.292 3.292 3.292 1.82 0 3.292-1.47 3.29-3.29V24.683c0-1.816-1.475-3.29-3.293-3.29M38.223 9.017l2.298-4.196c.12-.22.042-.5-.18-.622-.226-.118-.5-.038-.62.182l-2.32 4.24c-1.953-.87-4.138-1.357-6.45-1.354-2.307-.002-4.49.484-6.435 1.348l-2.323-4.23c-.12-.222-.4-.303-.62-.18-.222.12-.304.398-.18.618l2.298 4.192c-4.516 2.33-7.566 6.764-7.565 11.856l29.65-.003c.003-5.09-3.044-9.516-7.553-11.85M24.208 15.5c-.683-.002-1.24-.557-1.24-1.243 0-.683.556-1.245 1.24-1.244.688 0 1.244.56 1.245 1.244 0 .684-.557 1.242-1.245 1.243m13.5-.003c-.685 0-1.243-.556-1.243-1.243.002-.68.558-1.243 1.243-1.246.683.002 1.242.563 1.242 1.246 0 .687-.557 1.243-1.242 1.243m-21.46 6.518l.005 21.362c0 1.943 1.57 3.512 3.512 3.512h2.392l.003 7.296c0 1.812 1.475 3.29 3.29 3.29 1.818 0 3.29-1.478 3.29-3.294V46.89h4.445v7.292c0 1.814 1.478 3.293 3.29 3.29 1.82 0 3.294-1.476 3.294-3.292l-.003-7.293h2.4c1.936 0 3.513-1.572 3.514-3.514l-.003-21.362-29.428.005zm37.283 2.666c0-1.817-1.474-3.29-3.292-3.29-1.817-.002-3.29 1.475-3.29 3.292l.002 13.784c0 1.818 1.473 3.29 3.292 3.29 1.818 0 3.29-1.472 3.29-3.29V24.68z"/></svg>