<svg xmlns="http://www.w3.org/2000/svg" width="230.999" height="49.792" viewBox="0 0 230.999 49.792"><g fill="#06BFD1"><path fill-rule="evenodd" clip-rule="evenodd" d="M28.27 8.804c-8.93 0-16.19 7.28-16.19 16.24s7.26 16.24 16.19 16.24 16.19-7.28 16.19-16.24-7.258-16.24-16.19-16.24zm0 34.69c-10.14 0-18.39-8.28-18.39-18.45s8.25-18.45 18.39-18.45 18.39 8.28 18.39 18.45-8.248 18.45-18.39 18.45zM72.242 8.804c-8.93 0-16.19 7.28-16.19 16.24s7.26 16.24 16.19 16.24c8.93 0 16.19-7.28 16.19-16.24s-7.26-16.24-16.19-16.24zm0 34.69c-10.14 0-18.39-8.28-18.39-18.45s8.25-18.45 18.39-18.45 18.39 8.28 18.39 18.45-8.25 18.45-18.39 18.45z"/><path d="M54.327 21.415c-.53-.28-2.2-1-3.56-1-2.51 0-4.53.91-4.55.92l-2.08-4.47c.3-.14 3.05-1.38 6.63-1.38 2.83 0 5.56 1.42 5.87 1.58l-2.31 4.35zM93.302 27.495h-3.36c-1.21 0-.6-1.52-.6-3.39 0-1.88-1.45-3.39-.24-3.39h4.2c1.21 0 1.24 1.51 1.24 3.39 0 1.87-.03 3.39-1.24 3.39zM7.27 27.495h3.37c1.2 0 .59-1.52.59-3.39s1.45-3.39.24-3.39h-4.2c-1.2 0-1.15 1.52-1.15 3.39s-.048 3.39 1.15 3.39z"/></g><g fill="#06BFD1"><path d="M128.51 29.335c0 .645-.17 1.087-.51 1.33-.34.24-.67.362-.993.362h-16.57c0 1.504.148 2.865.443 4.082.295 1.217.783 2.26 1.464 3.128.68.868 1.566 1.535 2.658 2 1.092.466 2.435.698 4.028.698 1.128 0 2.14-.098 3.035-.295.895-.196 1.67-.415 2.323-.657.653-.24 1.19-.46 1.61-.658.42-.197.722-.295.9-.295.108 0 .207.027.296.08.09.055.16.14.215.256.053.116.093.264.12.443.027.178.04.402.04.67 0 .125-.01.246-.026.362-.018.117-.04.224-.067.322-.027.1-.067.193-.12.282-.055.09-.126.18-.216.27-.088.09-.366.245-.83.47-.467.223-1.075.447-1.827.67-.752.225-1.625.426-2.62.605-.993.18-2.062.27-3.208.27-1.88 0-3.545-.282-4.995-.846-1.45-.563-2.667-1.396-3.652-2.497-.984-1.102-1.732-2.466-2.242-4.096-.51-1.628-.766-3.517-.766-5.666 0-2.06.264-3.903.792-5.532.528-1.63 1.285-3.012 2.27-4.15.984-1.136 2.17-2.004 3.558-2.604 1.387-.6 2.932-.9 4.633-.9 1.826 0 3.384.306 4.673.914 1.29.61 2.35 1.428 3.182 2.457.833 1.03 1.44 2.224 1.826 3.584.385 1.36.578 2.793.578 4.297v.645zm-3.302-.94c.054-2.578-.537-4.592-1.772-6.042s-3.034-2.175-5.397-2.175c-1.22 0-2.29.23-3.21.685-.922.457-1.7 1.06-2.336 1.813-.636.752-1.124 1.625-1.464 2.62-.34.992-.537 2.026-.59 3.1h14.768zM139.065 42.736c0 .107-.026.206-.08.295-.054.09-.14.162-.255.216-.117.054-.278.098-.483.134-.206.036-.47.054-.792.054-.304 0-.56-.018-.765-.054-.206-.036-.372-.08-.497-.134-.125-.054-.21-.125-.255-.215-.045-.088-.067-.187-.067-.294v-36.2c0-.108.023-.207.068-.296.044-.09.13-.166.255-.228.125-.063.29-.107.497-.135.206-.026.46-.04.765-.04.322 0 .586.014.792.04.206.027.367.072.483.135.116.062.202.14.255.228.054.09.08.188.08.295v36.2zM167.828 29.335c0 .645-.17 1.087-.51 1.33-.34.24-.672.362-.994.362h-16.57c0 1.504.148 2.865.443 4.082.295 1.217.783 2.26 1.464 3.128.68.868 1.567 1.535 2.66 2 1.09.466 2.434.698 4.027.698 1.128 0 2.14-.098 3.035-.295.895-.196 1.67-.415 2.323-.657.653-.24 1.19-.46 1.61-.658.42-.197.722-.295.9-.295.108 0 .207.027.296.08.09.055.162.14.216.256.054.116.094.264.12.443.028.178.04.402.04.67 0 .125-.008.246-.025.362-.017.117-.04.224-.066.322-.027.1-.067.193-.12.282-.055.09-.126.18-.216.27-.09.09-.367.245-.832.47-.466.223-1.074.447-1.826.67-.752.225-1.625.426-2.62.605-.993.18-2.062.27-3.208.27-1.88 0-3.545-.282-4.995-.846-1.45-.563-2.667-1.396-3.652-2.497-.984-1.102-1.732-2.466-2.242-4.096-.51-1.628-.766-3.517-.766-5.666 0-2.06.264-3.903.792-5.532.527-1.63 1.284-3.012 2.268-4.15.985-1.136 2.17-2.004 3.56-2.604 1.386-.6 2.93-.9 4.632-.9 1.826 0 3.384.306 4.673.914 1.29.61 2.35 1.428 3.182 2.457.833 1.03 1.44 2.224 1.826 3.584.386 1.36.58 2.793.58 4.297v.645zm-3.304-.94c.054-2.578-.537-4.592-1.772-6.042s-3.034-2.175-5.397-2.175c-1.218 0-2.288.23-3.21.685-.92.457-1.7 1.06-2.335 1.813-.636.752-1.124 1.625-1.464 2.62-.34.992-.537 2.026-.59 3.1h14.768zM196.697 30.33c0 1.933-.25 3.714-.752 5.343-.5 1.63-1.25 3.044-2.242 4.243-.994 1.2-2.233 2.135-3.72 2.806-1.486.672-3.213 1.007-5.183 1.007-1.898 0-3.56-.3-4.982-.9-1.423-.6-2.614-1.46-3.572-2.58-.958-1.118-1.674-2.474-2.148-4.067-.475-1.593-.712-3.393-.712-5.398 0-1.934.246-3.715.74-5.344.49-1.628 1.234-3.038 2.228-4.228.994-1.19 2.233-2.117 3.72-2.78 1.486-.662 3.223-.994 5.21-.994 1.897 0 3.558.295 4.98.886s2.61 1.446 3.56 2.565c.95 1.118 1.665 2.474 2.148 4.067.484 1.594.725 3.384.725 5.372zm-3.384.294c0-1.378-.134-2.694-.402-3.948-.268-1.253-.715-2.36-1.342-3.316-.627-.958-1.468-1.72-2.524-2.283-1.057-.563-2.373-.846-3.948-.846-1.45 0-2.703.26-3.76.78-1.056.52-1.92 1.24-2.59 2.162-.672.922-1.17 2.01-1.492 3.263-.322 1.253-.483 2.605-.483 4.055 0 1.396.136 2.726.404 3.988.27 1.262.716 2.368 1.343 3.316.626.95 1.468 1.7 2.524 2.256 1.057.555 2.373.833 3.948.833 1.45 0 2.704-.26 3.76-.78 1.057-.518 1.92-1.234 2.592-2.147s1.168-1.996 1.49-3.25c.322-1.253.483-2.614.483-4.082zM215.577 41.286c0 .376-.032.68-.094.913-.063.232-.16.415-.295.55-.134.134-.332.26-.59.376-.26.116-.56.215-.9.295-.34.082-.698.145-1.074.19-.376.043-.743.066-1.102.066-1.2 0-2.22-.16-3.062-.483-.84-.322-1.53-.81-2.067-1.463-.537-.654-.927-1.48-1.168-2.484-.242-1.002-.363-2.184-.363-3.545V20.58h-3.625c-.25 0-.448-.112-.59-.335-.145-.224-.216-.56-.216-1.007 0-.232.02-.434.055-.604.036-.17.09-.313.16-.43.072-.117.157-.202.256-.255.1-.055.21-.082.337-.082h3.625v-5.962c0-.107.022-.206.067-.295.043-.088.13-.165.254-.227.125-.063.29-.107.497-.135.207-.026.462-.04.767-.04.322 0 .586.014.792.04.205.027.366.072.482.135.116.062.2.14.255.228.054.09.08.19.08.296v5.962h6.715c.125 0 .237.027.335.08.098.055.184.14.255.256.07.116.125.26.16.43.037.17.055.372.055.604 0 .448-.077.783-.23 1.007-.15.224-.344.335-.576.335h-6.713v14.69c0 1.844.264 3.25.792 4.216.527.967 1.49 1.45 2.886 1.45.43 0 .82-.044 1.168-.134.35-.09.658-.188.926-.295s.497-.206.685-.295c.188-.09.354-.134.497-.134.09 0 .17.018.242.054.07.036.13.103.174.202.044.098.08.224.107.376.028.15.042.343.042.576z"/></g><g fill="#44CFDC"><path d="M218.242 7.842h-1.23V7.4h2.994v.442h-1.235v3.598h-.527V7.842zM223.863 9.666c-.03-.564-.066-1.24-.06-1.745h-.018c-.138.475-.306.98-.51 1.536l-.713 1.96h-.396l-.653-1.924c-.192-.57-.354-1.09-.468-1.57h-.012c-.012.503-.042 1.18-.078 1.786l-.108 1.733h-.498l.28-4.04h.667l.69 1.954c.167.498.305.94.407 1.36h.018c.102-.407.246-.85.426-1.36l.72-1.955h.666l.252 4.04h-.51l-.103-1.774z"/></g></svg>