<svg xmlns="http://www.w3.org/2000/svg" width="120" height="70" viewBox="0 0 120 70"><path clip-rule="evenodd" fill="none" d="M-.013-.005h120v70h-120z"/><path fill-rule="evenodd" clip-rule="evenodd" fill="#9A9A9A" d="M43.827 56.435h34.63v-1.19h-34.63v1.19zm0-2.39h34.63v-1.2h-34.63v1.2zm-.1-2.57h34.82v-21.93h-34.82v21.93zm3.92-7.45h4.35v4.14h-4.35v-4.14zm0-5.37h4.35v4.13h-4.35v-4.13zm0-5.38h4.35v4.13h-4.35v-4.13zm5.66 10.75h4.35v4.14h-4.35v-4.14zm0-5.37h4.35v4.13h-4.35v-4.13zm0-5.38h4.35v4.13h-4.35v-4.13zm5.66 10.75h4.35v4.14h-4.35v-4.14zm0-5.37h4.35v4.13h-4.35v-4.13zm0-5.38h4.35v4.13h-4.35v-4.13zm5.65 10.75h4.36v4.14h-4.36v-4.14zm0-5.37h4.36v4.13h-4.36v-4.13zm0-5.38h4.36v4.13h-4.36v-4.13zm5.67 10.75h4.35v4.14h-4.35v-4.14zm0-5.37h4.35v4.13h-4.35v-4.13zm0-5.38h4.35v4.13h-4.35v-4.13zm3.73-13.84v1.98c0 1.28-1.09 2.32-2.43 2.32-1.35 0-2.44-1.04-2.44-2.32v-1.98h-16.01v1.98c0 1.28-1.09 2.32-2.44 2.32-1.34 0-2.43-1.04-2.43-2.32v-1.98h-4.44v8.93h34.63v-8.93h-4.44zm-2.43 3.31c.76 0 1.39-.59 1.39-1.33v-5.03c0-.73-.63-1.32-1.39-1.32-.78 0-1.4.59-1.4 1.32v5.03c0 .74.62 1.33 1.4 1.33zm-20.89 0c.77 0 1.4-.59 1.4-1.33v-5.03c0-.73-.63-1.32-1.4-1.32s-1.39.59-1.39 1.32v5.03c0 .74.62 1.33 1.39 1.33z"/></svg>