<svg xmlns="http://www.w3.org/2000/svg" width="120" height="70" viewBox="0 0 120 70"><path clip-rule="evenodd" fill="none" d="M.183-.047h120v70h-120z"/><path fill-rule="evenodd" clip-rule="evenodd" fill="#9A9A9A" stroke="#9A9A9A" stroke-linecap="round" stroke-linejoin="round" stroke-miterlimit="10" d="M89.034 31.753c-.47-.76-.99-1.47-1.56-2.14-.56-.68-1.22-1.34-1.97-1.99l1.33-1.05c.4.41.76.77 1.08 1.11.31.33.6.65.88.97.28.31.55.63.81.94.26.32.53.66.81 1.03l-1.38 1.13zm-.18 13.67c.5-.52.97-1.04 1.39-1.55.43-.5.93-1.14 1.5-1.91.16.29.32.53.47.7.16.18.33.35.5.5l-3.26 3.76c-.39.44-.7.81-.96 1.13-.25.31-.52.67-.82 1.07-.19-.29-.4-.54-.61-.75-.22-.2-.46-.37-.72-.51.33-.31.56-.7.69-1.17.13-.46.2-1.02.2-1.69v-9.61c-.89 0-1.59.03-2.11.07-.51.04-1.03.13-1.55.25v-1.71c.17.04.34.06.48.07l.54.04c.21.02.45.02.73.02h1.07c.59 0 1.14-.01 1.63-.03.5-.03.92-.06 1.27-.1-.14.3-.25.75-.33 1.35-.08.61-.11 1.21-.11 1.8v8.27zm9.55-16.22c-1.42.21-3.11.42-5.06.63-.04-.26-.1-.5-.19-.72-.08-.22-.25-.52-.49-.91.97.07 2.02.07 3.13-.01 1.12-.08 2.45-.25 4-.51 1.2-.21 2.22-.42 3.07-.63.84-.21 1.45-.42 1.84-.63.14.28.28.54.44.78.16.25.38.51.65.79.2.19.25.37.16.51-.09.15-.23.17-.42.07-.08-.05-.23-.09-.43-.12-.2-.02-.42-.04-.66-.05-.25-.01-.5-.01-.76.01s-.51.05-.73.08c-.35.07-.77.15-1.26.22-.48.08-1.03.17-1.64.25v4.86l1.97-.01c.69-.01 1.35-.03 1.99-.04.63-.02 1.21-.04 1.74-.07.54-.02.96-.06 1.27-.09v1.65c-.31-.03-.73-.07-1.27-.1-.53-.04-1.11-.06-1.74-.08l-1.99-.04-1.97-.01v4.38c.73 0 1.35 0 1.85-.01.51-.01.95-.02 1.33-.04.39-.02.73-.05 1.02-.08l.89-.11c-.07.37-.12.73-.14 1.08-.03.35-.04.78-.04 1.29v4.41c0 .59.01 1.13.04 1.6.02.47.07 1.01.14 1.63h-1.75v-1.63h-8.09v1.81h-1.75c.08-.63.14-1.2.17-1.69.02-.5.03-1.01.03-1.54v-4.59c0-.97-.05-1.75-.15-2.37l.86.11c.3.03.63.06 1.01.08.37.02.79.03 1.26.04.47.01 1.03.01 1.67.01v-4.38l-2.02.01c-.71.01-1.38.03-2.04.05l-1.79.08-1.28.07v-1.63c.32.03.74.07 1.28.09.54.03 1.14.05 1.79.07.66.01 1.33.03 2.04.04l2.02.01v-4.62zm4.99 17.09v-5.62h-8.09v5.62h8.09zm-35.15-17.67h-6.05c-.67 0-1.24.01-1.71.03l-1.22.05c-.35.02-.71.04-1.07.08v-1.55l1.03.09c.32.03.71.05 1.17.07.46.02 1.04.03 1.74.04.7.01 1.59.01 2.69.01 1.04 0 1.92 0 2.62-.01.71-.01 1.31-.02 1.79-.04.49-.02.9-.04 1.24-.07l1.03-.09v1.47c-.22.04-.46.08-.7.15-.24.06-.55.19-.93.4-.37.21-.84.51-1.39.91-.56.39-1.27.93-2.12 1.61l.43.26.43.27-.47.57c.85 0 1.58 0 2.18-.02l1.54-.05c.43-.02.79-.04 1.07-.07.29-.03.54-.06.75-.09-.09.37-.15.78-.17 1.24-.03.47-.04 1.06-.04 1.78v8.24c0 .31-.04.59-.11.83-.06.23-.23.44-.48.61-.25.18-.62.34-1.1.48-.47.14-1.13.27-1.97.39-.03-.26-.12-.55-.26-.85-.14-.31-.35-.63-.65-.96.68.05 1.22.07 1.62.06.4-.01.7-.05.91-.14.21-.09.35-.22.41-.39.06-.18.09-.4.09-.66v-1.79h-4.7c0 .83.01 1.57.04 2.24.02.66.06 1.19.11 1.6h-1.77c.05-.41.09-.94.12-1.62.02-.67.04-1.41.04-2.22h-4.42v4.23h-1.67c.07-.51.12-.99.16-1.44.03-.46.05-.95.05-1.47v-7.14c0-.44-.01-.81-.01-1.11l-.03-.76c-.01-.21-.03-.4-.05-.57l-.09-.58 1.37.13c.39.03.82.06 1.28.06l1.66.03c.64.01 1.48.01 2.53.01-.59-.4-1.22-.77-1.89-1.1-.67-.33-1.43-.68-2.26-1.05l.88-1.07 1.64.69c.51.22 1 .45 1.47.7l3.24-2.42zm-12.87 2.94c-.46-.61-1.04-1.26-1.77-1.95-.72-.7-1.51-1.31-2.36-1.85l1.04-1.11c.89.62 1.68 1.24 2.38 1.88.7.64 1.35 1.29 1.96 1.96l-1.25 1.07zm10.47 6.3v2.5h4.7v-2.5h-4.7zm4.7-1.13v-2.67h-4.7v2.67h4.7zm-6.16 0v-2.67h-4.42v2.67h4.42zm-4.42 1.13v2.5h4.42v-2.5h-4.42zm-5.87-2.36c-.96 0-1.72.01-2.28.03-.55.01-1 .04-1.33.07v-1.54c.35.05.76.09 1.23.13.47.03.96.05 1.46.05.47 0 .95-.02 1.44-.05.49-.04.9-.08 1.25-.13-.09.35-.14.78-.17 1.29-.02.52-.04 1.13-.04 1.83v8.24c.39.07.76.16 1.13.26.36.11.64.21.83.32.89.47 1.84.84 2.85 1.12 1.01.27 2.18.44 3.51.51s2.88.05 4.64-.07c1.75-.11 3.83-.31 6.21-.59-.29.3-.49.6-.57.92-.09.31-.13.7-.11 1.16-1.77.06-3.33.12-4.67.15-1.34.04-2.53.05-3.55.04-1.03-.01-1.95-.05-2.75-.13s-1.54-.2-2.22-.37c-.67-.16-1.34-.37-1.98-.61-.64-.25-1.33-.56-2.06-.92-.51-.25-.94-.42-1.31-.52-.37-.09-.73-.07-1.08.06-.36.13-.73.38-1.11.75-.39.36-.85.88-1.39 1.55-.26-.36-.48-.63-.68-.83-.19-.2-.38-.38-.57-.54.45-.42.85-.77 1.19-1.05s.64-.51.9-.7c.26-.18.49-.32.69-.43.2-.1.38-.17.54-.21v-9.79zm-30.04 8.69v2.6h11.55v-2.6h-11.55zm11.55-1.21v-2.49h-11.55v2.49h11.55zm-11.55 5.04v1.79h-1.75c.07-.51.12-.96.15-1.36.02-.39.04-.81.04-1.27v-6.12c0-.4-.02-.75-.04-1.05-.03-.29-.09-.62-.17-.97.31.04.69.07 1.12.09l1.57.08c.61.03 1.32.05 2.13.06.81.01 1.74.01 2.8.01 2.01 0 3.58-.02 4.73-.05 1.15-.04 2.05-.1 2.69-.19l-.09.46c-.03.13-.04.27-.05.42l-.02.49V47.213c0 .4.02.78.04 1.13.03.34.08.77.15 1.26h-1.75v-1.58h-11.55zm14.45-16.46c.2.09.33.19.36.29.04.11-.1.2-.39.29-.09.03-.18.08-.28.14-.09.07-.24.21-.45.44-.21.22-.5.56-.86.99l-1.49 1.79c-.14-.18-.3-.32-.47-.42-.18-.11-.4-.23-.68-.37.36-.33.68-.65.95-.96.27-.3.52-.61.73-.93.22-.31.42-.65.62-1 .19-.35.38-.73.57-1.15.3.26.54.45.75.58.2.12.41.22.64.31zm-14.16 3.76c-.4-.6-.84-1.17-1.32-1.71-.48-.54-1.03-1.07-1.66-1.58l1.07-.94c.56.51 1.07 1.01 1.54 1.52.48.51.99 1.1 1.55 1.76l-1.18.95zm9.04.57l2.48-.01c.82-.01 1.59-.02 2.31-.04s1.37-.04 1.94-.08c.58-.03 1.04-.07 1.39-.1v1.68c-.79-.09-2.14-.15-4.06-.19-1.93-.03-4.42-.05-7.48-.05-2.16 0-3.9 0-5.21.01-1.32.01-2.38.03-3.18.04-.8.02-1.42.05-1.85.08l-1.23.11v-1.68c.33.03.78.07 1.35.1.56.04 1.2.06 1.9.08.71.02 1.46.03 2.26.04l2.43.01v-5.77c-1.38 0-2.6.02-3.68.05-1.08.04-2.07.1-2.95.18v-1.78c.83.07 1.75.12 2.76.16 1.01.03 2.16.06 3.45.08-.12-.21-.24-.41-.36-.58-.13-.18-.26-.35-.41-.53l-.49-.56c-.19-.2-.4-.43-.64-.67l1.38-.84c.5.65.91 1.2 1.21 1.67.31.46.62.97.93 1.53h4.81c.22-.33.41-.62.56-.88.15-.25.27-.5.38-.73.1-.24.2-.49.28-.75l.29-.92c.3.21.58.38.84.51s.49.24.7.33c.35.12.52.26.5.41s-.19.27-.52.38c-.13.03-.3.16-.51.38-.22.22-.56.63-1.01 1.25 1.27 0 2.4-.02 3.4-.06.99-.03 1.9-.09 2.74-.18v1.78c-.89-.08-1.88-.14-2.97-.18-1.08-.03-2.33-.05-3.74-.05v5.77zm-1.6 0v-5.8h-3.84v5.8h3.84z"/></svg>