<svg xmlns="http://www.w3.org/2000/svg" width="120" height="70" viewBox="0 0 120 70"><path clip-rule="evenodd" fill="none" d="M-.005.003h120v70h-120z"/><path fill-rule="evenodd" clip-rule="evenodd" fill="#9A9A9A" d="M77.475 36.923c-1.38 0-2.51-1.11-2.51-2.48 0-1.36 1.13-2.47 2.51-2.47 1.39 0 2.52 1.11 2.52 2.47 0 1.37-1.13 2.48-2.52 2.48zm-10.42 15.28c-1.38 0-2.51-1.11-2.51-2.47s1.13-2.47 2.51-2.47c1.39 0 2.52 1.11 2.52 2.47s-1.13 2.47-2.52 2.47zm-13.44-9.26c-1.38 0-2.51-1.11-2.51-2.47s1.13-2.47 2.51-2.47c1.39 0 2.52 1.11 2.52 2.47s-1.13 2.47-2.52 2.47zm-10.42 14.83c-1.38 0-2.51-1.11-2.51-2.47 0-1.37 1.13-2.48 2.51-2.48 1.39 0 2.52 1.11 2.52 2.48 0 1.36-1.13 2.47-2.52 2.47zm34.28-28.76c-3.04 0-5.52 2.44-5.52 5.43 0 1.36.52 2.59 1.37 3.55l-4.55 6.6c-.55-.18-1.12-.3-1.72-.3-1.38 0-2.63.52-3.6 1.35l-4.66-3.33c.22-.58.35-1.19.35-1.84 0-3-2.48-5.43-5.53-5.43s-5.53 2.43-5.53 5.43c0 1.24.44 2.36 1.15 3.28l-3.76 6.6c-.7-.31-1.47-.49-2.28-.49-3.05 0-5.53 2.44-5.53 5.44 0 2.99 2.48 5.43 5.53 5.43 3.05 0 5.53-2.44 5.53-5.43 0-1.11-.34-2.13-.91-2.99l3.85-6.77c.61.23 1.26.37 1.95.37 1.3 0 2.47-.46 3.42-1.2l4.77 3.41c-.17.51-.28 1.05-.28 1.61 0 3 2.48 5.43 5.53 5.43 3.05 0 5.53-2.43 5.53-5.43 0-1.33-.51-2.53-1.31-3.48l4.57-6.64c.52.16 1.06.27 1.63.27 3.05 0 5.53-2.44 5.53-5.44 0-2.99-2.48-5.43-5.53-5.43z"/></svg>