<svg xmlns="http://www.w3.org/2000/svg" width="120" height="70" viewBox="0 0 120 70"><path clip-rule="evenodd" fill="none" d="M.02-.004h120v70H.02z"/><path fill-rule="evenodd" clip-rule="evenodd" fill="#9A9A9A" d="M48.48 40.926c0-.21-.03-.53.46-1.03l4.28-4.28c.47-.47.71-.34 1.05 0l1.59 1.59c.18.18.31.48.79 0l5.8-5.8c.46-.46.97-.35 1.32 0l4.74 4.74c.38.38.79.69.79 1.06v4.21c0 .47-.19.53-.52.53H49c-.38 0-.53-.38-.53-.53l.01-.49zm1.05-11.53c0-1.31 1.06-2.37 2.37-2.37s2.37 1.06 2.37 2.37-1.06 2.37-2.37 2.37-2.37-1.06-2.37-2.37zm21.71 14.46H46.67v-19.95h24.57v19.95zm-24.91-21.29c-.56 0-1.02.46-1.02 1.02v20.66c0 .56.46 1.02 1.02 1.02h25.38c.56 0 1.02-.46 1.02-1.02v-20.66c0-.56-.46-1.02-1.02-1.02H46.33z"/><path fill-rule="evenodd" clip-rule="evenodd" fill="#989898" d="M25.37 30.626l-1.3 1.29c.67.66 1.08 1.58 1.08 2.59 0 1.02-.41 1.93-1.08 2.59l1.3 1.3c.99-1 1.61-2.37 1.61-3.89 0-1.51-.62-2.89-1.61-3.88zm5.25 3.88c0-2.52-1.02-4.8-2.68-6.45l-1.28 1.28c1.32 1.32 2.14 3.15 2.14 5.17s-.82 3.85-2.14 5.18l1.28 1.28c1.66-1.65 2.68-3.93 2.68-6.46zm3.65 0c0-3.53-1.44-6.72-3.75-9.03l-1.29 1.29c1.99 1.98 3.22 4.72 3.22 7.74 0 3.03-1.23 5.77-3.22 7.75l1.29 1.29c2.31-2.31 3.75-5.51 3.75-9.04zm-22.69 3.65h4.8l5.22 4.83v-16.95l-5.12 4.83h-4.9v7.29zM107.03 29.546h-2.49v-2.32h2.49v2.32zm0 3.84h-2.49v-2.32h2.49v2.32zm0 3.84h-2.49v-2.32h2.49v2.32zm0 3.84h-2.49v-2.32h2.49v2.32zm-4.05-7.55H91.04v-7.76h11.95v7.76h-.01zm0 9.02H91.04v-7.75h11.95v7.75h-.01zm-13.49-12.99h-2.5v-2.32h2.5v2.32zm0 3.84h-2.5v-2.32h2.5v2.32zm0 3.84h-2.5v-2.32h2.5v2.32zm0 3.84h-2.5v-2.32h2.5v2.32zm19.2-16.57h-1.66v1.22h-2.49v-1.22H89.49v1.22h-2.5v-1.22h-1.65v19.3h1.65v-1.21h2.5v1.21h15.05v-1.21h2.49v1.21h1.66v-19.3z"/></svg>