<svg xmlns="http://www.w3.org/2000/svg" width="120" height="70" viewBox="0 0 120 70"><path clip-rule="evenodd" fill="none" d="M.022.023h120v70h-120z"/><path fill-rule="evenodd" clip-rule="evenodd" fill="#A9A9A9" d="M72.27 29.773c0 6.52-5.3 11.81-11.81 11.81-6.51 0-11.81-5.29-11.81-11.81 0-6.51 5.3-11.81 11.81-11.81 6.51 0 11.81 5.3 11.81 11.81zm-11.81 13.96c-7.7 0-13.96-6.26-13.96-13.96 0-7.69 6.26-13.96 13.96-13.96 7.7 0 13.96 6.27 13.96 13.96 0 7.7-6.26 13.96-13.96 13.96zm12.18-3.88c2.27-2.73 3.64-6.25 3.64-10.08 0-8.72-7.1-15.82-15.82-15.82s-15.82 7.1-15.82 15.82c0 4.16 1.62 7.93 4.25 10.76l-3.15 11.38c-.11.36.02.74.32.97.29.24.69.27 1.02.09l5.21-2.88 3.11 4.61c.17.26.46.41.77.41l.13-.01c.35-.04.64-.29.75-.63l2.94-8.9c.16 0 .31.02.47.02.4 0 .8-.03 1.2-.06l2.94 8.94c.11.34.41.58.76.63l.12.01c.31 0 .6-.15.78-.41l3.1-4.61 5.22 2.88c.33.18.73.15 1.03-.09.29-.23.42-.61.32-.97l-3.29-12.06z"/></svg>