<svg xmlns="http://www.w3.org/2000/svg" width="120" height="70" viewBox="0 0 120 70"><path clip-rule="evenodd" fill="none" d="M.014-.03h120v70h-120z"/><g fill-rule="evenodd" clip-rule="evenodd" fill="#9A9A9A"><path d="M52.924 22.85c-3.79 0-6.34 2.54-6.34 6.31 0 2.93.56 4.05 1.15 5.23.57 1.14 1.17 2.32 1.17 4.73 0 2.42-2.53 3.49-4.97 4.52-2.98 1.27-4.93 2.24-4.93 4.23v7.6c0 1.54 2.36 1.66 3.08 1.66h21.69c.72 0 3.08-.12 3.08-1.66v-7.6c0-1.99-1.95-2.96-4.93-4.23-2.44-1.03-4.97-2.1-4.97-4.52 0-2.41.59-3.59 1.17-4.73.59-1.18 1.14-2.3 1.14-5.23 0-3.77-2.55-6.31-6.34-6.31zm10.85 36.73h-21.69c-3.37 0-5.55-1.61-5.55-4.11v-7.6c0-3.75 3.56-5.26 6.43-6.48 1.62-.68 3.46-1.46 3.46-2.27 0-1.83-.4-2.63-.91-3.65-.66-1.31-1.4-2.8-1.4-6.31 0-5.16 3.62-8.76 8.81-8.76s8.82 3.6 8.82 8.76c0 3.51-.75 5-1.41 6.31-.5 1.02-.9 1.81-.9 3.65 0 .81 1.84 1.59 3.46 2.27 2.87 1.22 6.43 2.73 6.43 6.48v7.6c0 2.5-2.18 4.11-5.55 4.11zM79.164 45.04c-.95-.39-2.53-1.05-2.53-1.48 0-1.35.28-1.91.68-2.68.5-.99 1.13-2.21 1.13-4.98 0-4.14-2.95-7.03-7.16-7.03-4.22 0-7.16 2.89-7.16 7.03l.1.88c.52.21 1.37.49 2.49.6-.01-.22-.12-1.23-.12-1.48 0-2.74 1.89-4.58 4.69-4.58s4.68 1.84 4.68 4.58c0 2.18-.42 3.01-.86 3.88-.44.87-.94 1.85-.94 3.78 0 2.05 2.14 2.95 4.04 3.74 2.22.93 3.68 1.64 3.68 2.99v5.51c0 1.3-.7 1.33-2.13 1.33h-6.72c-.68 0-.69.55-.69 1.22 0 .68.01 1.23.69 1.23h6.72c2.8 0 4.61-1.35 4.61-3.45v-5.84c0-3.08-3.01-4.33-5.2-5.25z"/></g></svg>