<svg xmlns="http://www.w3.org/2000/svg" width="120" height="70" viewBox="0 0 120 70"><path clip-rule="evenodd" fill="none" d="M-.01 0h120v70h-120z"/><g fill-rule="evenodd" clip-rule="evenodd" fill="#9A9A9A"><path d="M50.82 57.22c-1.94 0-3.52-1.56-3.52-3.47 0-1.92 1.58-3.48 3.52-3.48s3.53 1.56 3.53 3.48c0 1.91-1.59 3.47-3.53 3.47zm2.37-8.69V36.09c-1.84-1.36-3.54-3-4.73-5.13v17.57c-2.03.89-3.44 2.88-3.44 5.21 0 3.16 2.6 5.73 5.8 5.73 3.21 0 5.81-2.57 5.81-5.73 0-2.33-1.42-4.32-3.44-5.21zM50.82 22.53c-1.94 0-3.52-1.56-3.52-3.48s1.58-3.48 3.52-3.48 3.53 1.56 3.53 3.48-1.59 3.48-3.53 3.48zm25.48 26l-3.25 3.18v-1.69c-.17-9.85-6.59-13.55-11.78-16.53-4.95-2.83-7.77-4.7-7.85-9.34 1.89-.95 3.21-2.86 3.21-5.1 0-3.16-2.6-5.72-5.81-5.72-3.2 0-5.8 2.56-5.8 5.72 0 2.41 1.51 4.46 3.64 5.31.2 7.43 5.51 10.49 10.22 13.19 5.06 2.9 9.43 5.4 9.43 12.84v1.39l-3.26-3.24-2.99 2.92 8.6 8.49 8.6-8.47-2.96-2.95z"/></g></svg>