<svg xmlns="http://www.w3.org/2000/svg" viewBox="0 0 387.9 101.7" enable-background="new 0 0 387.9 101.7"><path fill-rule="evenodd" clip-rule="evenodd" fill="#989898" d="M25.4 31.4c-3.5-2.3-6-5.3-6.8-8.4-.4-1.5-.4-3-.6-3.2-.2-.2 0 1.8.2 3.1.7 3.3 3.1 6.7 6.9 9.3-1.3 3.3-2.5 6.8-3.5 10.5-4.2-2.2-7.6-5.1-10-8.2 1.1-2.5 2.6-5 4.3-7.5 0-.1 1.2-1.6 1.1-1.7-.1-.1-1 .8-1.6 1.5-1.4 1.7-3.1 3.9-4.6 6.7-2-3-3-6.3-2.7-9.4 1.8-2.4 3.9-4.3 5.8-5.8 0 0 1.1-1 3.7-2.3-1.8.4-4.1 1.8-4.1 1.8C2.3 25.3-.9 36.4.2 45.2c.7 11 7.4 21.2 18 26.1.5 12.3 3.4 23.1 7.4 30.4-3.2-8.3-5.3-18.5-5.6-29.6 15.4 5.8 32.8-1.4 39.3-16.7 6.7-15.7-.5-33.8-16.2-40.5l-.9-.3c2.4 1.1 4.6 2.5 6.5 4.2 3.1 3.1 4.5 6.8 3.5 10.1-1.8 6-10.8 8.6-20.2 5.8-1.8-.6-3.5-1.3-5.1-2.1C32.4 19 40.2 7.7 48.3 0c-8.1 5.9-16.9 17.1-22.9 31.4zM52 37.7c-.3-1.4-.7-2.7-1.1-4 1.2-1.1 2.2-2.4 2.6-3.9.9-2.9-.1-6.1-2.3-9 3 3.1 5.2 6.7 6.6 10.6.3 1.8.2 3.5-.3 5.2-.8 2.5-2.4 4.7-4.6 6.4-.2-1.9-.5-3.7-.9-5.3zM1.9 41.2c.3-5 1.7-9.7 4-13.4.7-1.2 1.4-2.4 2.2-3.4-.6 3.4.3 6.9 2.4 10.2l-.4.4c-1.9 4-3.2 9.1-3.3 14.8-2.6-2.7-4.4-5.7-4.9-8.6zm26.3 4.2c-1.6-.5-3.2-1.1-4.7-1.8.9-3.6 2.1-7 3.3-10.3 1.7 1 3.7 1.9 5.8 2.5 2 .6 4 1 5.9 1.1.5 3.4.6 6.8.5 10.1h-.2c-3.5 0-7-.5-10.6-1.6zm21.2-10.6c.8 3.2 1.2 6.4 1.3 9.6-2.8 1.5-6.2 2.4-10 2.6.1-2.5 0-4.9-.3-7.1-.1-1-.3-1.9-.4-2.9h.3c3.5 0 6.7-.8 9.1-2.2zM8.1 51c0-5 .8-10.1 3.1-15.4 2.3 3.3 5.8 6.3 10.1 8.6-.2 1-.5 1.9-.7 2.9-.8 3.4-1.4 6.8-1.7 10.2-4.4-1.6-8-3.8-10.8-6.3zm44.8-5.3c3-1.8 5.2-4.4 6.2-7.5.1-.2.1-.5.2-.8.7 5 .1 10.3-2 15.3-1.6 2-3.8 3.7-6.6 5 1.5-4.1 2.1-8.2 2.2-12zM6.1 59.3c-2.7-4.7-4-9.8-4.3-14.6.9 2.5 2.7 5 5.1 7.3.1 3.3.7 6.8 1.8 10.4-.9-1.1-1.8-2.1-2.6-3.1zm15.9-.8c-.4-.1-.8-.3-1.3-.4.4-3.5 1-6.9 1.8-10.4l.6-2.4c1.8.8 3.6 1.6 5.6 2.2 3.5 1 6.9 1.6 10.2 1.7-.2 3-.6 6-1.3 8.6-.2 1.1-.5 2.1-.8 3h-.6c-4.7-.2-9.5-.9-14.2-2.3zM40.6 49c3.7-.1 7.2-.8 10-2.1-.1 2.8-.5 5.5-1.1 7.9-.3 1.4-.7 2.6-1.1 3.9-3 1.1-6.6 1.7-10.3 1.9 1.4-4 2.2-7.9 2.5-11.6zM18.1 68.7c-3.2-1.4-6.1-3.3-8.5-5.5C8.9 60.4 8.3 57 8.1 53c2.8 2.4 6.3 4.5 10.5 6.1-.3 3.3-.4 6.5-.4 9.6h-.1zm31.3-8.1c1.7-.6 3.3-1.3 4.8-2.2-2.2 3.2-5 5.9-8.2 7.9 1.4-1.9 2.5-3.8 3.4-5.7zM20 69.4c0-3.2.2-6.4.5-9.6.5.2 1.1.4 1.6.5 4.7 1.4 9.4 2.1 13.9 2.2-1.2 3.7-2.7 6.6-3.8 8.4-.8.1-1.7.1-2.5.1-3.2.1-6.5-.4-9.7-1.6zm17.4-6.8c3.6 0 7-.5 10.1-1.4-1.1 2.6-2.3 4.7-3.3 6.2-3.5 1.9-7.3 3.1-11.2 3.5 1.8-2.7 3.3-5.5 4.4-8.3z"/><path fill="#989898" d="M20.5 47.2c-5 21.8-1.3 42.7 5.2 54.5-5.5-14.2-7.7-34-3.2-54.1C26.9 27.5 37.3 10.5 48.3 0 37.4 8 25.2 25.3 20.5 47.2z"/><path fill-rule="evenodd" clip-rule="evenodd" fill="#989898" d="M107.7 49c-5.7-14.2-8.6-21.8-8.6-22.7h-.4c0 .8-2.9 8.3-8.8 22.7h17.8zm13.9 20.1h-7.7c0-1.6-1.5-6.7-4.6-15.3h-21c-3 8.5-4.5 13.6-4.5 15.3h-7.4c0-.9 3.1-8.6 9.4-23.3 6.3-14.6 9.4-22.7 9.4-24.1h8.4c0 1.4 3 9.4 9 23.8s9 22.3 9 23.6zM151.5 61.9c0-7.5-.2-14.8-.6-21.8-2-1.6-4.4-2.4-7.3-2.4-4.1 0-7.2 1.4-9.2 4.1-2.1 2.7-3.1 6.2-3.1 10.3 0 3.7 1 6.8 2.9 9.3 1.9 2.5 4.6 3.8 8 3.8 4.2 0 7.3-1.1 9.3-3.3zm5.8 7.2l-5.4.2c-.2-1-.3-2.2-.3-3.3h-.4c-2.5 2.8-6.3 4.1-11.3 4.1-4.6 0-8.3-1.7-11-5-2.7-3.3-4.1-7.4-4.1-12.1 0-5.4 1.5-10 4.5-13.9 3-3.9 7.3-5.8 12.8-5.8 3.9 0 6.8.8 8.4 2.4h.3c0-6-.2-11.9-.5-17.7l6.9-.3c-.5 6.2-.7 14.2-.7 24.2.1 10.2.3 19.2.8 27.2z"/><path fill="#989898" d="M195.5 34.5c0 1.2-2.5 6.9-7.4 17.2-4.9 10.3-7.4 16.1-7.4 17.4h-4.9c0-1.7-2.2-7.6-6.5-17.8-4.3-10.2-6.5-15.8-6.5-16.8h7.1c0 1.2 1.6 5.8 4.7 13.9 3.2 8.1 4.7 12.7 4.7 13.9h.3c0-1.1 1.5-5.6 4.5-13.4 3-7.8 4.5-12.6 4.5-14.4h6.9z"/><path fill-rule="evenodd" clip-rule="evenodd" fill="#989898" d="M221.9 62.1c-.1-3.7-.2-7-.2-9.9-4.6 0-8.1.4-10.4 1-4 1.2-6 3.5-6 7 0 3.3 2.3 5 7 5 4.1-.1 7.2-1.1 9.6-3.1zm6.5 7l-5.7.2c-.3-1.2-.4-2.3-.4-3.4h-.4c-3 2.7-7.1 4.1-12.2 4.1-2.8 0-5.2-.8-7.2-2.5-2-1.6-3-4-3-7 0-3.7 1.6-6.8 4.7-9 3.1-2.3 9-3.5 17.6-3.6.1-.6.1-1.2.1-2 0-3-.8-5-2.4-6-1.6-1-4-1.5-7.2-1.5-3.8 0-7.6.5-11.2 1.4l.6-5c3.6-1 7.8-1.6 12.6-1.6 4.3 0 7.7.9 10 2.7 2.4 1.8 3.5 4.8 3.5 9.1 0 1.2-.1 3.2-.2 6.2s-.2 5-.2 6c0 4.6.3 8.5 1 11.9z"/><path fill="#989898" d="M267.6 69.1H261c.5-6.4.8-13.3.8-20.9 0-3.7-.8-6.3-2.3-7.7-1.5-1.4-3.7-2.1-6.5-2.1-3.5 0-6.6 1.2-9.5 3.8 0 8.3.1 17.2.1 26.9H237c.4-8.2.6-14.2.6-17.9 0-5.7-.5-11.2-1.6-16.5l6.4-.9.7 4.5h.3c3.6-3.2 7.4-4.9 11.5-4.9 4 0 7.2.9 9.3 2.7 2.2 1.8 3.3 5 3.3 9.5 0 .5 0 1.4-.1 2.7 0 1.4-.1 2.3-.1 2.8.1 4 .2 10 .3 18zM302.7 63.6l-.4 4.9c-2 1.1-4.6 1.7-7.9 1.7-6.3 0-11.1-1.7-14.4-5.2-3.3-3.5-5-7.7-5-12.6 0-5.2 1.8-9.7 5.2-13.4 3.5-3.7 8.1-5.6 13.9-5.6 2.9 0 5.2.3 7.1.9l-1 5.7c-2.6-.9-5.1-1.4-7.8-1.4-3.5 0-6.2 1.2-8.2 3.6-2 2.4-3.1 5.4-3.1 9 0 3.9 1.2 7.2 3.6 9.8 2.4 2.6 5.9 3.9 10.3 3.9 1.9 0 4.5-.4 7.7-1.3zM309.4 69.2c.3-7.3.5-15.6.5-24.8 0-8.8-.2-16.4-.5-22.6H339l-.4 8c-7.3-.4-13.9-.6-19.8-.6.2 3.4.4 7.4.4 11.9 5.1 0 10.5-.1 16.3-.4v7.6c-5.7-.2-11.1-.4-16.3-.4 0 4.9.1 9.5.3 13.8 6.6 0 13.7-.2 21.3-.6l-.3 8h-31.1z"/><path fill-rule="evenodd" clip-rule="evenodd" fill="#989898" d="M358.9 21.6c-2.1.1-3.6.1-4.7.1h-6.4c.3 6.2.5 13.8.5 22.6 0 9.2-.2 17.5-.5 24.8 6.3.3 11.3.4 14.9.4 7.9 0 14.1-2.6 18.6-7.7 4.4-5.2 6.6-11.2 6.6-18.1 0-6.1-2-11.4-5.9-15.7-4-4.4-10.3-6.5-19.1-6.5-.6 0-1.9 0-4 .1zm-1 40c-.2-5.7-.4-11.4-.4-17.3 0-5.3-.1-10.4-.4-15.2 1.8-.2 3.2-.3 4.3-.3 5.6 0 9.7 1.6 12.5 4.8 2.7 3.2 4.1 7.1 4.1 11.8s-1.3 8.6-3.8 11.9c-2.5 3.2-6.4 4.9-11.6 4.9-1.6-.1-3.1-.3-4.7-.6z"/></svg>