<svg xmlns="http://www.w3.org/2000/svg" viewBox="0 0 161.1 51.2" enable-background="new 0 0 161.1 51.2"><path fill-rule="evenodd" clip-rule="evenodd" fill="#fff" d="M24.6 30.5c.1-3.5-.7-6.2-2.4-8.2s-4.1-2.9-7.3-2.9c-1.6 0-3.1.3-4.3.9-1.2.6-2.3 1.4-3.1 2.4-.9 1-1.5 2.2-2 3.5-.5 1.4-.8 2.8-.9 4.3h20zm4.4 1.2c0 .9-.2 1.5-.7 1.8-.4.3-.8.5-1.3.5H4.6c0 2 .2 3.9.6 5.5.4 1.7 1.1 3.1 2 4.2.9 1.2 2.1 2.1 3.6 2.7 1.5.6 3.3.9 5.4.9 1.5 0 2.9-.1 4.1-.4 1.2-.3 2.2-.6 3.1-.9.9-.3 1.6-.6 2.2-.9.6-.3 1-.4 1.2-.4.1 0 .3 0 .4.1l.3.3c.1.2.1.4.2.6 0 .2.1.5.1.9v.5c0 .2-.1.3-.1.4 0 .1-.1.3-.2.4-.1.1-.2.2-.3.4-.1.1-.5.3-1.1.6-.6.3-1.4.6-2.5.9-1 .3-2.2.6-3.5.8-1.3.2-2.8.4-4.3.4-2.5 0-4.8-.4-6.8-1.1-1.9-.8-3.6-1.9-4.9-3.4-1.3-1.5-2.3-3.3-3-5.5s-1-4.8-1-7.7c0-2.8.4-5.3 1.1-7.5.7-2.2 1.7-4.1 3.1-5.6 1.3-1.5 2.9-2.7 4.8-3.5 1.9-.8 4-1.2 6.2-1.2 2.5 0 4.6.4 6.3 1.2s3.2 1.9 4.3 3.3c1.1 1.4 1.9 3 2.5 4.8s.8 3.8.8 5.8v1.1H29z"/><path fill="#fff" d="M43.3 49.8c0 .1 0 .3-.1.4l-.3.3c-.2.1-.4.1-.7.2-.3 0-.6.1-1.1.1-.4 0-.8 0-1-.1-.3 0-.5-.1-.7-.2-.2-.1-.3-.2-.3-.3-.1-.1-.1-.2-.1-.4V.9c0-.1 0-.3.1-.4l.3-.3c.2-.1.4-.1.7-.2.3 0 .6-.1 1-.1s.8 0 1.1.1c.3 0 .5.1.7.2.2.1.3.2.3.3s.1.2.1.4v48.9z"/><path fill-rule="evenodd" clip-rule="evenodd" fill="#fff" d="M77.7 30.5c.1-3.5-.7-6.2-2.4-8.2-1.7-2-4.1-2.9-7.3-2.9-1.6 0-3.1.3-4.3.9-1.2.6-2.3 1.4-3.2 2.4-.9 1-1.5 2.2-2 3.5-.5 1.4-.7 2.7-.8 4.2h20v.1zm4.4 1.2c0 .9-.2 1.5-.7 1.8-.4.3-.9.5-1.3.5H57.7c0 2 .2 3.9.6 5.5.4 1.7 1.1 3.1 2 4.2.9 1.2 2.1 2.1 3.6 2.7 1.5.6 3.3.9 5.4.9 1.5 0 2.9-.1 4.1-.4 1.2-.3 2.2-.6 3.1-.9.9-.3 1.6-.6 2.2-.9.6-.3 1-.4 1.2-.4.1 0 .3 0 .4.1l.3.3c.1.2.1.4.2.6v1.4c0 .2 0 .3-.1.4 0 .1-.1.3-.2.4s-.2.2-.3.4c-.1.1-.5.3-1.1.6-.6.3-1.5.6-2.5.9-1 .3-2.2.6-3.5.8-1.3.2-2.8.4-4.3.4-2.5 0-4.8-.4-6.7-1.1-2-.8-3.6-1.9-4.9-3.4-1.3-1.5-2.3-3.3-3-5.5-.7-2.2-1-4.8-1-7.7 0-2.8.4-5.3 1.1-7.5.7-2.2 1.7-4.1 3.1-5.6 1.3-1.5 2.9-2.7 4.8-3.5 1.9-.8 4-1.2 6.2-1.2 2.5 0 4.6.4 6.3 1.2 1.7.8 3.2 1.9 4.3 3.3 1.1 1.4 1.9 3 2.5 4.8.5 1.8.8 3.8.8 5.8v1.1h-.2zM116.5 33.5c0-1.9-.2-3.6-.5-5.3-.4-1.7-1-3.2-1.8-4.5-.8-1.3-2-2.3-3.4-3.1s-3.2-1.1-5.3-1.1c-2 0-3.7.4-5.1 1-1.4.7-2.6 1.7-3.5 2.9-.9 1.2-1.6 2.7-2 4.4-.4 1.7-.6 3.5-.6 5.5 0 1.9.2 3.7.5 5.4.4 1.7 1 3.2 1.8 4.5.8 1.3 2 2.3 3.4 3 1.4.8 3.2 1.1 5.3 1.1 1.9 0 3.7-.4 5.1-1.1 1.4-.7 2.6-1.7 3.5-2.9.9-1.2 1.6-2.7 2-4.4.4-1.6.6-3.5.6-5.4zm4.6-.4c0 2.6-.3 5-1 7.2s-1.7 4.1-3 5.7c-1.3 1.6-3 2.9-5 3.8s-4.3 1.4-7 1.4c-2.6 0-4.8-.4-6.7-1.2-1.9-.8-3.5-2-4.8-3.5-1.3-1.5-2.3-3.3-2.9-5.5-.6-2.1-1-4.6-1-7.3 0-2.6.3-5 1-7.2s1.7-4.1 3-5.7c1.3-1.6 3-2.9 5-3.8 2-.9 4.3-1.3 7-1.3 2.6 0 4.8.4 6.7 1.2 1.9.8 3.5 2 4.8 3.5 1.3 1.5 2.2 3.3 2.9 5.5.7 2.1 1 4.5 1 7.2z"/><path fill="#fff" d="M146.6 47.8c0 .5 0 .9-.1 1.2-.1.3-.2.6-.4.8-.2.2-.4.3-.8.5-.3.2-.8.3-1.2.4-.5.1-.9.2-1.4.3-.5.1-1 .1-1.5.1-1.6 0-3-.2-4.1-.7-1.1-.4-2.1-1.1-2.8-2-.7-.9-1.2-2-1.6-3.4-.3-1.4-.5-2.9-.5-4.8V19.9h-4.9c-.3 0-.6-.1-.8-.4-.2-.3-.3-.8-.3-1.4 0-.3 0-.6.1-.8.1-.2.1-.4.2-.6.1-.2.2-.3.3-.3.1-.1.3-.1.5-.1h4.9V8.2c0-.1 0-.3.1-.4l.3-.3c.2-.1.4-.1.7-.2.3 0 .6-.1 1-.1s.8 0 1.1.1c.3 0 .5.1.6.2.2.1.3.2.3.3.1.1.1.2.1.4v8.1h9.1c.2 0 .3 0 .5.1l.3.3c.1.2.2.4.2.6.1.2.1.5.1.8 0 .6-.1 1-.3 1.4-.2.3-.5.4-.8.4h-9.1v19.8c0 2.5.4 4.4 1.1 5.7.7 1.3 2 2 3.9 2 .6 0 1.1-.1 1.6-.2s.9-.2 1.2-.4c.4-.1.7-.3.9-.4.2-.1.5-.2.7-.2.1 0 .2 0 .3.1.1 0 .2.1.2.3.1.1.1.3.1.5.2.2.2.4.2.7zM151.7 3.2h-1.8v-.7h4.5v.7h-1.9v5.4h-.8zM160.1 5.9c0-.8-.1-1.9-.1-2.6-.2.7-.5 1.5-.8 2.3l-1.1 2.9h-.6l-1-2.9c-.3-.9-.5-1.6-.7-2.4 0 .8-.1 1.8-.1 2.7l-.2 2.6h-.8l.4-6.1h1l1 2.9c.2.8.5 1.4.6 2 .2-.6.4-1.3.6-2l1.1-2.9h1l.4 6.1h-.8l.1-2.6z"/></svg>