<svg xmlns="http://www.w3.org/2000/svg" viewBox="0 0 589.502 434" enable-background="new 0 0 589.502 434"><path fill-rule="evenodd" clip-rule="evenodd" fill="#fff" d="M147.662 14.72c-59.51 0-107.93 48.57-107.93 108.28s48.42 108.28 107.93 108.28c59.52 0 107.95-48.57 107.95-108.28s-48.43-108.28-107.95-108.28zm0 231.28c-67.6 0-122.6-55.18-122.6-123s55-123 122.6-123c67.61 0 122.62 55.18 122.62 123s-55.01 123-122.62 123zM440.812 14.72c-59.52 0-107.94 48.57-107.94 108.28s48.42 108.28 107.94 108.28 107.94-48.57 107.94-108.28-48.42-108.28-107.94-108.28zm0 231.28c-67.61 0-122.62-55.18-122.62-123S373.202 0 440.812 0s122.62 55.18 122.62 123-55.01 123-122.62 123z"/><path fill="#fff" d="M320.552 98.8c-3.54-1.86-14.69-6.69-23.74-6.69-16.7 0-30.2 6.1-30.33 6.16l-13.84-29.79c2.01-.95 20.32-9.23 44.17-9.23 18.88 0 37.1 9.45 39.11 10.53l-15.37 29.02zM581.232 139.31h-22.42c-8.04 0-4-10.12-4-22.59 0-12.49-9.63-22.59-1.59-22.59h28.01c8.04 0 8.27 10.1 8.27 22.59 0 12.47-.23 22.59-8.27 22.59zM7.692 139.31h22.43c8.03 0 3.99-10.1 3.99-22.59 0-12.48 9.63-22.59 1.6-22.59H7.692c-8.04 0-7.69 10.11-7.69 22.59 0 12.49-.35 22.59 7.69 22.59z"/><path fill-rule="evenodd" clip-rule="evenodd" fill="#fff" d="M147.722 371.27c.22-10.54-2.2-18.78-7.25-24.71s-12.41-8.9-22.07-8.9c-4.98 0-9.36.94-13.13 2.8-3.77 1.87-6.96 4.34-9.55 7.42-2.6 3.08-4.6 6.65-5.99 10.71-1.39 4.07-2.2 8.29-2.42 12.69h60.41v-.01zm13.51 3.85c0 2.64-.69 4.44-2.09 5.44-1.39.98-2.74 1.48-4.06 1.48h-67.77c0 6.15.6 11.72 1.81 16.7 1.21 4.98 3.2 9.24 5.99 12.79 2.78 3.56 6.4 6.28 10.87 8.18 4.47 1.91 9.96 2.86 16.48 2.86 4.61 0 8.75-.4 12.41-1.21 3.66-.8 6.82-1.7 9.5-2.69 2.67-.98 4.87-1.88 6.59-2.69 1.72-.8 2.95-1.21 3.68-1.21.44 0 .84.12 1.21.34.37.22.66.56.88 1.04.22.47.38 1.08.49 1.81.11.73.16 1.65.16 2.75 0 .51-.03 1-.1 1.47-.08.48-.17.92-.28 1.32-.1.41-.27.79-.49 1.16-.22.37-.51.73-.88 1.09-.36.38-1.5 1.01-3.4 1.93-1.91.92-4.4 1.83-7.47 2.75-3.08.92-6.65 1.74-10.71 2.47-4.07.73-8.44 1.1-13.13 1.1-7.69 0-14.5-1.15-20.43-3.46-5.93-2.3-10.91-5.71-14.94-10.21-4.02-4.51-7.08-10.09-9.17-16.76-2.08-6.66-3.13-14.39-3.13-23.18 0-8.42 1.08-15.96 3.24-22.63 2.16-6.66 5.26-12.32 9.28-16.97 4.03-4.65 8.88-8.2 14.56-10.65 5.67-2.46 11.99-3.68 18.95-3.68 7.47 0 13.84 1.25 19.11 3.73 5.27 2.49 9.61 5.84 13.01 10.05 3.41 4.22 5.9 9.1 7.47 14.67 1.58 5.57 2.37 11.42 2.37 17.57v2.64h-.01z"/><path fill="#fff" d="M204.402 429.93c0 .44-.11.85-.33 1.21-.22.37-.57.66-1.04.88-.48.22-1.14.4-1.98.55-.84.14-1.92.22-3.24.22-1.24 0-2.29-.08-3.13-.22-.84-.15-1.52-.34-2.03-.55-.51-.22-.86-.51-1.04-.88-.19-.36-.28-.77-.28-1.21V281.86c0-.44.09-.85.28-1.21.18-.37.53-.68 1.04-.93.51-.26 1.19-.44 2.03-.56.85-.1 1.89-.16 3.13-.16 1.32 0 2.4.06 3.24.16.84.11 1.5.3 1.98.56.47.25.82.56 1.04.93s.33.77.33 1.21v148.07z"/><path fill-rule="evenodd" clip-rule="evenodd" fill="#fff" d="M308.532 371.27c.22-10.54-2.2-18.78-7.25-24.71s-12.41-8.9-22.07-8.9c-4.98 0-9.36.94-13.13 2.8-3.77 1.87-6.96 4.34-9.55 7.42-2.61 3.08-4.6 6.65-5.99 10.71-1.39 4.07-2.2 8.29-2.42 12.69h60.41v-.01zm13.51 3.85c0 2.64-.69 4.44-2.09 5.44-1.39.98-2.74 1.48-4.06 1.48h-67.77c0 6.15.6 11.72 1.81 16.7 1.21 4.98 3.2 9.24 5.99 12.79 2.78 3.56 6.4 6.28 10.87 8.18 4.47 1.91 9.96 2.86 16.47 2.86 4.62 0 8.76-.4 12.42-1.21 3.66-.8 6.82-1.7 9.5-2.69 2.67-.98 4.87-1.88 6.59-2.69 1.72-.8 2.95-1.21 3.68-1.21.44 0 .84.12 1.21.34.36.22.65.56.88 1.04.22.47.38 1.08.49 1.81.11.73.16 1.65.16 2.75 0 .51-.03 1-.1 1.47-.08.48-.17.92-.28 1.32-.11.41-.27.79-.49 1.16s-.51.73-.88 1.09c-.37.38-1.5 1.01-3.4 1.93-1.91.92-4.4 1.83-7.47 2.75-3.08.92-6.65 1.74-10.71 2.47-4.07.73-8.44 1.1-13.13 1.1-7.69 0-14.5-1.15-20.43-3.46-5.93-2.3-10.91-5.71-14.94-10.21-4.02-4.51-7.08-10.09-9.17-16.76-2.08-6.66-3.13-14.39-3.13-23.18 0-8.42 1.08-15.96 3.24-22.63 2.16-6.66 5.25-12.32 9.28-16.97s8.88-8.2 14.56-10.65c5.67-2.46 11.99-3.68 18.95-3.68 7.46 0 13.84 1.25 19.11 3.73 5.27 2.49 9.61 5.84 13.01 10.05 3.41 4.22 5.9 9.1 7.47 14.67 1.58 5.57 2.37 11.42 2.37 17.57v2.64h-.01zM426.282 380.39c0-5.64-.55-11.02-1.64-16.15-1.1-5.12-2.93-9.65-5.5-13.56-2.56-3.92-6-7.03-10.32-9.34-4.32-2.3-9.7-3.46-16.15-3.46-5.93 0-11.05 1.06-15.38 3.18-4.31 2.13-7.85 5.08-10.59 8.85-2.75 3.77-4.78 8.22-6.11 13.35-1.31 5.12-1.97 10.65-1.97 16.58 0 5.71.55 11.15 1.65 16.32 1.1 5.16 2.93 9.68 5.49 13.56s6.01 6.96 10.32 9.23c4.33 2.27 9.71 3.4 16.15 3.4 5.93 0 11.06-1.05 15.38-3.18 4.32-2.12 7.85-5.06 10.6-8.79 2.75-3.74 4.77-8.16 6.09-13.29s1.98-10.7 1.98-16.7zm13.84-1.2c0 7.91-1.02 15.19-3.08 21.85-2.04 6.67-5.1 12.45-9.17 17.36-4.06 4.91-9.13 8.73-15.21 11.48s-13.14 4.12-21.2 4.12c-7.76 0-14.55-1.23-20.38-3.68-5.82-2.46-10.69-5.97-14.61-10.55-3.91-4.58-6.84-10.13-8.78-16.64-1.95-6.52-2.91-13.88-2.91-22.08 0-7.91 1-15.2 3.02-21.86 2.01-6.66 5.05-12.43 9.12-17.3 4.06-4.87 9.13-8.66 15.21-11.37 6.08-2.71 13.18-4.07 21.31-4.07 7.76 0 14.55 1.21 20.37 3.63s10.68 5.91 14.56 10.49c3.88 4.58 6.81 10.12 8.79 16.64 1.98 6.52 2.96 13.84 2.96 21.98z"/><path fill="#fff" d="M517.352 424.01c0 1.53-.14 2.78-.39 3.73-.26.95-.66 1.7-1.21 2.25-.55.55-1.36 1.06-2.41 1.54-1.07.47-2.3.88-3.68 1.21-1.39.32-2.86.58-4.39.76-1.54.18-3.05.28-4.51.28-4.9 0-9.08-.66-12.52-1.98-3.45-1.32-6.26-3.31-8.46-5.98-2.2-2.68-3.79-6.06-4.78-10.16-.99-4.1-1.48-8.94-1.48-14.5v-61.85h-14.83c-1.03 0-1.83-.46-2.42-1.37-.59-.92-.88-2.29-.88-4.12 0-.95.08-1.78.22-2.47.15-.7.37-1.29.66-1.76.29-.48.64-.83 1.05-1.05.4-.22.85-.33 1.37-.33h14.83v-24.38c0-.44.09-.85.27-1.21.18-.37.53-.68 1.04-.93.52-.26 1.2-.44 2.04-.56.84-.1 1.88-.16 3.13-.16 1.32 0 2.4.06 3.24.16.84.11 1.5.3 1.98.56.47.25.82.56 1.04.93s.33.77.33 1.21v24.38h27.46c.51 0 .97.11 1.37.33s.75.57 1.04 1.05c.3.47.51 1.06.66 1.76.15.69.23 1.52.23 2.47 0 1.83-.32 3.2-.94 4.12-.62.91-1.41 1.37-2.36 1.37h-27.46v60.08c0 7.55 1.08 13.3 3.24 17.25 2.15 3.95 6.09 5.93 11.8 5.93 1.76 0 3.35-.18 4.78-.55 1.43-.36 2.69-.76 3.79-1.2s2.03-.85 2.8-1.21c.77-.37 1.45-.55 2.03-.55.37 0 .7.08.99.22.3.15.53.42.71.83.18.4.34.92.44 1.54.12.61.18 1.4.18 2.36z"/><path fill="#7BCFDD" d="M527.552 288.21h-3.3V287h8.02v1.21h-3.31V298h-1.41zM542.612 293.17c-.08-1.54-.18-3.38-.16-4.75h-.05c-.37 1.29-.82 2.66-1.37 4.18l-1.91 5.33h-1.06l-1.75-5.23c-.52-1.56-.95-2.97-1.26-4.28h-.03c-.03 1.37-.11 3.21-.21 4.86l-.29 4.72h-1.33l.75-11h1.79l1.85 5.32c.45 1.36.82 2.56 1.09 3.7h.05c.27-1.11.66-2.31 1.14-3.7l1.93-5.32h1.78l.68 11h-1.37l-.27-4.83z"/></svg>