<svg xmlns="http://www.w3.org/2000/svg" viewBox="0 0 132.6 55.3" enable-background="new 0 0 132.6 55.3"><path fill-rule="evenodd" clip-rule="evenodd" fill="#48C4D3" d="M33.2 55.3c15.2 0 27.6-12.4 27.6-27.7 0-2-.2-3.9-.6-5.7.8-.3 3.4-1.3 6.5-1.3 2 0 4.5 1.1 5.3 1.5-.4 1.8-.6 3.6-.6 5.5 0 15.2 12.4 27.7 27.6 27.7 14 0 25.5-10.5 27.3-24h4.3c1.8 0 1.9-2.3 1.9-5.1s-.1-5.1-1.9-5.1H126C123.1 9.1 112.2 0 99.2 0 88.4 0 79.1 6.2 74.6 15.2c-1.6-.7-4.6-1.9-7.8-1.9-4.1 0-7.5 1.1-9 1.7C53.2 6.1 43.9 0 33.2 0 20.2 0 9.3 9.1 6.4 21.2H1.7c-1.8 0-1.7 2.3-1.7 5.1s-.1 5.1 1.7 5.1h4.2c1.8 13.5 13.4 23.9 27.3 23.9zm0-52c13.4 0 24.3 10.9 24.3 24.4S46.6 52 33.2 52 8.9 41.1 8.9 27.7 19.8 3.3 33.2 3.3zm66 0c13.4 0 24.3 10.9 24.3 24.4S112.6 52 99.2 52 74.9 41.1 74.9 27.6 85.8 3.3 99.2 3.3z"/></svg>