<svg width="108" height="108" viewBox="0 0 108 108" xmlns="http://www.w3.org/2000/svg"><title>icon-systems</title><desc>Created with Sketch.</desc><path d="M79.455 98.344c-24.698 14.25-56.265 5.813-70.537-18.898-14.25-24.696-5.78-56.267 18.918-70.52C52.504-5.335 84.082 3.14 98.348 27.82c14.27 24.707 5.8 56.273-18.893 70.524zM57.29 21.642c-1.828-1.122-4.8-1.14-6.643-.037L27.884 35.22c-1.84 1.1-3.333 3.738-3.333 5.87v26.05c0 2.14 1.498 4.745 3.366 5.825L49.78 85.64c1.854 1.08 4.89 1.115 6.768.09l22.775-12.45c1.88-1.027 3.407-3.604 3.407-5.752v-26.4c0-2.148-1.485-4.8-3.312-5.916l-22.13-13.57zm-3.65 64.84V54.277v32.205zm27.898-48.318l-27.9 16.113 27.9-16.113zm-55.795 0L53.64 54.277 25.742 38.164z" stroke-width="2.5" stroke="#5EAFF9" fill="none"/></svg>