<?xml version="1.0" encoding="UTF-8" standalone="no"?>
<svg width="310px" height="52px" viewBox="0 0 310 52" version="1.1" xmlns="http://www.w3.org/2000/svg" xmlns:xlink="http://www.w3.org/1999/xlink" xmlns:sketch="http://www.bohemiancoding.com/sketch/ns">
    <!-- Generator: Sketch 3.3.2 (12043) - http://www.bohemiancoding.com/sketch -->
    <title>Group</title>
    <desc>Created with Sketch.</desc>
    <defs>
        <filter x="-50%" y="-50%" width="200%" height="200%" filterUnits="objectBoundingBox" id="filter-1">
            <feOffset dx="0" dy="1" in="SourceAlpha" result="shadowOffsetOuter1"></feOffset>
            <feGaussianBlur stdDeviation="0" in="shadowOffsetOuter1" result="shadowBlurOuter1"></feGaussianBlur>
            <feColorMatrix values="0 0 0 0 0   0 0 0 0 0   0 0 0 0 0  0 0 0 0.14 0" in="shadowBlurOuter1" type="matrix" result="shadowMatrixOuter1"></feColorMatrix>
            <feMerge>
                <feMergeNode in="shadowMatrixOuter1"></feMergeNode>
                <feMergeNode in="SourceGraphic"></feMergeNode>
            </feMerge>
        </filter>
    </defs>
    <g id="vars---cart-&amp;-pricing" stroke="none" stroke-width="1" fill="none" fill-rule="evenodd" sketch:type="MSPage">
        <g id="scratch--eProve-app-icons" sketch:type="MSArtboardGroup" transform="translate(-458.000000, -105.000000)">
            <g id="Group" sketch:type="MSLayerGroup" transform="translate(458.000000, 105.000000)">
                <g id="Imported-Layers-Copy-5" transform="translate(79.500000, 1.000000)" sketch:type="MSShapeGroup">
                    <path d="M10.7179541,37.5143389 C12.871785,37.5143389 14.8931039,36.9243184 16.6947585,35.834807 L16.78293,38.603324 C14.8492729,39.5112502 13.0032778,39.9196854 10.8061256,39.9196854 C4.38999275,39.9196854 0.610850242,35.5626923 0.610850242,28.1192765 C0.610850242,21.2669338 4.30233092,16.818885 9.9274686,16.818885 C14.0139372,16.818885 16.9149324,19.2242315 17.9255918,23.444904 C18.3205797,25.2154917 18.4525821,26.486062 18.4525821,29.0272027 L3.29116184,29.0272027 C3.51082609,34.2015925 6.36799034,37.5143389 10.7179541,37.5143389 L10.7179541,37.5143389 Z M15.7284396,26.7576504 C15.6402681,24.8970596 15.4206039,23.8533392 14.8931039,22.6732983 C13.9262754,20.4953281 12.0364493,19.2242315 9.79546618,19.2242315 C7.46631159,19.2242315 5.40065217,20.7216518 4.25799034,23.1727893 C3.77483092,24.2165097 3.55516667,25.1697006 3.37882367,26.7576504 L15.7284396,26.7576504 Z M35.0665386,9.14914553 L40.6035048,9.14914553 C44.0314903,9.14914553 45.9651473,9.55758073 47.5471377,10.5560364 C49.9639541,12.0534567 51.4144517,14.7767089 51.4144517,17.8173406 C51.4144517,20.5858576 50.184128,23.0364688 48.0302971,24.5796802 C46.0971498,25.9413063 44.1196618,26.440271 40.5596739,26.440271 L37.8793623,26.440271 L37.8793623,39.4201944 L35.0665386,39.4201944 L35.0665386,9.14914553 Z M40.5153333,23.8533392 C43.5483309,23.8533392 45.0421498,23.444904 46.4926473,22.2653895 C47.7668019,21.2216691 48.4701353,19.6326667 48.4701353,17.7720759 C48.4701353,15.5935793 47.5033068,13.7782533 45.7011425,12.6887419 C44.5146498,12.008192 43.1523237,11.7360773 40.6035048,11.7360773 L37.8793623,11.7360773 L37.8793623,23.8533392 L40.5153333,23.8533392 Z M56.1619517,26.213421 C56.1619517,24.7154744 56.0304589,19.7237225 55.8984565,17.4089054 L58.4472754,17.4089054 C58.4911063,18.9521168 58.4911063,19.3152872 58.4911063,19.7689872 C58.4911063,20.8127076 58.4911063,21.4479927 58.4034444,22.6285599 C58.9742657,20.9485017 59.1944396,20.4953281 59.7219396,19.7689872 C60.9522633,18.1352464 62.5342536,17.2273202 64.2482464,17.2273202 C64.7314058,17.2273202 65.1707343,17.2725849 66.049901,17.4541701 L66.049901,20.3137429 C65.3470773,20.0863666 64.9954106,20.0411019 64.4684203,20.0411019 C62.0505845,20.0411019 60.2927609,21.4479927 59.3697633,24.0801892 C58.9304348,25.3965506 58.8427729,26.3044768 58.8427729,29.4809026 L58.8427729,39.4201944 L56.1619517,39.4201944 L56.1619517,26.213421 Z M78.2241932,16.9094144 C84.156657,16.9094144 88.0234614,21.4479927 88.0234614,28.4371823 C88.0234614,35.3358423 84.0689952,39.9196854 78.1360217,39.9196854 C72.1153865,39.9196854 68.11607,35.3358423 68.11607,28.4829733 C68.11607,21.402728 72.0715556,16.9094144 78.2241932,16.9094144 Z M78.0921908,37.6959241 C82.223,37.6959241 85.2559976,33.7921046 85.2559976,28.4829733 C85.2559976,23.0817335 82.2668309,19.133702 78.1803623,19.133702 C73.8293792,19.133702 70.8845531,22.945413 70.8845531,28.5277117 C70.8845531,33.7921046 73.960872,37.6959241 78.0921908,37.6959241 Z M89.9148164,17.4089054 L92.7709614,17.4089054 L95.4084614,25.5781358 C98.1326039,33.9742162 98.572442,35.5174276 98.9241087,37.9680388 C99.2752657,35.6084834 100.198263,32.5220606 102.439246,25.5323448 L105.032406,17.4089054 L107.757058,17.4089054 L100.461758,39.4201944 L97.2977778,39.4201944 L89.9148164,17.4089054 Z M119.93135,37.5143389 C122.084671,37.5143389 124.10599,36.9243184 125.907645,35.834807 L125.995816,38.603324 C124.062159,39.5112502 122.216164,39.9196854 120.019522,39.9196854 C113.602879,39.9196854 109.823227,35.5626923 109.823227,28.1192765 C109.823227,21.2669338 113.515217,16.818885 119.140355,16.818885 C123.227333,16.818885 126.127819,19.2242315 127.138478,23.444904 C127.533976,25.2154917 127.665978,26.486062 127.665978,29.0272027 L112.504048,29.0272027 C112.723713,34.2015925 115.579857,37.5143389 119.93135,37.5143389 Z M124.941326,26.7576504 C124.853155,24.8970596 124.63349,23.8533392 124.10599,22.6732983 C123.139671,20.4953281 121.249845,19.2242315 119.008353,19.2242315 C116.679198,19.2242315 114.613539,20.7216518 113.470877,23.1727893 C112.987717,24.2165097 112.768053,25.1697006 112.59171,26.7576504 L124.941326,26.7576504 L124.941326,26.7576504 Z" id="Fill-1" fill="#555555"></path>
                    <path d="M25.7004831,0.609375953 L25.7004831,48.8526265" id="Stroke-7" stroke="#C8C8C8" stroke-width="1.3365"></path>
                </g>
                <g id="eleot-copy-+-Fill-1-+-Fill-2-Copy" sketch:type="MSShapeGroup">
                    <g id="Fill-1-+-Fill-2-Copy">
                        <g>
                            <g id="Fill-1-+-Fill-2" transform="translate(0.000000, 0.500000)">
                                <path d="M3.3933242,0 L47.2533057,0 C49.1262181,0 50.645617,1.5 50.645617,3.349 L50.645617,46.652 C50.645617,48.502 49.1262181,50 47.2533057,50 L3.3933242,50 C1.5193989,50 0,48.502 0,46.652 L0,3.349 C0,1.5 1.5193989,0 3.3933242,0" id="Fill-1" fill="#06BFD1" filter="url(#filter-1)"></path>
                                <path d="M14.7120372,33.533 C19.5933594,33.533 23.5640552,29.597 23.5640552,24.767 C23.5640552,24.15 23.4992275,23.549 23.3776756,22.965 C23.6410381,22.861 24.4787333,22.566 25.4795107,22.566 C26.1338652,22.566 26.9371207,22.908 27.1923798,23.041 L27.1994703,23.031 C27.083996,23.592 27.0222071,24.172 27.0222071,24.767 C27.0222071,29.597 30.9949287,33.533 35.875238,33.533 C40.3564518,33.533 44.0718886,30.217 44.6492602,25.929 L46.0136804,25.929 C46.5930778,25.929 46.6102977,25.209 46.6102977,24.32 C46.6102977,23.427 46.5930778,22.709 46.0136804,22.709 L44.4821263,22.709 C43.5431378,18.867 40.0394039,16 35.875238,16 C32.4292413,16 29.4350125,17.963 27.9723379,20.818 C27.4709362,20.595 26.4873787,20.224 25.4795107,20.224 C24.1667501,20.224 23.0849381,20.564 22.5825235,20.757 C21.1087066,17.935 18.1347365,16 14.7120372,16 C10.5458454,16 7.04616331,18.867 6.10514893,22.709 L4.60296989,22.709 C4.02458537,22.709 4.05193455,23.431 4.05193455,24.32 C4.05193455,25.209 4.02458537,25.929 4.60296989,25.929 L5.93801505,25.929 C6.51538663,30.217 10.2298105,33.533 14.7120372,33.533 L14.7120372,33.533 Z M14.7120372,17.05 C19.0119361,17.05 22.5055406,20.51 22.5055406,24.767 C22.5055406,29.025 19.0119361,32.484 14.7120372,32.484 C10.4141642,32.484 6.91954674,29.025 6.91954674,24.767 C6.91954674,20.51 10.4141642,17.05 14.7120372,17.05 L14.7120372,17.05 Z M35.875238,17.05 C40.1720981,17.05 43.6677285,20.51 43.6677285,24.767 C43.6677285,29.025 40.1720981,32.484 35.875238,32.484 C31.577365,32.484 28.0827475,29.025 28.0827475,24.767 C28.0827475,20.51 31.577365,17.05 35.875238,17.05 L35.875238,17.05 Z" id="Fill-2" fill="#FFFFFF"></path>
                            </g>
                        </g>
                    </g>
                </g>
                <g transform="translate(221.000000, 7.000000)" fill="#999999" sketch:type="MSShapeGroup">
                    <path d="M16.2529061,20.9287451 C16.1630663,19.0607843 15.9380221,18.0127059 15.3989834,16.8284314 C14.4107459,14.6411765 12.4787459,13.364902 10.1864972,13.364902 C7.80440884,13.364902 5.69272928,14.8684706 4.52392265,17.3290196 C4.02935912,18.377098 3.80520442,19.3340784 3.62552486,20.9287451 L16.2529061,20.9287451 L16.2529061,20.9287451 Z M11.1293702,31.7288235 C13.331779,31.7288235 15.3989834,31.1371373 17.2411436,30.0430588 L17.3318729,32.822902 C15.3545083,33.7338824 13.4669834,34.1442745 11.2200994,34.1442745 C4.65912707,34.1442745 0.794237569,29.7697647 0.794237569,22.2961176 C0.794237569,15.4150588 4.56839779,10.949451 10.3208122,10.949451 C14.5005856,10.949451 17.4661878,13.364902 18.4997901,17.6032157 C18.9045138,19.3800784 19.0397182,20.6563529 19.0397182,23.208 L3.53479558,23.208 C3.75983978,28.4032941 6.68096685,31.7288235 11.1293702,31.7288235 L11.1293702,31.7288235 Z" id="Fill-3"></path>
                    <path d="M23.5325967,0.833058824 L26.2731547,0.833058824 L26.2731547,33.6427843 L23.5325967,33.6427843 L23.5325967,0.833058824 Z" id="Fill-4"></path>
                    <path d="M46.9451989,20.9287451 C46.8553591,19.0607843 46.6303149,18.0127059 46.0912762,16.8284314 C45.1021492,14.6411765 43.1710387,13.364902 40.8779006,13.364902 C38.4967017,13.364902 36.3850221,14.8684706 35.2162155,17.3290196 C34.7216519,18.377098 34.4974972,19.3340784 34.3169282,20.9287451 L46.9451989,20.9287451 L46.9451989,20.9287451 Z M41.821663,31.7288235 C44.0240718,31.7288235 46.0912762,31.1371373 47.9334365,30.0430588 L48.0241657,32.822902 C46.0468011,33.7338824 44.1592762,34.1442745 41.9123923,34.1442745 C35.3514199,34.1442745 31.4865304,29.7697647 31.4865304,22.2961176 C31.4865304,15.4150588 35.2606906,10.949451 41.013105,10.949451 C45.1928785,10.949451 48.1584807,13.364902 49.1920829,17.6032157 C49.5968066,19.3800784 49.732011,20.6563529 49.732011,23.208 L34.2270884,23.208 C34.4521326,28.4032941 37.3732597,31.7288235 41.821663,31.7288235 L41.821663,31.7288235 Z" id="Fill-5"></path>
                    <path d="M63.7514641,31.9110196 C67.9757127,31.9110196 71.0774088,27.992 71.0774088,22.6605098 C71.0774088,17.2388235 68.0210773,13.2738039 63.8421934,13.2738039 C59.3929006,13.2738039 56.3819337,17.1008235 56.3819337,22.7065098 C56.3819337,27.992 59.5272155,31.9110196 63.7514641,31.9110196 L63.7514641,31.9110196 Z M63.8866685,11.040549 C69.9539669,11.040549 73.9078066,15.5972549 73.9078066,22.6154118 C73.9078066,29.5415686 69.8632376,34.1442745 63.7968287,34.1442745 C57.6396906,34.1442745 53.5506464,29.5415686 53.5506464,22.6605098 C53.5506464,15.5512549 57.5952155,11.040549 63.8866685,11.040549 L63.8866685,11.040549 Z" id="Fill-6"></path>
                    <path d="M80.4225249,24.8477647 L80.4225249,13.9114902 L75.9741215,13.9114902 L75.9741215,11.6331373 L80.4225249,11.6331373 L80.4225249,6.16454902 L83.1639724,5.16247059 L83.1639724,11.6331373 L88.2875083,11.6331373 L88.2875083,13.9114902 L83.1639724,13.9114902 L83.1639724,24.8477647 C83.1639724,28.4032941 83.209337,28.9489804 83.6585359,29.8148627 C84.1984641,30.8169412 85.1867017,31.3644314 86.579663,31.3644314 C87.2992707,31.3644314 87.7484696,31.2733333 88.6023923,30.9549412 L88.7367072,33.3694902 C87.6132652,33.6887843 87.0288619,33.7789804 86.0406243,33.7789804 C83.6585359,33.7789804 81.9062155,32.914 81.096768,31.3193333 C80.4678895,30.0430588 80.4225249,29.8148627 80.4225249,24.8477647" id="Fill-7"></path>
                </g>
                <text id="TM-Copy" sketch:type="MSTextLayer" font-family="Open Sans" font-size="5" font-weight="260" fill="#CCCCCC">
                    <tspan x="204.5" y="14.1499023">TM</tspan>
                </text>
            </g>
        </g>
    </g>
</svg>