<?xml version="1.0" encoding="utf-8"?>
<!-- Generator: Adobe Illustrator 16.0.0, SVG Export Plug-In . SVG Version: 6.00 Build 0)  -->
<!DOCTYPE svg PUBLIC "-//W3C//DTD SVG 1.1//EN" "http://www.w3.org/Graphics/SVG/1.1/DTD/svg11.dtd">
<svg version="1.1" id="Layer_1" xmlns="http://www.w3.org/2000/svg" xmlns:xlink="http://www.w3.org/1999/xlink" x="0px" y="0px"
	 width="365px" height="70px" viewBox="0 0 365 70" enable-background="new 0 0 365 70" xml:space="preserve">
<g>
	<g id="Rectangle-38-Copy_5_">
		<path fill="#06BFD1" d="M10.733,6.918h48.495c2.072,0,3.752,1.68,3.752,3.75v48.5c0,2.072-1.68,3.75-3.752,3.75H10.733
			c-2.073,0-3.753-1.678-3.753-3.75v-48.5C6.98,8.598,8.66,6.918,10.733,6.918z"/>
	</g>
	<path fill="#FFFFFF" d="M23.557,45.641c5.397,0,9.789-4.408,9.789-9.818c0-0.691-0.072-1.365-0.207-2.018
		c0.291-0.117,1.217-0.447,2.324-0.447c0.723,0,1.611,0.383,1.894,0.531l0.007-0.01c-0.127,0.627-0.195,1.277-0.195,1.943
		c0,5.41,4.394,9.818,9.789,9.818c4.955,0,9.062-3.715,9.701-8.516h1.509c0.641,0,0.659-0.809,0.659-1.803
		c0-1-0.019-1.805-0.659-1.805h-1.693c-1.038-4.303-4.912-7.514-9.517-7.514c-3.81,0-7.12,2.197-8.738,5.396
		c-0.555-0.25-1.643-0.666-2.756-0.666c-1.451,0-2.648,0.381-3.204,0.598c-1.629-3.16-4.917-5.328-8.702-5.328
		c-4.606,0-8.476,3.211-9.516,7.514h-1.662c-0.639,0-0.609,0.809-0.609,1.805c0,0.994-0.029,1.803,0.609,1.803h1.477
		C14.494,41.926,18.601,45.641,23.557,45.641L23.557,45.641z M23.557,27.18c4.754,0,8.617,3.875,8.617,8.643
		c0,4.77-3.863,8.643-8.617,8.643c-4.752,0-8.616-3.873-8.616-8.643C14.94,31.055,18.805,27.18,23.557,27.18L23.557,27.18z
		 M46.957,27.18c4.751,0,8.616,3.875,8.616,8.643c0,4.77-3.865,8.643-8.616,8.643c-4.752,0-8.616-3.873-8.616-8.643
		C38.341,31.055,42.205,27.18,46.957,27.18L46.957,27.18z"/>
</g>
<g>
	<g>
		<path fill="#999999" d="M267.456,46.395c2.476,0,4.8-0.656,6.871-1.869l0.102,3.082c-2.223,1.01-4.345,1.465-6.871,1.465
			c-7.376,0-11.721-4.85-11.721-13.136c0-7.629,4.243-12.58,10.71-12.58c4.699,0,8.033,2.678,9.195,7.377
			c0.455,1.97,0.606,3.385,0.606,6.214h-17.431C259.171,42.708,262.455,46.395,267.456,46.395z M273.216,34.421
			c-0.101-2.071-0.354-3.233-0.96-4.547c-1.111-2.425-3.283-3.84-5.86-3.84c-2.678,0-5.052,1.667-6.365,4.396
			c-0.557,1.162-0.809,2.223-1.011,3.991H273.216z"/>
		<path fill="#999999" d="M281.4,12.141h3.081v36.376H281.4V12.141z"/>
		<path fill="#999999" d="M301.961,46.395c2.476,0,4.8-0.656,6.871-1.869l0.102,3.082c-2.223,1.01-4.345,1.465-6.871,1.465
			c-7.376,0-11.721-4.85-11.721-13.136c0-7.629,4.243-12.58,10.71-12.58c4.699,0,8.033,2.678,9.195,7.377
			c0.455,1.97,0.606,3.385,0.606,6.214h-17.431C293.676,42.708,296.96,46.395,301.961,46.395z M307.721,34.421
			c-0.101-2.071-0.354-3.233-0.96-4.547c-1.111-2.425-3.283-3.84-5.86-3.84c-2.678,0-5.052,1.667-6.365,4.396
			c-0.557,1.162-0.809,2.223-1.011,3.991H307.721z"/>
		<path fill="#999999" d="M326.766,23.458c6.821,0,11.267,5.052,11.267,12.832c0,7.68-4.547,12.782-11.367,12.782
			c-6.922,0-11.519-5.103-11.519-12.731C315.146,28.459,319.693,23.458,326.766,23.458z M326.614,46.597
			c4.749,0,8.235-4.345,8.235-10.256c0-6.012-3.436-10.407-8.134-10.407c-5.002,0-8.387,4.243-8.387,10.458
			C318.329,42.252,321.865,46.597,326.614,46.597z"/>
		<path fill="#999999" d="M345.356,38.766V26.641h-5.001v-2.526h5.001v-6.062l3.082-1.111v7.174h5.76v2.526h-5.76v12.125
			c0,3.941,0.051,4.547,0.556,5.507c0.606,1.111,1.718,1.718,3.284,1.718c0.809,0,1.313-0.101,2.273-0.454l0.151,2.678
			c-1.263,0.354-1.92,0.454-3.031,0.454c-2.678,0-4.647-0.96-5.558-2.728C345.407,44.526,345.356,44.273,345.356,38.766z"/>
	</g>
</g>
<g>
	<g>
		<g>
			<g>
				<path fill="#555555" d="M103.103,46.358c2.475,0,4.798-0.657,6.869-1.869l0.101,3.081c-2.222,1.01-4.343,1.465-6.868,1.465
					c-7.374,0-11.718-4.849-11.718-13.132c0-7.626,4.242-12.576,10.707-12.576c4.697,0,8.031,2.677,9.192,7.374
					c0.455,1.97,0.606,3.384,0.606,6.212H94.567C94.819,42.671,98.103,46.358,103.103,46.358z M108.86,34.388
					c-0.101-2.071-0.354-3.232-0.96-4.545c-1.11-2.424-3.282-3.839-5.858-3.839c-2.677,0-5.051,1.667-6.363,4.394
					c-0.556,1.162-0.809,2.223-1.011,3.99H108.86z"/>
				<path fill="#555555" d="M131.082,14.791h6.363c3.939,0,6.162,0.455,7.98,1.566c2.777,1.667,4.444,4.697,4.444,8.081
					c0,3.081-1.414,5.808-3.889,7.525c-2.223,1.515-4.495,2.071-8.586,2.071h-3.081v14.445h-3.232V14.791z M137.345,31.155
					c3.485,0,5.202-0.455,6.869-1.768c1.465-1.162,2.272-2.93,2.272-5c0-2.424-1.111-4.444-3.182-5.657
					c-1.364-0.757-2.93-1.061-5.859-1.061h-3.131v13.485H137.345z"/>
				<path fill="#555555" d="M155.325,33.782c0-1.667-0.151-7.223-0.304-9.798h2.93c0.051,1.717,0.051,2.121,0.051,2.626
					c0,1.162,0,1.869-0.102,3.182c0.657-1.869,0.909-2.374,1.516-3.182c1.414-1.818,3.232-2.829,5.202-2.829
					c0.556,0,1.061,0.05,2.071,0.252v3.182c-0.809-0.252-1.213-0.303-1.818-0.303c-2.778,0-4.799,1.566-5.859,4.495
					c-0.505,1.465-0.605,2.475-0.605,6.01v11.061h-3.081V33.782z"/>
				<path fill="#555555" d="M180.679,23.428c6.818,0,11.263,5.051,11.263,12.829c0,7.677-4.545,12.778-11.363,12.778
					c-6.92,0-11.516-5.101-11.516-12.728C169.062,28.428,173.608,23.428,180.679,23.428z M180.527,46.56
					c4.748,0,8.232-4.343,8.232-10.252c0-6.011-3.435-10.405-8.131-10.405c-5.001,0-8.385,4.243-8.385,10.455
					C172.244,42.216,175.779,46.56,180.527,46.56z"/>
				<path fill="#555555" d="M194.112,23.983h3.283l3.03,9.091c3.132,9.344,3.637,11.061,4.041,13.788
					c0.403-2.626,1.465-6.061,4.04-13.839l2.98-9.041h3.131l-8.384,24.496h-3.637L194.112,23.983z"/>
				<path fill="#555555" d="M228.608,46.358c2.475,0,4.798-0.657,6.869-1.869l0.101,3.081c-2.222,1.01-4.343,1.465-6.868,1.465
					c-7.374,0-11.718-4.849-11.718-13.132c0-7.626,4.242-12.576,10.707-12.576c4.697,0,8.031,2.677,9.192,7.374
					c0.455,1.97,0.606,3.384,0.606,6.212h-17.425C220.325,42.671,223.608,46.358,228.608,46.358z M234.366,34.388
					c-0.101-2.071-0.354-3.232-0.96-4.545c-1.11-2.424-3.282-3.839-5.858-3.839c-2.677,0-5.051,1.667-6.363,4.394
					c-0.556,1.162-0.809,2.223-1.011,3.99H234.366z"/>
			</g>
		</g>
		<line fill="none" stroke="#C8C8C8" stroke-width="1.4888" x1="121.076" y1="5.292" x2="121.076" y2="58.977"/>
		<g enable-background="new    ">
			<path fill="#CCCCCC" d="M236.741,21.467h-0.396v-3.05h-1.077v-0.352h2.55v0.352h-1.077V21.467z"/>
			<path fill="#CCCCCC" d="M239.837,21.467l-1.154-3.016h-0.019c0.021,0.239,0.032,0.523,0.032,0.852v2.164h-0.365v-3.402h0.596
				l1.077,2.806h0.019l1.087-2.806h0.591v3.402h-0.396v-2.192c0-0.251,0.011-0.524,0.032-0.819h-0.019l-1.163,3.011H239.837z"/>
		</g>
	</g>
</g>
</svg>
