<?xml version="1.0" encoding="UTF-8" standalone="no"?>
<svg width="116px" height="28px" viewBox="0 0 116 28" version="1.1" xmlns="http://www.w3.org/2000/svg" xmlns:xlink="http://www.w3.org/1999/xlink" xmlns:sketch="http://www.bohemiancoding.com/sketch/ns">
    <!-- Generator: Sketch 3.3.2 (12043) - http://www.bohemiancoding.com/sketch -->
    <title>Imported Layers Copy 7 + TM Copy</title>
    <desc>Created with Sketch.</desc>
    <defs></defs>
    <g id="week5---landing" stroke="none" stroke-width="1" fill="none" fill-rule="evenodd" sketch:type="MSPage">
        <g id="landing-02a-surveys-long" sketch:type="MSArtboardGroup" transform="translate(-1143.000000, -29.000000)">
            <g id="Imported-Layers-Copy-7-+-TM-Copy" sketch:type="MSLayerGroup" transform="translate(1143.000000, 29.000000)">
                <g id="Imported-Layers-Copy-7" sketch:type="MSShapeGroup">
                    <path d="M42.332086,21.4299355 C43.6044301,21.4299355 44.7984946,21.0924301 45.8627957,20.4692043 L45.9148817,22.0528602 C44.7726022,22.5722151 43.6821075,22.8058495 42.384172,22.8058495 C38.5939355,22.8058495 36.3614624,20.3135484 36.3614624,16.0557419 C36.3614624,12.136043 38.5421505,9.59165591 41.8651183,9.59165591 C44.2791398,9.59165591 45.9928602,10.9675699 46.5898925,13.3818925 C46.8232258,14.3947097 46.9012043,15.1215054 46.9012043,16.5750968 L37.9448172,16.5750968 C38.0745806,19.5349677 39.7624086,21.4299355 42.332086,21.4299355 L42.332086,21.4299355 Z M45.291957,15.2768602 C45.239871,14.2125591 45.1101075,13.6155269 44.7984946,12.9405161 C44.2273548,11.6946667 43.1109677,10.9675699 41.7871398,10.9675699 C40.4112258,10.9675699 39.1909677,11.824129 38.515957,13.2262366 C38.2305376,13.8232688 38.1007742,14.3685161 37.9966022,15.2768602 L45.291957,15.2768602 Z M56.7156559,5.2043871 L59.9865376,5.2043871 C62.0115699,5.2043871 63.1538495,5.43802151 64.0883871,6.00916129 C65.516086,6.86572043 66.3729462,8.42348387 66.3729462,10.1627957 C66.3729462,11.7464516 65.6461505,13.1482581 64.3738065,14.0310108 C63.231828,14.8098925 62.0636559,15.0953118 59.9606452,15.0953118 L58.3772903,15.0953118 L58.3772903,22.520129 L56.7156559,22.520129 L56.7156559,5.2043871 Z M59.9344516,13.6155269 C61.7261505,13.6155269 62.6086022,13.3818925 63.4654624,12.7071828 C64.2181505,12.1101505 64.6336344,11.2012043 64.6336344,10.1369032 C64.6336344,8.89075269 64.0624946,7.85234409 62.9978925,7.22911828 C62.2969892,6.83982796 61.4922151,6.68417204 59.9865376,6.68417204 L58.3772903,6.68417204 L58.3772903,13.6155269 L59.9344516,13.6155269 Z M69.1774624,14.9655484 C69.1774624,14.1086882 69.0997849,11.2532903 69.0218065,9.92916129 L70.5274839,9.92916129 C70.5533763,10.811914 70.5533763,11.0196559 70.5533763,11.2791828 C70.5533763,11.8762151 70.5533763,12.2396129 70.5015914,12.9149247 C70.8387957,11.9538925 70.9688602,11.6946667 71.2804731,11.2791828 C72.0072688,10.3446452 72.9418065,9.82529032 73.9543226,9.82529032 C74.2397419,9.82529032 74.4992688,9.8511828 75.0186237,9.95505376 L75.0186237,11.5907957 C74.6034409,11.4607312 74.3956989,11.4348387 74.0843871,11.4348387 C72.656086,11.4348387 71.6176774,12.2396129 71.0724301,13.7452903 C70.8129032,14.4982796 70.7611183,15.0176344 70.7611183,16.8346237 L70.7611183,22.520129 L69.1774624,22.520129 L69.1774624,14.9655484 Z M82.2104086,9.64344086 C85.7149247,9.64344086 87.9991828,12.2396129 87.9991828,16.2375914 C87.9991828,20.1837849 85.6631398,22.8058495 82.1583226,22.8058495 C78.6017204,22.8058495 76.2391828,20.1837849 76.2391828,16.2637849 C76.2391828,12.2137204 78.575828,9.64344086 82.2104086,9.64344086 Z M82.1324301,21.5338065 C84.5726452,21.5338065 86.3643441,19.3007312 86.3643441,16.2637849 C86.3643441,13.1741505 84.5985376,10.9157849 82.1845161,10.9157849 C79.6142366,10.9157849 77.8746237,13.096172 77.8746237,16.2893763 C77.8746237,19.3007312 79.691914,21.5338065 82.1324301,21.5338065 Z M89.1164731,9.92916129 L90.8036989,9.92916129 L92.3617634,14.6021505 C93.9710108,19.4049032 94.2308387,20.2876559 94.4385806,21.6894624 C94.6460215,20.3397419 95.1912688,18.5742366 96.5150968,14.575957 L98.0469677,9.92916129 L99.6565161,9.92916129 L95.3469247,22.520129 L93.4778495,22.520129 L89.1164731,9.92916129 Z M106.848301,21.4299355 C108.120344,21.4299355 109.314409,21.0924301 110.37871,20.4692043 L110.430796,22.0528602 C109.288516,22.5722151 108.198022,22.8058495 106.900387,22.8058495 C103.109849,22.8058495 100.877075,20.3135484 100.877075,16.0557419 C100.877075,12.136043 103.058065,9.59165591 106.381032,9.59165591 C108.795355,9.59165591 110.508774,10.9675699 111.105806,13.3818925 C111.339441,14.3947097 111.417419,15.1215054 111.417419,16.5750968 L102.460731,16.5750968 C102.590495,19.5349677 104.27772,21.4299355 106.848301,21.4299355 Z M109.807871,15.2768602 C109.755785,14.2125591 109.626022,13.6155269 109.314409,12.9405161 C108.74357,11.6946667 107.627183,10.9675699 106.303054,10.9675699 C104.92714,10.9675699 103.706882,11.824129 103.031871,13.2262366 C102.746452,13.8232688 102.616688,14.3685161 102.512516,15.2768602 L109.807871,15.2768602 L109.807871,15.2768602 Z" id="Fill-1" fill="#FFFFFF"></path>
                    <path d="M51.1827957,0.31944086 L51.1827957,27.9156989" id="Stroke-7" stroke="#FFFFFF" stroke-width="0.800496675"></path>
                    <path d="M19.1095484,18.8834409 C19.3955699,18.7166452 19.6295054,18.3092903 19.6295054,17.9778065 L19.6295054,11.8774194 C19.6295054,11.5462366 19.864043,11.1397849 20.1512688,10.9741935 L23.5142796,9.03255914 C23.8012043,8.86696774 24.0357419,9.00245161 24.0357419,9.33363441 L24.0357419,20.648043 C24.0357419,20.9795269 23.8015054,21.3865806 23.5151828,21.5527742 L13.3144516,27.480043 C13.027828,27.6459355 12.7932903,27.5113548 12.7932903,27.180172 L12.7932903,23.1701505 C12.7932903,22.8389677 13.027828,22.4316129 13.3138495,22.2645161 L19.1095484,18.8834409 Z M12.5464086,5.88301075 C12.2615914,5.71470968 11.7931183,5.71169892 11.5061935,5.87668817 L5.64937634,9.24451613 C5.36245161,9.40950538 4.89307527,9.40860215 4.60675269,9.2424086 L1.24765591,7.29354839 C0.961032258,7.12705376 0.961032258,6.85548387 1.24825806,6.6895914 L11.5019785,0.754494624 C11.7886022,0.588602151 12.2576774,0.588602151 12.5446022,0.754193548 L22.8070538,6.68658065 C23.0936774,6.85217204 23.0930753,7.12283871 22.8061505,7.28782796 L19.3290323,9.28516129 C19.0418065,9.45015054 18.5736344,9.44713978 18.2885161,9.27853763 L12.5464086,5.88301075 Z M11.5417204,7.49797849 C11.8304516,7.336 12.299828,7.34172043 12.5846452,7.51062366 L17.0730753,10.1748387 C17.3578925,10.3437419 17.3548817,10.6147097 17.0661505,10.7769892 L12.5144946,13.331914 C12.2254624,13.4938925 11.7539785,13.4926882 11.4661505,13.3292043 L6.86602151,10.7128602 C6.57819355,10.5490753 6.5787957,10.2826237 6.86782796,10.1203441 L11.5417204,7.49797849 Z M12.7932903,15.3855484 C12.7932903,15.0543656 13.028129,14.6476129 13.3150538,14.4823226 L17.8350968,11.8723011 C18.1220215,11.7070108 18.3568602,11.8421935 18.3568602,12.1733763 L18.3568602,17.3931183 C18.3568602,17.724 18.1220215,18.1307527 17.8350968,18.2963441 L13.3150538,20.9063656 C13.028129,21.0713548 12.7932903,20.936172 12.7932903,20.6052903 L12.7932903,15.3855484 Z M4.93010753,18.8834409 C4.64408602,18.7166452 4.40984946,18.3092903 4.40984946,17.9778065 L4.40984946,11.8774194 C4.40984946,11.5462366 4.17531183,11.1397849 3.88868817,10.9741935 L0.525376344,9.03255914 C0.238451613,8.86696774 0.00391397849,9.00245161 0.00391397849,9.33363441 L0.00391397849,20.648043 C0.00391397849,20.9795269 0.238150538,21.3865806 0.524473118,21.5527742 L10.7255054,27.480043 C11.0115269,27.6459355 11.2463656,27.5113548 11.2463656,27.180172 L11.2463656,23.1701505 C11.2463656,22.8389677 11.011828,22.4316129 10.7258065,22.2645161 L4.93010753,18.8834409 Z" id="Fill-8" fill="#FFFFFF"></path>
                </g>
                <text id="TM" sketch:type="MSTextLayer" font-family="Open Sans" font-size="3.5" font-weight="526" fill="#CCCCCC">
                    <tspan x="110.5" y="7.75">TM</tspan>
                </text>
            </g>
        </g>
    </g>
</svg>