<?xml version="1.0" encoding="utf-8"?>
<!-- Generator: Adobe Illustrator 17.1.0, SVG Export Plug-In . SVG Version: 6.00 Build 0)  -->
<!DOCTYPE svg PUBLIC "-//W3C//DTD SVG 1.0//EN" "http://www.w3.org/TR/2001/REC-SVG-20010904/DTD/svg10.dtd">
<svg version="1.0" id="Layer_1" xmlns:sketch="http://www.bohemiancoding.com/sketch/ns"
	 xmlns="http://www.w3.org/2000/svg" xmlns:xlink="http://www.w3.org/1999/xlink" x="0px" y="0px" viewBox="0 0 249 81"
	 enable-background="new 0 0 249 81" xml:space="preserve">
<title>Stroke 1 + e Prove + Path 647 + Group + Group Copy + Fill 1 + Stroke 7 + Fill 13</title>
<desc>Created with Sketch.</desc>
<g id="week5---landing" sketch:type="MSPage">
	<g id="landing-01a-eProve-long" transform="translate(-35.000000, -27.000000)" sketch:type="MSArtboardGroup">
		<rect id="Rectangle-76" x="0.2" sketch:type="MSShapeGroup" fill="none" width="1313" height="671">
		</rect>
		<rect id="Rectangle-69" x="0.2" sketch:type="MSShapeGroup" fill="none" width="1313" height="204">
		</rect>
		
			<g id="Stroke-1-_x2B_-e-Prove-_x2B_-Path-647-_x2B_-Group-_x2B_-Group-Copy-_x2B_-Fill-1-_x2B_-Stroke-7-_x2B_-Fill-13" transform="translate(40.156250, 27.000000)" sketch:type="MSLayerGroup">
			
				<g id="Stroke-1-_x2B_-e-Prove-_x2B_-Path-647-_x2B_-Group" transform="translate(0.343750, 7.000000)" sketch:type="MSShapeGroup">
				<g id="Path-647-_x2B_-Group" transform="translate(0.000000, 0.000000)">
					<path id="Path-647" fill="#FFFFFF" d="M33.8,1.3c-1.9-1.2-5-1.2-6.9,0l-23.5,14C1.6,16.4,0,19.1,0,21.3v26.9
						c0,2.2,1.5,4.9,3.5,6L26,67.3c1.9,1.1,5,1.1,7,0.1l23.5-12.8c1.9-1.1,3.5-3.7,3.5-5.9l0-27.2c0-2.2-1.5-4.9-3.4-6.1L33.8,1.3z"
						/>
				</g>
			</g>
			<g id="Group-Copy" transform="translate(3.250000, 11.753086)" sketch:type="MSShapeGroup">
				<g id="Group" transform="translate(0.849998, 0.000000)">
					<path id="Fill-8-Copy" fill="#F4AA34" d="M42.3,39.6c0.6-0.4,1.1-1.3,1.1-2V24.1c0-0.7,0.5-1.6,1.1-2l7.4-4.3
						c0.6-0.4,1.1-0.1,1.1,0.7v25c0,0.7-0.5,1.6-1.1,2L29.6,58.6c-0.6,0.4-1.1,0.1-1.1-0.7v-8.8c0-0.7,0.5-1.6,1.1-2L42.3,39.6"/>
					<path id="Fill-9-Copy" fill="#3793D2" d="M27.2,11.6c-0.6-0.4-1.7-0.4-2.3,0L12.1,19c-0.6,0.4-1.7,0.4-2.3,0l-7.4-4.3
						c-0.6-0.4-0.6-1,0-1.3L24.9,0.3c0.6-0.4,1.7-0.4,2.3,0l22.5,13.1c0.6,0.4,0.6,1,0,1.3l-7.6,4.4c-0.6,0.4-1.7,0.4-2.3,0
						L27.2,11.6"/>
					<path id="Fill-10-Copy" fill="#DD6666" d="M25.4,15c0.6-0.4,1.7-0.3,2.3,0l9.8,5.9c0.6,0.4,0.6,1,0,1.3l-10,5.6
						c-0.6,0.4-1.7,0.4-2.3,0l-10.1-5.8c-0.6-0.4-0.6-0.9,0-1.3L25.4,15"/>
					<path id="Fill-11-Copy" fill="#6FC96F" d="M28.5,32.5c0-0.7,0.5-1.6,1.1-2l9.9-5.8c0.6-0.4,1.1-0.1,1.1,0.7v11.5
						c0,0.7-0.5,1.6-1.1,2l-9.9,5.8C29,45,28.5,44.7,28.5,44V32.5"/>
					<path id="Fill-12-Copy" fill="#06BFD1" d="M10.8,39.6c-0.6-0.4-1.1-1.3-1.1-2V24.1c0-0.7-0.5-1.6-1.1-2l-7.4-4.3
						C0.5,17.5,0,17.8,0,18.5v25c0,0.7,0.5,1.6,1.1,2l22.4,13.1c0.6,0.4,1.1,0.1,1.1-0.7v-8.8c0-0.7-0.5-1.6-1.1-2L10.8,39.6"/>
				</g>
			</g>
			<g id="Fill-1-_x2B_-Stroke-7-_x2B_-Fill-13" transform="translate(88.000000, 0.000000)" sketch:type="MSShapeGroup">
				<path id="Fill-1" fill="#555555" d="M12.2,54.6c2.6,0,5-0.7,7.1-2l0.1,3.2c-2.3,1.1-4.5,1.5-7.1,1.5c-7.6,0-12.1-5.1-12.1-13.7
					c0-8,4.4-13.2,11.1-13.2c4.9,0,8.3,2.8,9.5,7.7c0.5,2.1,0.6,3.5,0.6,6.5h-18C3.6,50.8,7,54.6,12.2,54.6L12.2,54.6z M18.1,42.1
					c-0.1-2.2-0.4-3.4-1-4.8c-1.1-2.5-3.4-4-6.1-4c-2.8,0-5.2,1.7-6.6,4.6c-0.6,1.2-0.8,2.3-1,4.2H18.1z M41.1,21.6h6.6
					c4.1,0,6.4,0.5,8.3,1.6c2.9,1.7,4.6,4.9,4.6,8.5c0,3.2-1.5,6.1-4,7.9c-2.3,1.6-4.6,2.2-8.9,2.2h-3.2v15.1h-3.3V21.6z M47.6,38.7
					c3.6,0,5.4-0.5,7.1-1.8c1.5-1.2,2.4-3.1,2.4-5.2c0-2.5-1.1-4.6-3.3-5.9c-1.4-0.8-3-1.1-6.1-1.1h-3.2v14.1H47.6z M66.2,41.5
					c0-1.7-0.2-7.6-0.3-10.2h3C69,33,69,33.4,69,34c0,1.2,0,2-0.1,3.3c0.7-2,0.9-2.5,1.6-3.3c1.5-1.9,3.3-3,5.4-3
					c0.6,0,1.1,0.1,2.1,0.3v3.3c-0.8-0.3-1.3-0.3-1.9-0.3c-2.9,0-5,1.6-6.1,4.7c-0.5,1.5-0.6,2.6-0.6,6.3v11.6h-3.2V41.5z
					 M92.4,30.6c7.1,0,11.6,5.3,11.6,13.4c0,8-4.7,13.4-11.8,13.4c-7.2,0-11.9-5.3-11.9-13.3C80.4,35.9,85.1,30.6,92.4,30.6z
					 M92.3,54.8c4.9,0,8.5-4.5,8.5-10.7c0-6.3-3.6-10.9-8.4-10.9c-5.2,0-8.7,4.4-8.7,10.9C83.7,50.3,87.4,54.8,92.3,54.8z
					 M106.3,31.2h3.4l3.1,9.5c3.2,9.8,3.8,11.6,4.2,14.4c0.4-2.7,1.5-6.3,4.2-14.5l3.1-9.5h3.2l-8.7,25.6h-3.8L106.3,31.2z
					 M142,54.6c2.6,0,5-0.7,7.1-2l0.1,3.2c-2.3,1.1-4.5,1.5-7.1,1.5c-7.6,0-12.1-5.1-12.1-13.7c0-8,4.4-13.2,11.1-13.2
					c4.9,0,8.3,2.8,9.5,7.7c0.5,2.1,0.6,3.5,0.6,6.5h-18C133.4,50.8,136.8,54.6,142,54.6z M148,42.1c-0.1-2.2-0.4-3.4-1-4.8
					c-1.1-2.5-3.4-4-6.1-4c-2.8,0-5.2,1.7-6.6,4.6c-0.6,1.2-0.8,2.3-1,4.2H148L148,42.1z"/>
				<path id="Stroke-7" fill="none" stroke="#DDDDDD" d="M30.9,11.7v56.2"/>
				<path id="Fill-13" fill="#CCCCCC" d="M85.8,1.6h1.3l4.7,11.5h-1.2L89.4,10h-5.8l-1.2,3.1h-1.1L85.8,1.6L85.8,1.6z M88.9,9
					l-2.1-5.2c-0.2-0.5-0.3-0.9-0.4-1.2C86.3,3,86.3,3,86,3.8L83.9,9H88.9z M92.5,8.9c0-2.6,1.3-4.3,3.3-4.3c1.2,0,2.2,0.6,2.8,1.7
					c0-0.5-0.1-1-0.1-1.5V0.6h1v9.3c0,1.6,0,1.9,0.1,3.2h-1c0-0.3,0-0.9,0-1.7c-0.4,1.1-1.5,1.9-2.8,1.9
					C93.9,13.2,92.5,11.5,92.5,8.9z M98.6,8.9c0-2.1-1.1-3.5-2.7-3.5c-1.4,0-2.4,1.3-2.4,3.4c0,2.2,0.9,3.5,2.4,3.5
					C97.6,12.4,98.6,11,98.6,8.9z M101.2,4.7h1.1l1,3.1c1.1,3.2,1.2,3.8,1.4,4.7c0.1-0.9,0.5-2.1,1.4-4.7l1-3.1h1.1l-2.8,8.4h-1.2
					L101.2,4.7z M113.4,8c0.3,0,0.4,0,0.8,0c0-0.7,0-0.7-0.1-1c-0.2-1-0.9-1.5-2-1.5c-0.8,0-1.4,0.2-2.3,0.7l0-1.1
					c0.8-0.4,1.7-0.6,2.5-0.6c1.2,0,2.2,0.5,2.6,1.5c0.2,0.5,0.3,1,0.3,2.2l0,1.4c0,1.3,0.1,2.5,0.1,3.4h-1c0-0.3,0-0.4,0-0.6
					c0-0.3,0-0.5,0-0.9c-0.6,1.2-1.5,1.7-2.8,1.7c-1.6,0-2.7-1-2.7-2.4C108.9,9,110.5,8,113.4,8z M111.7,12.4c1.1,0,2-0.6,2.3-1.6
					c0.1-0.4,0.2-0.9,0.2-1.6V8.9c0,0-0.1,0-0.3,0h-0.4c-2.4,0-3.6,0.7-3.6,2C109.9,11.7,110.7,12.4,111.7,12.4z M117.9,7.9
					c0-0.8,0-1,0-1c0-0.2-0.1-1.5-0.1-2.1h1c0,0.4,0,0.7,0,1c0,0.3,0,0.4,0,0.7c0.5-1.1,1.6-1.8,2.8-1.8c1.2,0,2.2,0.6,2.6,1.7
					c0.2,0.5,0.3,1.1,0.3,2.6v4.2h-1V8.9c0-1.4-0.1-1.9-0.3-2.3c-0.3-0.7-0.9-1.1-1.7-1.1c-0.9,0-1.7,0.5-2.1,1.3
					c-0.3,0.6-0.4,1.1-0.4,2.1v4.2h-1V7.9z M130.5,4.7c0.7,0,1.3,0.1,2,0.3L132.4,6c-0.7-0.3-1.2-0.4-1.8-0.4
					c-1.9,0-3.1,1.3-3.1,3.2c0,1.9,1.3,3.4,3,3.4c0.7,0,1.4-0.2,2-0.5l0.1,1c-0.6,0.2-1.3,0.3-2.1,0.3c-2.4,0-4.1-1.8-4.1-4.3
					S128,4.7,130.5,4.7z M134.3,1.6h5.6v1h-4.5v4.1h4.3v1h-4.3v4.4h4.7v1h-5.8V1.6z M142.6,1.6h1.6c2.4,0,3.4,0.2,4.4,0.7
					c1.6,0.9,2.6,2.8,2.6,5.1c0,2.1-0.9,3.9-2.5,4.8c-1,0.6-2.4,0.9-4.3,0.9h-1.8V1.6z M144.8,12.1c3.3,0,5.2-1.8,5.2-4.8
					c0-1.9-0.7-3.4-2-4.1c-0.8-0.5-1.7-0.7-3.3-0.7h-1.1v9.6H144.8z M153.9,0.6c1,0,1.9,0.8,1.9,1.9c0,1-0.9,1.9-1.9,1.9
					c-1,0-1.9-0.8-1.9-1.8C151.9,1.4,152.8,0.6,153.9,0.6z M153.8,4c0.9,0,1.6-0.7,1.6-1.6c0-0.9-0.7-1.6-1.6-1.6
					c-0.9,0-1.6,0.7-1.6,1.6C152.2,3.3,152.9,4,153.8,4L153.8,4z M153.1,1.4h0.6c0.3,0,0.4,0,0.5,0.1c0.2,0.1,0.4,0.3,0.4,0.5
					c0,0.2-0.2,0.4-0.4,0.5c0.1,0,0.2,0.1,0.2,0.3l0.4,0.8h-0.4l-0.3-0.6c-0.1-0.2-0.2-0.3-0.4-0.3h-0.2v0.9h-0.4V1.4L153.1,1.4z
					 M153.7,2.3c0.4,0,0.5-0.1,0.5-0.3c0-0.2-0.1-0.3-0.5-0.3h-0.2v0.6H153.7L153.7,2.3z"/>
			</g>
		</g>
	</g>
</g>
</svg>
