<?xml version="1.0" encoding="UTF-8" standalone="no"?>
<svg width="50px" height="50px" viewBox="0 0 50 50" version="1.1" xmlns="http://www.w3.org/2000/svg" xmlns:xlink="http://www.w3.org/1999/xlink" xmlns:sketch="http://www.bohemiancoding.com/sketch/ns">
    <!-- Generator: Sketch 3.3.2 (12043) - http://www.bohemiancoding.com/sketch -->
    <title>Slice 1</title>
    <desc>Created with Sketch.</desc>
    <defs></defs>
    <g id="Page-1" stroke="none" stroke-width="1" fill="none" fill-rule="evenodd" sketch:type="MSPage">
        <g id="icon-analytics" sketch:type="MSLayerGroup">
            <path d="M3.312,0 L46.688,0 C48.516,0 50,1.483 50,3.312 L50,46.689 C50,48.517 48.516,50 46.688,50 L3.312,50 C1.483,50 0,48.517 0,46.689 L0,3.312 C0,1.483 1.483,0 3.312,0" id="Fill-1" fill="#F4AA34" sketch:type="MSShapeGroup"></path>
            <path d="M34.916,29.852 C34.916,27.918 33.377,26.351 31.48,26.351 C29.582,26.351 28.043,27.918 28.043,29.852 C28.043,31.787 29.582,33.354 31.48,33.354 C33.377,33.354 34.916,31.787 34.916,29.852 L34.916,29.852 Z M44.142,15.573 C44.142,13.639 42.603,12.071 40.705,12.071 C38.807,12.071 37.269,13.639 37.269,15.573 C37.269,17.507 38.807,19.073 40.705,19.073 C42.603,19.073 44.142,17.507 44.142,15.573 L44.142,15.573 Z M22.701,21.313 C22.701,19.377 21.164,17.81 19.267,17.81 C17.369,17.81 15.831,19.377 15.831,21.313 C15.831,23.246 17.369,24.811 19.267,24.811 C21.164,24.811 22.701,23.246 22.701,21.313 L22.701,21.313 Z M13.407,35.001 C13.407,33.067 11.868,31.499 9.97,31.499 C8.072,31.499 6.535,33.067 6.535,35.001 C6.535,36.935 8.072,38.502 9.97,38.502 C11.868,38.502 13.407,36.935 13.407,35.001 L13.407,35.001 Z M17.561,24.339 L12.08,32.248 L17.561,24.339 Z M38.801,18.642 L33.285,27.019 L38.801,18.642 Z M21.974,23.45 L28.509,28.107 L21.974,23.45 Z" id="Stroke-2" stroke="#FFFFFF" stroke-width="1.605" sketch:type="MSShapeGroup"></path>
        </g>
    </g>
</svg>