<?xml version="1.0" encoding="UTF-8" standalone="no"?>
<svg width="50px" height="50px" viewBox="0 0 50 50" version="1.1" xmlns="http://www.w3.org/2000/svg" xmlns:xlink="http://www.w3.org/1999/xlink" xmlns:sketch="http://www.bohemiancoding.com/sketch/ns">
    <!-- Generator: Sketch 3.3.2 (12043) - http://www.bohemiancoding.com/sketch -->
    <title>Slice 1</title>
    <desc>Created with Sketch.</desc>
    <defs></defs>
    <g id="Page-1" stroke="none" stroke-width="1" fill="none" fill-rule="evenodd" sketch:type="MSPage">
        <g id="icon-workspace" sketch:type="MSLayerGroup">
            <path d="M3.314,0 L46.686,0 C48.518,0 50,1.483 50,3.312 L50,46.689 C50,48.517 48.518,50 46.686,50 L3.314,50 C1.482,50 0,48.517 0,46.689 L0,3.312 C0,1.483 1.482,0 3.314,0" id="Fill-1" fill="#883C8A" sketch:type="MSShapeGroup"></path>
            <path d="M40.241,38.368 C40.241,38.92 39.789,39.373 39.236,39.373 L10.763,39.373 C10.211,39.373 9.759,38.92 9.759,38.368 L9.759,28.66 C9.759,28.107 10.211,27.655 10.763,27.655 L39.236,27.655 C39.789,27.655 40.241,28.107 40.241,28.66 L40.241,38.368 L40.241,38.368 Z" id="Stroke-2" stroke="#FFFFFF" stroke-width="1.607" sketch:type="MSShapeGroup"></path>
            <path d="M29.121,31.198 L20.66,31.198" id="Stroke-3" stroke="#FFFFFF" stroke-width="1.449" stroke-linecap="round" sketch:type="MSShapeGroup"></path>
            <path d="M40.241,21.341 C40.241,21.893 39.789,22.345 39.236,22.345 L10.763,22.345 C10.211,22.345 9.759,21.893 9.759,21.341 L9.759,11.633 C9.759,11.08 10.211,10.628 10.763,10.628 L39.236,10.628 C39.789,10.628 40.241,11.08 40.241,11.633 L40.241,21.341 L40.241,21.341 Z" id="Stroke-4" stroke="#FFFFFF" stroke-width="1.607" sketch:type="MSShapeGroup"></path>
            <path d="M29.121,14.171 L20.66,14.171" id="Stroke-5" stroke="#FFFFFF" stroke-width="1.449" stroke-linecap="round" sketch:type="MSShapeGroup"></path>
        </g>
    </g>
</svg>