<?xml version="1.0" encoding="UTF-8" standalone="no"?>
<svg width="50px" height="50px" viewBox="0 0 50 50" version="1.1" xmlns="http://www.w3.org/2000/svg" xmlns:xlink="http://www.w3.org/1999/xlink" xmlns:sketch="http://www.bohemiancoding.com/sketch/ns">
    <!-- Generator: Sketch 3.3.2 (12043) - http://www.bohemiancoding.com/sketch -->
    <title>Slice 1</title>
    <desc>Created with Sketch.</desc>
    <defs></defs>
    <g id="Page-1" stroke="none" stroke-width="1" fill="none" fill-rule="evenodd" sketch:type="MSPage">
        <g id="icon-surveys" sketch:type="MSLayerGroup">
            <path d="M3.349,0 L46.65,0 C48.5,0 50,1.5 50,3.349 L50,46.651 C50,48.501 48.5,50 46.65,50 L3.349,50 C1.5,50 0,48.501 0,46.651 L0,3.349 C0,1.5 1.5,0 3.349,0" id="Fill-1" fill="#6FC96F" sketch:type="MSShapeGroup"></path>
            <path d="M30.789,33.109 C29.796,33.109 28.991,32.305 28.991,31.313 C28.991,30.321 29.796,29.515 30.789,29.515 C31.781,29.515 32.586,30.321 32.586,31.313 C32.586,32.305 31.781,33.109 30.789,33.109 L30.789,33.109 Z M36.189,16.147 C35.502,16.147 34.942,15.588 34.942,14.9 C34.942,14.21 35.502,13.652 36.189,13.652 C36.879,13.652 37.437,14.21 37.437,14.9 C37.437,15.588 36.879,16.147 36.189,16.147 L36.189,16.147 Z M25.282,43.052 C24.629,43.052 24.097,42.521 24.097,41.867 C24.097,41.211 24.629,40.68 25.282,40.68 C25.937,40.68 26.468,41.211 26.468,41.867 C26.468,42.521 25.937,43.052 25.282,43.052 L25.282,43.052 Z M25.282,10.932 C24.629,10.932 24.097,10.402 24.097,9.747 C24.097,9.092 24.629,8.56 25.282,8.56 C25.937,8.56 26.468,9.092 26.468,9.747 C26.468,10.402 25.937,10.932 25.282,10.932 L25.282,10.932 Z M41.344,32.413 C40.735,32.413 40.242,31.92 40.242,31.312 C40.242,30.705 40.735,30.212 41.344,30.212 C41.951,30.212 42.443,30.705 42.443,31.312 C42.443,31.92 41.951,32.413 41.344,32.413 L41.344,32.413 Z M41.344,21.4 C40.735,21.4 40.242,20.907 40.242,20.3 C40.242,19.693 40.735,19.199 41.344,19.199 C41.951,19.199 42.443,19.693 42.443,20.3 C42.443,20.907 41.951,21.4 41.344,21.4 L41.344,21.4 Z M19.775,22.097 C18.783,22.097 17.978,21.293 17.978,20.3 C17.978,19.308 18.783,18.502 19.775,18.502 C20.769,18.502 21.572,19.308 21.572,20.3 C21.572,21.293 20.769,22.097 19.775,22.097 L19.775,22.097 Z M30.789,10.847 C30.181,10.847 29.688,10.354 29.688,9.746 C29.688,9.139 30.181,8.646 30.789,8.646 C31.396,8.646 31.89,9.139 31.89,9.746 C31.89,10.354 31.396,10.847 30.789,10.847 L30.789,10.847 Z M19.775,10.847 C19.168,10.847 18.676,10.354 18.676,9.746 C18.676,9.139 19.168,8.646 19.775,8.646 C20.383,8.646 20.877,9.139 20.877,9.746 C20.877,10.354 20.383,10.847 19.775,10.847 L19.775,10.847 Z M9.221,32.413 C8.615,32.413 8.121,31.92 8.121,31.312 C8.121,30.705 8.615,30.212 9.221,30.212 C9.83,30.212 10.322,30.705 10.322,31.312 C10.322,31.92 9.83,32.413 9.221,32.413 L9.221,32.413 Z M9.221,21.4 C8.615,21.4 8.121,20.907 8.121,20.3 C8.121,19.693 8.615,19.199 9.221,19.199 C9.83,19.199 10.322,19.693 10.322,20.3 C10.322,20.907 9.83,21.4 9.221,21.4 L9.221,21.4 Z M41.344,26.991 C40.689,26.991 40.158,26.461 40.158,25.807 C40.158,25.152 40.689,24.621 41.344,24.621 C41.998,24.621 42.529,25.152 42.529,25.807 C42.529,26.461 41.998,26.991 41.344,26.991 L41.344,26.991 Z M19.775,16.37 C18.965,16.37 18.306,15.712 18.306,14.899 C18.306,14.087 18.965,13.429 19.775,13.429 C20.588,13.429 21.247,14.087 21.247,14.899 C21.247,15.712 20.588,16.37 19.775,16.37 L19.775,16.37 Z M9.221,26.991 C8.566,26.991 8.036,26.461 8.036,25.807 C8.036,25.152 8.566,24.621 9.221,24.621 C9.877,24.621 10.407,25.152 10.407,25.807 C10.407,26.461 9.877,26.991 9.221,26.991 L9.221,26.991 Z M14.377,37.961 C13.688,37.961 13.129,37.402 13.129,36.713 C13.129,36.023 13.688,35.465 14.377,35.465 C15.064,35.465 15.624,36.023 15.624,36.713 C15.624,37.402 15.064,37.961 14.377,37.961 L14.377,37.961 Z M36.189,37.961 C35.502,37.961 34.942,37.402 34.942,36.713 C34.942,36.023 35.502,35.465 36.189,35.465 C36.879,35.465 37.437,36.023 37.437,36.713 C37.437,37.402 36.879,37.961 36.189,37.961 L36.189,37.961 Z M30.789,42.966 C30.181,42.966 29.688,42.473 29.688,41.867 C29.688,41.259 30.181,40.766 30.789,40.766 C31.396,40.766 31.89,41.259 31.89,41.867 C31.89,42.473 31.396,42.966 30.789,42.966 L30.789,42.966 Z M19.775,42.966 C19.168,42.966 18.676,42.473 18.676,41.867 C18.676,41.259 19.168,40.766 19.775,40.766 C20.383,40.766 20.877,41.259 20.877,41.867 C20.877,42.473 20.383,42.966 19.775,42.966 L19.775,42.966 Z M25.282,27.991 C24.076,27.991 23.098,27.013 23.098,25.807 C23.098,24.6 24.076,23.622 25.282,23.622 C26.488,23.622 27.466,24.6 27.466,25.807 C27.466,27.013 26.488,27.991 25.282,27.991 L25.282,27.991 Z M30.789,27.766 C29.705,27.766 28.828,26.889 28.828,25.806 C28.828,24.723 29.705,23.846 30.789,23.846 C31.872,23.846 32.75,24.723 32.75,25.806 C32.75,26.889 31.872,27.766 30.789,27.766 L30.789,27.766 Z M25.282,33.273 C24.199,33.273 23.321,32.395 23.321,31.312 C23.321,30.229 24.199,29.352 25.282,29.352 C26.365,29.352 27.243,30.229 27.243,31.312 C27.243,32.395 26.365,33.273 25.282,33.273 L25.282,33.273 Z M19.775,27.766 C18.693,27.766 17.815,26.889 17.815,25.806 C17.815,24.723 18.693,23.846 19.775,23.846 C20.859,23.846 21.736,24.723 21.736,25.806 C21.736,26.889 20.859,27.766 19.775,27.766 L19.775,27.766 Z M25.282,22.261 C24.199,22.261 23.321,21.383 23.321,20.3 C23.321,19.217 24.199,18.339 25.282,18.339 C26.365,18.339 27.243,19.217 27.243,20.3 C27.243,21.383 26.365,22.261 25.282,22.261 L25.282,22.261 Z M30.789,22.097 C29.796,22.097 28.991,21.293 28.991,20.3 C28.991,19.308 29.796,18.502 30.789,18.502 C31.781,18.502 32.586,19.308 32.586,20.3 C32.586,21.293 31.781,22.097 30.789,22.097 L30.789,22.097 Z M19.775,33.109 C18.783,33.109 17.978,32.305 17.978,31.313 C17.978,30.321 18.783,29.515 19.775,29.515 C20.769,29.515 21.572,30.321 21.572,31.313 C21.572,32.305 20.769,33.109 19.775,33.109 L19.775,33.109 Z M14.377,27.405 C13.494,27.405 12.777,26.689 12.777,25.807 C12.777,24.924 13.494,24.207 14.377,24.207 C15.26,24.207 15.975,24.924 15.975,25.807 C15.975,26.689 15.26,27.405 14.377,27.405 L14.377,27.405 Z M36.189,27.405 C35.307,27.405 34.59,26.689 34.59,25.807 C34.59,24.924 35.307,24.207 36.189,24.207 C37.072,24.207 37.788,24.924 37.788,25.807 C37.788,26.689 37.072,27.405 36.189,27.405 L36.189,27.405 Z M25.282,38.312 C24.399,38.312 23.684,37.596 23.684,36.712 C23.684,35.831 24.399,35.114 25.282,35.114 C26.164,35.114 26.883,35.831 26.883,36.712 C26.883,37.596 26.164,38.312 25.282,38.312 L25.282,38.312 Z M25.282,16.498 C24.399,16.498 23.684,15.782 23.684,14.899 C23.684,14.017 24.399,13.301 25.282,13.301 C26.164,13.301 26.883,14.017 26.883,14.899 C26.883,15.782 26.164,16.498 25.282,16.498 L25.282,16.498 Z M36.189,32.783 C35.377,32.783 34.718,32.125 34.718,31.312 C34.718,30.5 35.377,29.843 36.189,29.843 C37.001,29.843 37.662,30.5 37.662,31.312 C37.662,32.125 37.001,32.783 36.189,32.783 L36.189,32.783 Z M36.189,21.77 C35.377,21.77 34.718,21.112 34.718,20.3 C34.718,19.488 35.377,18.83 36.189,18.83 C37.001,18.83 37.662,19.488 37.662,20.3 C37.662,21.112 37.001,21.77 36.189,21.77 L36.189,21.77 Z M30.789,38.184 C29.978,38.184 29.318,37.525 29.318,36.712 C29.318,35.9 29.978,35.243 30.789,35.243 C31.6,35.243 32.26,35.9 32.26,36.712 C32.26,37.525 31.6,38.184 30.789,38.184 L30.789,38.184 Z M19.775,38.184 C18.965,38.184 18.306,37.525 18.306,36.712 C18.306,35.9 18.965,35.243 19.775,35.243 C20.588,35.243 21.247,35.9 21.247,36.712 C21.247,37.525 20.588,38.184 19.775,38.184 L19.775,38.184 Z M14.377,32.783 C13.562,32.783 12.904,32.125 12.904,31.312 C12.904,30.5 13.562,29.843 14.377,29.843 C15.188,29.843 15.846,30.5 15.846,31.312 C15.846,32.125 15.188,32.783 14.377,32.783 L14.377,32.783 Z M14.377,21.77 C13.562,21.77 12.904,21.112 12.904,20.3 C12.904,19.488 13.562,18.83 14.377,18.83 C15.188,18.83 15.846,19.488 15.846,20.3 C15.846,21.112 15.188,21.77 14.377,21.77 L14.377,21.77 Z M30.789,16.37 C29.978,16.37 29.318,15.712 29.318,14.899 C29.318,14.087 29.978,13.429 30.789,13.429 C31.6,13.429 32.26,14.087 32.26,14.899 C32.26,15.712 31.6,16.37 30.789,16.37 L30.789,16.37 Z M14.377,16.149 C13.688,16.149 13.129,15.591 13.129,14.902 C13.129,14.212 13.688,13.655 14.377,13.655 C15.064,13.655 15.624,14.212 15.624,14.902 C15.624,15.591 15.064,16.149 14.377,16.149 L14.377,16.149 Z" id="Fill-2" fill="#FFFFFF" sketch:type="MSShapeGroup"></path>
        </g>
    </g>
</svg>