<?xml version="1.0" encoding="UTF-8" standalone="no"?>
<svg width="50px" height="50px" viewBox="0 0 50 50" version="1.1" xmlns="http://www.w3.org/2000/svg" xmlns:xlink="http://www.w3.org/1999/xlink" xmlns:sketch="http://www.bohemiancoding.com/sketch/ns">
    <!-- Generator: Sketch 3.3.2 (12043) - http://www.bohemiancoding.com/sketch -->
    <title>Slice 1</title>
    <desc>Created with Sketch.</desc>
    <defs></defs>
    <g id="Page-1" stroke="none" stroke-width="1" fill="none" fill-rule="evenodd" sketch:type="MSPage">
        <g id="icon-eleot" sketch:type="MSLayerGroup">
            <path d="M3.349,0 L46.649,0 C48.5,0 50,1.5 50,3.349 L50,46.651 C50,48.5 48.5,50 46.649,50 L3.349,50 C1.5,50 0,48.5 0,46.651 L0,3.349 C0,1.5 1.5,0 3.349,0" id="Fill-1" fill="#06BFD1" sketch:type="MSShapeGroup"></path>
            <path d="M14.798,34.573 C19.617,34.573 23.539,30.639 23.539,25.808 C23.539,25.19 23.475,24.588 23.354,24.005 C23.614,23.9 24.441,23.606 25.43,23.606 C26.076,23.606 26.868,23.948 27.121,24.082 L27.127,24.071 C27.014,24.632 26.953,25.212 26.953,25.808 C26.953,30.639 30.875,34.573 35.693,34.573 C40.116,34.573 43.784,31.256 44.354,26.97 L45.701,26.97 C46.273,26.97 46.29,26.249 46.29,25.361 C46.29,24.468 46.273,23.749 45.701,23.749 L44.189,23.749 C43.261,19.906 39.804,17.04 35.693,17.04 C32.291,17.04 29.336,19.003 27.891,21.857 C27.396,21.636 26.423,21.265 25.43,21.265 C24.135,21.265 23.066,21.604 22.569,21.797 C21.115,18.975 18.178,17.04 14.798,17.04 C10.686,17.04 7.23,19.906 6.302,23.749 L4.82,23.749 C4.25,23.749 4.275,24.471 4.275,25.361 C4.275,26.249 4.25,26.97 4.82,26.97 L6.138,26.97 C6.708,31.256 10.373,34.573 14.798,34.573 L14.798,34.573 Z M14.798,18.091 C19.043,18.091 22.493,21.55 22.493,25.808 C22.493,30.065 19.043,33.524 14.798,33.524 C10.556,33.524 7.107,30.065 7.107,25.808 C7.107,21.55 10.556,18.091 14.798,18.091 L14.798,18.091 Z M35.693,18.091 C39.934,18.091 43.385,21.55 43.385,25.808 C43.385,30.065 39.934,33.524 35.693,33.524 C31.449,33.524 27.998,30.065 27.998,25.808 C27.998,21.55 31.449,18.091 35.693,18.091 L35.693,18.091 Z" id="Fill-2" fill="#FFFFFF" sketch:type="MSShapeGroup"></path>
        </g>
    </g>
</svg>