<?xml version="1.0" encoding="utf-8"?>
<!-- Generator: Adobe Illustrator 16.0.0, SVG Export Plug-In . SVG Version: 6.00 Build 0)  -->
<!DOCTYPE svg PUBLIC "-//W3C//DTD SVG 1.1//EN" "http://www.w3.org/Graphics/SVG/1.1/DTD/svg11.dtd">
<svg version="1.1" id="Layer_1" xmlns="http://www.w3.org/2000/svg" xmlns:xlink="http://www.w3.org/1999/xlink" x="0px" y="0px"
	 width="492.579px" height="340.157px" viewBox="0 0 492.579 340.157" enable-background="new 0 0 492.579 340.157"
	 xml:space="preserve">
<g>
	<path fill="#828282" d="M84.749,115.947H51.572c-2.274,0-4.203,1.649-4.558,3.89l-13.417,85.078
		c-0.265,1.677,1.033,3.193,2.739,3.193h15.838c2.269,0,4.202-1.649,4.552-3.895l3.62-22.949c0.35-2.246,2.283-3.895,4.552-3.895
		h10.504c21.854,0,34.47-10.574,37.758-31.533c1.487-9.169,0.066-16.373-4.227-21.418
		C104.215,118.877,95.854,115.947,84.749,115.947z M88.577,147.019c-1.815,11.905-10.911,11.905-19.704,11.905h-5.012l3.515-22.233
		c0.209-1.344,1.375-2.333,2.729-2.333h2.298c5.993,0,11.641,0,14.563,3.416C88.705,139.811,89.244,142.838,88.577,147.019z"/>
	<path fill="#828282" d="M183.926,146.637h-15.891c-1.355,0-2.521,0.988-2.729,2.333l-0.706,4.444l-1.109-1.611
		c-3.439-4.993-11.114-6.661-18.765-6.661c-17.557,0-32.552,13.296-35.47,31.953c-1.521,9.304,0.634,18.202,5.913,24.403
		c4.842,5.709,11.772,8.082,20.011,8.082c14.146,0,21.991-9.096,21.991-9.096l-0.706,4.415c-0.27,1.691,1.033,3.202,2.724,3.202
		h14.312c2.274,0,4.198-1.648,4.558-3.898l8.585-54.375C186.919,148.156,185.621,146.637,183.926,146.637z M161.777,177.559
		c-1.535,9.077-8.737,15.17-17.928,15.17c-4.614,0-8.3-1.478-10.669-4.283c-2.345-2.785-3.24-6.75-2.492-11.161
		c1.43-9.001,8.755-15.293,17.803-15.293c4.511,0,8.182,1.498,10.598,4.326C161.512,169.173,162.469,173.163,161.777,177.559z"/>
	<path fill="#828282" d="M268.538,146.637h-15.967c-1.52,0-2.955,0.756-3.817,2.023l-22.021,32.433l-9.333-31.168
		c-0.588-1.95-2.387-3.288-4.425-3.288H197.29c-1.91,0-3.23,1.862-2.625,3.658l17.586,51.606l-16.533,23.338
		c-1.304,1.843,0.008,4.367,2.254,4.367h15.946c1.512,0,2.934-0.738,3.791-1.98l53.103-76.649
		C272.082,149.143,270.774,146.637,268.538,146.637z"/>
	<path fill="#A6A6A6" d="M321.399,115.947h-33.183c-2.264,0-4.197,1.649-4.552,3.89l-13.421,85.078
		c-0.267,1.677,1.036,3.193,2.729,3.193H290c1.581,0,2.937-1.156,3.183-2.73l3.81-24.113c0.351-2.246,2.282-3.895,4.547-3.895
		h10.499c21.859,0,34.471-10.574,37.769-31.533c1.487-9.169,0.057-16.373-4.235-21.418
		C340.861,118.877,332.505,115.947,321.399,115.947z M325.228,147.019c-1.81,11.905-10.906,11.905-19.708,11.905h-5.004
		l3.521-22.233c0.208-1.344,1.358-2.333,2.724-2.333h2.292c5.989,0,11.646,0,14.568,3.416
		C325.361,139.811,325.891,142.838,325.228,147.019z"/>
	<path fill="#A6A6A6" d="M420.566,146.637h-15.875c-1.365,0-2.525,0.988-2.725,2.333l-0.706,4.444l-1.112-1.611
		c-3.44-4.993-11.105-6.661-18.761-6.661c-17.559,0-32.548,13.296-35.472,31.953c-1.512,9.304,0.64,18.202,5.918,24.403
		c4.852,5.709,11.769,8.082,20.012,8.082c14.146,0,21.987-9.096,21.987-9.096l-0.707,4.415c-0.265,1.691,1.033,3.202,2.734,3.202
		h14.308c2.265,0,4.192-1.648,4.553-3.898l8.589-54.375C423.571,148.156,422.272,146.637,420.566,146.637z M398.424,177.559
		c-1.526,9.077-8.736,15.17-17.928,15.17c-4.604,0-8.3-1.478-10.669-4.283c-2.345-2.785-3.231-6.75-2.491-11.161
		c1.438-9.001,8.754-15.293,17.803-15.293c4.51,0,8.178,1.498,10.593,4.326C398.168,169.173,399.125,173.163,398.424,177.559z"/>
	<path fill="#A6A6A6" d="M439.298,118.28l-13.615,86.634c-0.266,1.677,1.034,3.193,2.725,3.193h13.69
		c2.274,0,4.203-1.649,4.554-3.895l13.431-85.073c0.266-1.68-1.033-3.198-2.724-3.198h-15.331
		C440.674,115.947,439.507,116.938,439.298,118.28z"/>
</g>
</svg>
