<?xml version="1.0" encoding="utf-8"?>
<!-- Generator: Adobe Illustrator 16.0.0, SVG Export Plug-In . SVG Version: 6.00 Build 0)  -->
<!DOCTYPE svg PUBLIC "-//W3C//DTD SVG 1.1//EN" "http://www.w3.org/Graphics/SVG/1.1/DTD/svg11.dtd">
<svg version="1.1" id="Layer_1" xmlns="http://www.w3.org/2000/svg" xmlns:xlink="http://www.w3.org/1999/xlink" x="0px" y="0px"
	 width="224.874px" height="73.931px" viewBox="0 0 224.874 73.931" enable-background="new 0 0 224.874 73.931"
	 xml:space="preserve">
<path fill-rule="evenodd" clip-rule="evenodd" fill="#999999" d="M67.728,39.491c-3.06-7.64-4.59-11.71-4.59-12.19h-0.22
	c0,0.41-1.58,4.47-4.75,12.19H67.728z M75.228,50.271h-4.13c0-0.87-0.82-3.61-2.47-8.22h-11.29c-1.61,4.54-2.42,7.29-2.42,8.22
	h-3.95c0-0.48,1.68-4.64,5.04-12.49c3.37-7.84,5.06-12.16,5.06-12.94h4.53c0,0.77,1.61,5.02,4.82,12.76
	C73.618,45.331,75.228,49.561,75.228,50.271z"/>
<path fill-rule="evenodd" clip-rule="evenodd" fill="#999999" d="M91.258,46.401c0-4.04-0.11-7.94-0.33-11.7
	c-1.06-0.87-2.37-1.3-3.95-1.3c-2.21,0-3.86,0.73-4.95,2.19c-1.1,1.47-1.65,3.31-1.65,5.53c0,1.97,0.52,3.64,1.56,4.99
	c1.04,1.36,2.47,2.03,4.31,2.03C88.558,48.141,90.228,47.561,91.258,46.401z M94.408,50.251l-2.91,0.1
	c-0.11-0.56-0.16-1.15-0.16-1.78h-0.22c-1.36,1.49-3.4,2.23-6.1,2.23c-2.48,0-4.45-0.9-5.92-2.7c-1.47-1.79-2.2-3.96-2.2-6.5
	c0-2.88,0.81-5.36,2.45-7.44c1.63-2.09,3.92-3.13,6.88-3.13c2.12,0,3.63,0.43,4.54,1.29h0.16c0-3.23-0.09-6.4-0.28-9.51l3.72-0.14
	c-0.25,3.31-0.37,7.64-0.37,12.99C93.998,41.111,94.138,45.971,94.408,50.251z"/>
<path fill="#999999" d="M114.553,31.721c0,0.64-1.32,3.71-3.97,9.23c-2.64,5.51-3.96,8.62-3.96,9.32h-2.62
	c0-0.91-1.17-4.1-3.49-9.56c-2.33-5.46-3.5-8.46-3.5-8.99h3.8c0,0.62,0.85,3.1,2.54,7.44c1.7,4.33,2.55,6.82,2.55,7.44h0.17
	c0-0.6,0.81-2.99,2.42-7.17s2.41-6.75,2.41-7.71H114.553z"/>
<path fill-rule="evenodd" clip-rule="evenodd" fill="#999999" d="M128.743,46.481c-0.07-1.97-0.1-3.76-0.1-5.33
	c-2.45,0-4.32,0.19-5.6,0.55c-2.14,0.65-3.21,1.89-3.21,3.73c0,1.77,1.26,2.66,3.76,2.66
	C125.753,48.091,127.463,47.551,128.743,46.481z M132.203,50.271l-3.07,0.12c-0.16-0.64-0.24-1.24-0.24-1.82h-0.19
	c-1.61,1.46-3.79,2.19-6.55,2.19c-1.51,0-2.8-0.44-3.88-1.32c-1.08-0.88-1.62-2.13-1.62-3.76c0-2,0.84-3.62,2.54-4.83
	c1.69-1.22,4.84-1.86,9.45-1.92c0.04-0.32,0.06-0.68,0.06-1.08c0-1.6-0.43-2.67-1.28-3.2c-0.86-0.54-2.15-0.8-3.89-0.8
	c-2.05,0-4.06,0.25-6.04,0.76l0.33-2.7c1.95-0.56,4.21-0.84,6.75-0.84c2.32,0,4.11,0.48,5.38,1.44c1.27,0.95,1.9,2.59,1.9,4.89
	c0,0.62-0.03,1.72-0.09,3.33c-0.06,1.61-0.09,2.68-0.09,3.22C131.673,46.311,131.853,48.421,132.203,50.271z"/>
<path fill="#999999" d="M152.763,50.271h-3.56c0.29-3.42,0.43-7.16,0.43-11.21c0-2-0.41-3.38-1.22-4.11c-0.82-0.74-1.98-1.1-3.5-1.1
	c-1.85,0-3.56,0.67-5.12,2.01c0,4.44,0.03,9.24,0.08,14.41h-3.56c0.22-4.43,0.33-7.63,0.33-9.61c0-3.04-0.29-6-0.86-8.87l3.44-0.49
	l0.37,2.39h0.16c1.93-1.74,4-2.62,6.2-2.62c2.17,0,3.84,0.48,5.03,1.44c1.19,0.95,1.78,2.66,1.78,5.11c0,0.24-0.01,0.73-0.04,1.46
	c-0.02,0.73-0.04,1.22-0.04,1.47C152.683,42.721,152.713,45.961,152.763,50.271z"/>
<path fill="#999999" d="M171.633,47.281l-0.2,2.62c-1.05,0.6-2.47,0.9-4.24,0.9c-3.38,0-5.96-0.93-7.75-2.79
	c-1.79-1.86-2.68-4.11-2.68-6.74c0-2.79,0.94-5.18,2.82-7.19c1.88-2,4.37-3.01,7.45-3.01c1.56,0,2.82,0.16,3.8,0.47l-0.53,3.07
	c-1.37-0.51-2.76-0.76-4.17-0.76c-1.85,0-3.33,0.64-4.42,1.93c-1.1,1.29-1.64,2.9-1.64,4.84c0,2.12,0.65,3.87,1.95,5.28
	c1.31,1.4,3.16,2.11,5.54,2.11C168.543,48.011,169.903,47.771,171.633,47.281z"/>
<path fill="#999999" d="M175.263,50.281c0.17-3.94,0.25-8.37,0.25-13.31c0-4.74-0.08-8.78-0.25-12.13h15.89l-0.22,4.28
	c-3.92-0.21-7.46-0.31-10.64-0.31c0.12,1.81,0.19,3.94,0.19,6.4c2.73,0,5.64-0.07,8.75-0.21v4.08c-3.05-0.13-5.97-0.19-8.75-0.19
	c0,2.64,0.05,5.11,0.16,7.42c3.57,0,7.38-0.11,11.43-0.34l-0.16,4.31H175.263z"/>
<path fill-rule="evenodd" clip-rule="evenodd" fill="#999999" d="M201.843,24.781c-1.11,0.04-1.95,0.06-2.51,0.06h-3.42
	c0.17,3.35,0.25,7.39,0.25,12.13c0,4.94-0.08,9.37-0.25,13.3c3.38,0.16,6.05,0.24,7.98,0.24c4.27,0,7.6-1.38,9.98-4.15
	c2.37-2.76,3.56-5.98,3.56-9.68c0-3.28-1.06-6.1-3.18-8.44c-2.12-2.35-5.53-3.51-10.24-3.51
	C203.673,24.731,202.953,24.741,201.843,24.781z M201.293,46.231c-0.13-3.06-0.2-6.15-0.2-9.26c0-2.84-0.06-5.56-0.19-8.16
	c0.98-0.12,1.74-0.18,2.3-0.18c3,0,5.24,0.86,6.7,2.57c1.46,1.71,2.19,3.82,2.19,6.32s-0.68,4.61-2.03,6.36
	c-1.34,1.73-3.43,2.6-6.23,2.6C202.983,46.481,202.143,46.401,201.293,46.231z"/>
<path fill-rule="evenodd" clip-rule="evenodd" fill="#999999" d="M24.318,23.351c-2.44-1.59-4.14-3.64-4.7-5.73
	c-0.28-1.04-0.3-2.07-0.42-2.22c-0.13-0.14-0.03,1.24,0.16,2.14c0.46,2.28,2.16,4.59,4.73,6.39c-0.93,2.29-1.75,4.69-2.42,7.19
	c-2.9-1.51-5.26-3.47-6.86-5.63c0.77-1.7,1.75-3.41,2.98-5.15c0.04-0.04,0.84-1.13,0.76-1.18c-0.09-0.05-0.69,0.54-1.1,1.03
	c-0.97,1.19-2.13,2.69-3.13,4.61c-1.37-2.09-2.05-4.32-1.83-6.47c1.25-1.63,2.66-2.94,4-3.96c0,0,0.78-0.7,2.57-1.58
	c-1.23,0.28-2.84,1.22-2.84,1.22c-7.79,5.16-10.02,12.77-9.23,18.81c0.5,7.55,5.05,14.56,12.39,17.88
	c0.34,8.45,2.35,15.84,5.09,20.86c-2.21-5.69-3.64-12.72-3.83-20.33c10.57,4.01,22.52-0.98,27.01-11.45
	c4.62-10.76-0.37-23.21-11.14-27.82l-0.59-0.23c1.65,0.77,3.15,1.73,4.49,2.85c2.11,2.12,3.11,4.65,2.42,6.94
	c-1.25,4.11-7.45,5.89-13.86,3.96c-1.25-0.38-2.42-0.86-3.49-1.44c3.65-9.21,9.01-16.94,14.56-22.24
	C34.468,5.881,28.408,13.521,24.318,23.351z M42.578,27.651c-0.21-0.97-0.48-1.88-0.78-2.72c0.86-0.73,1.49-1.63,1.8-2.68
	c0.61-2.02-0.04-4.22-1.6-6.19c2.02,2.1,3.56,4.6,4.53,7.3c0.19,1.21,0.13,2.41-0.22,3.58c-0.53,1.75-1.65,3.21-3.18,4.36
	C43.038,30.011,42.848,28.781,42.578,27.651z M8.118,30.031c0.19-3.43,1.17-6.63,2.73-9.17c0.44-0.85,0.96-1.63,1.5-2.35
	c-0.4,2.31,0.22,4.73,1.63,6.99l-0.17,0.35c-1.28,2.75-2.19,6.24-2.24,10.17C9.698,34.151,8.498,32.091,8.118,30.031z
	 M26.208,32.961c-1.15-0.34-2.23-0.75-3.27-1.22c0.65-2.44,1.42-4.8,2.3-7.08c1.19,0.69,2.51,1.28,3.96,1.71
	c1.37,0.41,2.74,0.65,4.05,0.76c0.31,2.32,0.42,4.66,0.34,6.93h-0.16C31.128,34.061,28.668,33.701,26.208,32.961z M40.778,25.651
	c0.54,2.2,0.82,4.42,0.87,6.57c-1.91,1.01-4.25,1.63-6.84,1.79c0.07-1.73-0.01-3.37-0.21-4.88c-0.08-0.69-0.19-1.33-0.3-1.96
	l0.23,0.01C36.958,27.181,39.138,26.641,40.778,25.651z M12.378,36.781c-0.02-3.4,0.57-6.92,2.1-10.54c1.59,2.24,3.98,4.3,6.92,5.9
	c-0.17,0.67-0.33,1.34-0.48,2.02c-0.53,2.35-0.92,4.68-1.18,6.97C16.808,39.981,14.308,38.481,12.378,36.781z M43.178,33.171
	c2.08-1.26,3.59-3,4.24-5.15c0.05-0.17,0.08-0.34,0.12-0.51c0.47,3.44,0.05,7.04-1.37,10.47c-1.08,1.41-2.64,2.57-4.54,3.45
	C42.698,38.601,43.148,35.791,43.178,33.171z M11.038,42.491c-1.85-3.24-2.76-6.71-2.93-10.05c0.65,1.72,1.83,3.42,3.48,4.98
	c0.08,2.27,0.47,4.66,1.22,7.11C12.178,43.891,11.578,43.211,11.038,42.491z M21.938,41.911c-0.29-0.09-0.58-0.19-0.87-0.29
	c0.27-2.37,0.67-4.76,1.21-7.16c0.13-0.56,0.27-1.11,0.4-1.66c1.21,0.57,2.49,1.07,3.85,1.48c2.38,0.71,4.74,1.08,6.98,1.13
	c-0.15,2.09-0.45,4.09-0.89,5.89c-0.16,0.73-0.34,1.41-0.53,2.08h-0.44C28.508,43.381,25.198,42.911,21.938,41.911z M34.738,35.401
	c2.55-0.07,4.91-0.57,6.89-1.43c-0.06,1.91-0.32,3.74-0.74,5.41c-0.21,0.93-0.46,1.81-0.74,2.64c-2.1,0.75-4.51,1.2-7.08,1.32
	C34.008,40.641,34.528,37.951,34.738,35.401z M19.268,48.931c-2.21-0.95-4.17-2.24-5.83-3.79c-0.47-1.87-0.88-4.25-1.02-6.98
	c1.93,1.63,4.36,3.07,7.19,4.19c-0.21,2.25-0.29,4.46-0.27,6.61L19.268,48.931z M40.798,43.361c1.19-0.42,2.29-0.93,3.27-1.52
	c-1.52,2.19-3.44,4.02-5.6,5.42C39.398,45.981,40.168,44.671,40.798,43.361z M20.608,49.451c0.01-2.17,0.11-4.37,0.33-6.6
	c0.38,0.13,0.75,0.25,1.14,0.38c3.21,0.98,6.48,1.47,9.58,1.5c-0.86,2.53-1.89,4.51-2.62,5.78c-0.57,0.05-1.15,0.07-1.74,0.07
	C25.078,50.581,22.818,50.211,20.608,49.451z M32.548,44.731c2.47-0.04,4.82-0.37,6.93-0.96c-0.76,1.78-1.61,3.22-2.29,4.25
	c-2.37,1.31-4.99,2.15-7.7,2.44C30.758,48.601,31.768,46.671,32.548,44.731z"/>
</svg>
