<?xml version="1.0" encoding="utf-8"?>
<!-- Generator: Adobe Illustrator 16.0.0, SVG Export Plug-In . SVG Version: 6.00 Build 0)  -->
<!DOCTYPE svg PUBLIC "-//W3C//DTD SVG 1.1//EN" "http://www.w3.org/Graphics/SVG/1.1/DTD/svg11.dtd">
<svg version="1.1" id="Layer_1" xmlns="http://www.w3.org/2000/svg" xmlns:xlink="http://www.w3.org/1999/xlink" x="0px" y="0px"
	 width="61.727px" height="61.727px" viewBox="0 0 61.727 61.727" enable-background="new 0 0 61.727 61.727" xml:space="preserve">
<g>
	<path fill="none" d="M11.683,42.973c-2.483,0.002-4.501-2.018-4.502-4.502L7.18,24.686c0-2.481,2.016-4.502,4.497-4.502
		c1.207-0.001,2.335,0.467,3.188,1.318c0.851,0.85,1.319,1.981,1.32,3.183l-0.001,13.787c0.003,1.199-0.464,2.33-1.315,3.18
		C14.019,42.504,12.886,42.973,11.683,42.973"/>
	<path fill="#FFFFFF" d="M11.679,21.395c-1.817-0.001-3.291,1.475-3.291,3.291L8.39,38.471c0.001,1.82,1.477,3.291,3.292,3.293
		c1.82-0.002,3.293-1.473,3.292-3.293V24.684C14.973,22.868,13.497,21.393,11.679,21.395"/>
	<path fill="none" d="M46.99,22.076h-1.21L16.128,22.08h-1.21v-1.21c-0.003-4.969,2.704-9.59,7.137-12.321l-1.723-3.146
		C20.12,5.035,20.068,4.568,20.19,4.14c0.125-0.427,0.419-0.793,0.814-1.003c0.228-0.13,0.506-0.202,0.788-0.202
		c0.611,0,1.17,0.332,1.465,0.868l1.804,3.286c1.867-0.685,3.838-1.034,5.875-1.033c2.065-0.001,4.046,0.349,5.922,1.037
		l1.801-3.292c0.289-0.534,0.854-0.867,1.461-0.867c0.275,0,0.549,0.066,0.791,0.197c0.405,0.222,0.688,0.577,0.812,1.006
		c0.124,0.428,0.073,0.878-0.144,1.271l-1.721,3.144c4.425,2.736,7.13,7.354,7.13,12.314L46.99,22.076z"/>
	<path fill="#FFFFFF" d="M38.224,9.016l2.298-4.196c0.121-0.219,0.042-0.5-0.179-0.622c-0.226-0.121-0.502-0.039-0.621,0.182
		l-2.321,4.238c-1.952-0.867-4.14-1.355-6.449-1.353c-2.307-0.002-4.488,0.484-6.435,1.348l-2.323-4.229
		c-0.12-0.223-0.4-0.304-0.619-0.181c-0.222,0.119-0.304,0.399-0.181,0.618l2.299,4.192c-4.516,2.33-7.567,6.764-7.565,11.857
		l29.65-0.003C45.78,15.777,42.733,11.351,38.224,9.016 M24.208,15.5c-0.683-0.002-1.24-0.557-1.24-1.243
		c0-0.683,0.557-1.244,1.24-1.244c0.688-0.001,1.244,0.561,1.245,1.244C25.453,14.941,24.896,15.499,24.208,15.5 M37.708,15.497
		c-0.685,0-1.244-0.554-1.243-1.243c0-0.682,0.558-1.243,1.243-1.246c0.683,0.002,1.242,0.563,1.242,1.246
		C38.95,14.94,38.393,15.497,37.708,15.497"/>
	<path fill="none" d="M25.449,58.686c-2.481,0-4.5-2.02-4.501-4.504L20.947,48.1h-1.182c-1.264,0.002-2.45-0.49-3.34-1.383
		c-0.892-0.891-1.385-2.076-1.382-3.34l-0.004-21.359v-1.211h1.21l29.429-0.004l1.209-0.001v1.21l0.003,21.362
		c0.001,2.604-2.118,4.723-4.722,4.723l-1.191,0.002l0.001,6.082c0,2.48-2.018,4.502-4.498,4.502
		c-1.202,0.004-2.331-0.465-3.184-1.316c-0.854-0.852-1.322-1.982-1.321-3.184v-6.084h-2.023v6.084
		C29.951,56.664,27.933,58.686,25.449,58.686"/>
	<path fill="#FFFFFF" d="M16.254,43.375c-0.001,1.945,1.568,3.516,3.512,3.516h2.392l0.003,7.293c0,1.814,1.475,3.291,3.289,3.291
		c1.819,0,3.292-1.477,3.291-3.293l0.001-7.293h4.445l-0.002,7.293c0.002,1.814,1.479,3.293,3.292,3.291
		c1.819,0,3.294-1.477,3.294-3.293l-0.002-7.293h2.4c1.936,0,3.513-1.574,3.513-3.514L45.676,22.01l-29.427,0.005L16.254,43.375z"/>
	<path fill="none" d="M50.242,42.967c-2.483,0-4.502-2.018-4.502-4.5l-0.004-13.784c0.001-2.483,2.017-4.503,4.498-4.503
		c2.484,0,4.506,2.018,4.505,4.501l0.002,13.784C54.743,40.946,52.724,42.967,50.242,42.967"/>
	<path fill="#FFFFFF" d="M50.238,21.389c-1.817-0.001-3.29,1.476-3.29,3.293l0.002,13.784c0,1.818,1.473,3.291,3.292,3.291
		c1.817-0.002,3.289-1.473,3.291-3.291l-0.004-13.785C53.529,22.863,52.056,21.389,50.238,21.389"/>
	<path opacity="0.5" fill="#999999" d="M11.679,21.395c-1.817-0.001-3.291,1.475-3.291,3.291L8.39,38.471
		c0.001,1.82,1.475,3.291,3.292,3.291c1.819,0,3.292-1.471,3.291-3.291l0-13.787C14.973,22.868,13.497,21.393,11.679,21.395
		 M38.224,9.016l2.298-4.196c0.121-0.219,0.042-0.499-0.181-0.622c-0.225-0.118-0.5-0.038-0.619,0.182l-2.32,4.24
		c-1.953-0.869-4.138-1.357-6.45-1.354c-2.307-0.002-4.49,0.484-6.435,1.348l-2.323-4.229c-0.121-0.223-0.399-0.304-0.619-0.182
		c-0.223,0.12-0.305,0.399-0.181,0.619l2.298,4.192c-4.516,2.33-7.566,6.764-7.565,11.856l29.65-0.003
		C45.78,15.777,42.733,11.351,38.224,9.016 M24.208,15.5c-0.683-0.002-1.24-0.557-1.24-1.243c0-0.683,0.556-1.245,1.24-1.244
		c0.688-0.001,1.244,0.561,1.245,1.244C25.453,14.941,24.896,15.499,24.208,15.5 M37.708,15.497c-0.685,0-1.243-0.556-1.243-1.243
		c0.002-0.681,0.558-1.243,1.243-1.246c0.683,0.002,1.242,0.563,1.242,1.246C38.951,14.941,38.393,15.497,37.708,15.497
		 M16.249,22.015l0.004,21.362c0,1.943,1.57,3.512,3.512,3.512l2.392,0.002l0.003,7.295c0,1.812,1.475,3.289,3.289,3.289
		c1.819,0,3.292-1.477,3.292-3.293l-0.001-7.293h4.445l0.001,7.293c-0.001,1.814,1.477,3.293,3.289,3.291
		c1.819,0,3.294-1.477,3.294-3.293l-0.002-7.293h2.4c1.936,0,3.513-1.572,3.514-3.514l-0.004-21.362L16.249,22.015z M53.531,24.681
		c-0.001-1.818-1.475-3.292-3.293-3.292c-1.817-0.001-3.29,1.476-3.29,3.293l0.002,13.784c0,1.818,1.473,3.289,3.292,3.291
		c1.818,0,3.29-1.473,3.291-3.291L53.531,24.681z"/>
</g>
</svg>
