<?xml version="1.0" encoding="utf-8"?>
<!-- Generator: Adobe Illustrator 17.1.0, SVG Export Plug-In . SVG Version: 6.00 Build 0)  -->
<!DOCTYPE svg PUBLIC "-//W3C//DTD SVG 1.1//EN" "http://www.w3.org/Graphics/SVG/1.1/DTD/svg11.dtd">
<svg version="1.1" id="Layer_1" xmlns="http://www.w3.org/2000/svg" xmlns:xlink="http://www.w3.org/1999/xlink" x="0px" y="0px"
	 viewBox="0 0 61.7 61.7" enable-background="new 0 0 61.7 61.7" xml:space="preserve">
<path fill="#CCCCCC" enable-background="new    " d="M52.5,41.8c-1.2,2.6-1.7,3.8-3.3,6.1c-2.1,3.2-5.1,7.2-8.8,7.3
	c-3.3,0-4.1-2.1-8.6-2.1s-5.4,2.2-8.7,2.1c-3.7,0-6.5-3.7-8.7-6.9c-5.9-9-6.6-19.6-2.9-25.3c2.6-4,6.7-6.3,10.6-6.3
	c3.9,0,6.4,2.2,9.6,2.2c3.1,0,5.1-2.2,9.6-2.2c3.4,0,7.1,1.9,9.7,5.1C42.5,26.4,43.9,38.5,52.5,41.8L52.5,41.8z M37.9,13
	c1.6-2.1,2.9-5.1,2.4-8.2c-2.7,0.2-5.8,1.9-7.7,4.1c-1.7,2-3,5-2.5,8C33.1,17.1,36.1,15.3,37.9,13L37.9,13z"/>
</svg>
