<?xml version="1.0" encoding="utf-8"?>
<!-- Generator: Adobe Illustrator 16.0.0, SVG Export Plug-In . SVG Version: 6.00 Build 0)  -->
<!DOCTYPE svg PUBLIC "-//W3C//DTD SVG 1.1//EN" "http://www.w3.org/Graphics/SVG/1.1/DTD/svg11.dtd">
<svg version="1.1" id="Layer_1" xmlns="http://www.w3.org/2000/svg" xmlns:xlink="http://www.w3.org/1999/xlink" x="0px" y="0px"
	 width="340.158px" height="340.157px" viewBox="0 0 340.158 340.157" enable-background="new 0 0 340.158 340.157"
	 xml:space="preserve">
<radialGradient id="SVGID_1_" cx="-68.4961" cy="515.0166" r="263.0829" gradientTransform="matrix(1 0 0 -1 149.0522 594.623)" gradientUnits="userSpaceOnUse">
	<stop  offset="0" style="stop-color:#A6A6A6"/>
	<stop  offset="1" style="stop-color:#828282"/>
</radialGradient>
<rect x="31.103" y="30.173" fill="url(#SVGID_1_)" width="281.945" height="282.965"/>
<path fill="#FFFFFF" d="M56.517,152.617L51.093,139.4L45.7,152.617H56.517z M176.007,147.354c-1.089,0.661-2.377,0.683-3.92,0.683
	h-9.627v-7.364h9.758c1.381,0,2.822,0.062,3.758,0.598c1.028,0.483,1.664,1.511,1.664,2.931
	C177.64,145.651,177.035,146.817,176.007,147.354z M244.685,152.617l-5.484-13.217l-5.453,13.217H244.685z M116.666,166.923h-8.124
	l-0.03-25.966L97.02,166.923h-6.958l-11.521-25.989v25.989H62.423l-3.045-7.395h-16.5l-3.076,7.395h-8.607l14.191-33.154H57.16
	l13.479,31.39v-31.39h12.934l10.371,22.491l9.527-22.491h13.194L116.666,166.923L116.666,166.923z M149.044,166.923h-26.474v-33.154
	h26.474v6.904h-18.548v5.976h18.103v6.796h-18.103v6.621h18.548V166.923z M186.37,142.698c0,5.286-3.527,8.017-5.584,8.837
	c1.734,0.66,3.216,1.826,3.921,2.792c1.118,1.649,1.312,3.122,1.312,6.083v6.513h-7.993l-0.03-4.181
	c0-1.995,0.191-4.864-1.251-6.459c-1.157-1.166-2.923-1.419-5.775-1.419h-8.507v12.059h-7.925v-33.154h18.228
	c4.05,0,7.034,0.107,9.596,1.588C184.867,136.838,186.37,139,186.37,142.698z M199.052,166.923h-8.086v-33.154h8.086V166.923z
	 M292.86,166.923H281.63l-15.021-24.884v24.884H250.47l-3.084-7.395h-16.462l-2.992,7.395h-9.273c-3.852,0-8.729-0.852-11.49-3.666
	c-2.785-2.816-4.234-6.628-4.234-12.658c0-4.917,0.866-9.412,4.272-12.964c2.562-2.646,6.573-3.866,12.034-3.866h7.673v7.104h-7.512
	c-2.892,0-4.524,0.43-6.098,1.964c-1.352,1.396-2.278,4.035-2.278,7.51c0,3.552,0.706,6.113,2.18,7.786
	c1.22,1.312,3.437,1.71,5.522,1.71h3.559l11.17-26.073h11.874l13.417,31.36v-31.36h12.065l13.93,23.09v-23.09h8.117V166.923
	L292.86,166.923z M31.103,173.436h13.54l3.053-7.364h6.835l3.045,7.364h26.642v-5.63l2.378,5.653h13.83l2.378-5.737v5.714h66.208
	l-0.031-12.088h1.281c0.896,0.031,1.159,0.114,1.159,1.595v10.493h34.243v-2.814c2.762,1.479,7.058,2.814,12.711,2.814h14.405
	l3.083-7.364h6.835l3.016,7.364h27.761v-6.995l4.204,6.995h22.246v-46.24h-22.017v5.461l-3.083-5.461h-22.591v5.461l-2.831-5.461
	h-30.515c-5.108,0-9.598,0.713-13.225,2.7v-2.7h-21.059v2.7c-2.308-2.048-5.453-2.7-8.95-2.7H98.722l-5.162,11.943l-5.301-11.943
	H64.027v5.461l-2.662-5.461H40.699l-9.597,21.985L31.103,173.436L31.103,173.436z"/>
<path fill="#FFFFFF" d="M313.048,207.326c1.12,1.512,1.673,3.307,1.673,6.205c0,2.531-0.553,4.604-1.673,6.223l-0.246,0.31
	c-1.925,2.814-5.43,3.932-10.508,3.932H286.99v-7.11h15.242c1.512,0,2.57-0.199,3.207-0.822c0.552-0.512,0.938-1.258,0.938-2.162
	c0-0.967-0.386-1.732-0.969-2.193c-0.574-0.506-1.411-0.736-2.792-0.736c-7.44-0.252-16.724,0.23-16.724-10.264
	c0-4.811,3.054-9.873,11.37-9.873h15.785v-6.598h-14.666c-4.426,0-7.642,1.061-9.918,2.708v-2.708H266.77
	c-3.469,0-7.541,0.859-9.467,2.708v-2.708h-38.738v2.708c-3.083-2.224-8.285-2.708-10.686-2.708h-25.552v2.708
	c-2.439-2.362-7.863-2.708-11.17-2.708h-28.597l-6.544,7.082l-6.129-7.082H87.17v46.271h41.914l6.742-7.193l6.353,7.193
	l25.836,0.023v-10.885h2.54c3.428,0.053,7.471-0.086,11.038-1.627v12.488h21.31v-12.061h1.028c1.312,0,1.441,0.055,1.441,1.365
	v10.693h64.735c4.11,0,8.406-1.052,10.785-2.961v2.961h20.534c4.272,0,8.446-0.599,11.621-2.133l2.281-1.964v-26.596l-2.281-1.923
	h-14.443c-1.441,0-2.399,0.054-3.207,0.599c-0.836,0.537-1.158,1.334-1.158,2.386c0,1.252,0.706,2.102,1.733,2.471
	c0.836,0.291,1.734,0.375,3.054,0.375l4.295,0.115c4.334,0.107,7.228,0.852,8.991,2.67
	C312.634,206.758,312.827,207.043,313.048,207.326 M281.437,206.506c1.543,1.596,2.37,3.612,2.37,7.025
	c0,7.134-4.457,10.464-12.449,10.464h-15.435v-7.11h15.373c1.503,0,2.568-0.199,3.236-0.822c0.545-0.512,0.937-1.258,0.937-2.162
	c0-0.967-0.423-1.733-0.967-2.193c-0.606-0.506-1.442-0.736-2.822-0.736c-7.411-0.252-16.692,0.23-16.692-10.264
	c0-4.811,3.022-9.873,11.33-9.873h15.888v7.059h-14.537c-1.441,0-2.378,0.054-3.176,0.599c-0.867,0.537-1.189,1.334-1.189,2.386
	c0,1.252,0.737,2.102,1.734,2.471c0.836,0.291,1.733,0.375,3.084,0.375l4.266,0.115
	C276.689,203.943,279.642,204.688,281.437,206.506z M209.929,204.457c-1.061,0.629-2.371,0.684-3.913,0.684h-9.627v-7.448h9.758
	c1.411,0,2.823,0.03,3.782,0.599c1.027,0.537,1.641,1.564,1.641,2.982C211.57,202.693,210.957,203.836,209.929,204.457z
	 M214.715,208.584c1.764,0.651,3.206,1.818,3.882,2.784c1.119,1.619,1.281,3.13,1.312,6.054v6.573h-7.955v-4.149
	c0-1.994,0.191-4.949-1.281-6.49c-1.158-1.188-2.923-1.473-5.814-1.473h-8.469v12.112h-7.963v-33.162h18.296
	c4.012,0,6.934,0.177,9.535,1.565c2.501,1.511,4.074,3.58,4.074,7.363C220.332,205.055,216.801,207.756,214.715,208.584z
	 M224.726,190.833h26.449v6.858h-18.558v6.029h18.104v6.766h-18.104v6.598l18.558,0.03v6.881h-26.449V190.833z M171.259,206.137
	h-10.241v-8.444h10.333c2.861,0,4.847,1.166,4.847,4.065C176.198,204.627,174.304,206.137,171.259,206.137z M153.125,220.979
	l-12.167-13.508l12.167-13.078V220.979z M121.705,217.084H102.22v-6.598h17.397v-6.766H102.22v-6.029h19.868l8.668,9.664
	L121.705,217.084z M184.707,201.758c0,9.213-6.873,11.114-13.801,11.114h-9.888v11.123h-15.403l-9.758-10.978l-10.141,10.978H94.326
	v-33.162h31.873l9.75,10.87l10.08-10.87h25.322C177.64,190.833,184.707,192.574,184.707,201.758z"/>
</svg>
