<?xml version="1.0" encoding="utf-8"?>
<!-- Generator: Adobe Illustrator 16.0.0, SVG Export Plug-In . SVG Version: 6.00 Build 0)  -->
<!DOCTYPE svg PUBLIC "-//W3C//DTD SVG 1.1//EN" "http://www.w3.org/Graphics/SVG/1.1/DTD/svg11.dtd">
<svg version="1.1" id="Layer_1" xmlns="http://www.w3.org/2000/svg" xmlns:xlink="http://www.w3.org/1999/xlink" x="0px" y="0px"
	 width="492.579px" height="340.157px" viewBox="0 0 492.579 340.157" enable-background="new 0 0 492.579 340.157"
	 xml:space="preserve">
<g>
	<g>
		<g>
			<path fill-rule="evenodd" clip-rule="evenodd" fill="#828282" d="M245.898,250.203c19.773,18.226,46.331,29.275,75.221,29.275
				c62.044,0,112.259-50.604,112.259-112.835c0-62.435-50.215-113.031-112.259-113.031c-28.89,0-55.447,11.042-75.221,29.275
				c-22.682,20.744-37.034,50.604-37.034,83.755C208.864,199.801,223.217,229.647,245.898,250.203L245.898,250.203z"/>
			<path fill-rule="evenodd" clip-rule="evenodd" fill="#828282" d="M418.459,229.459c0-1.935,1.549-3.486,3.485-3.486
				c2.134,0,3.686,1.552,3.686,3.486c0,2.137-1.552,3.688-3.686,3.688C420.008,233.148,418.459,231.596,418.459,229.459
				L418.459,229.459z M421.944,232.368c1.549,0,2.91-1.356,2.91-2.908c0-1.553-1.361-2.715-2.91-2.715
				c-1.356,0-2.705,1.162-2.705,2.715C419.239,231.011,420.588,232.368,421.944,232.368L421.944,232.368z M421.56,231.206h-0.772
				v-3.299h1.353c0.199,0,0.585,0,0.772,0.203c0.397,0.188,0.397,0.383,0.397,0.764c0,0.398-0.198,0.773-0.585,0.773l0.769,1.559
				h-0.968l-0.386-1.356h-0.58V231.206v-1.934h0.385c0.195,0,0.395,0,0.395,0c0.187,0,0.187-0.195,0.187-0.398
				c0-0.194,0-0.194-0.187-0.381c0,0-0.199,0-0.395,0h-0.385v0.779V231.206L421.56,231.206z"/>
			<path fill-rule="evenodd" clip-rule="evenodd" fill="#A6A6A6" d="M282.157,154.617c-0.397-4.071-1.166-7.946-1.949-12.017
				h-68.626c0.779-4.071,1.941-7.955,3.1-11.83h62.239c-1.36-4.071-2.912-8.142-4.651-12.018h-52.741
				c1.942-4.071,4.078-8.141,6.402-12.017h39.741c-2.52-4.079-5.42-8.149-8.536-11.83h-22.682
				c3.494-4.266,7.373-8.336,11.444-12.018c-19.968-18.038-46.339-29.275-75.423-29.275c-61.849,0-112.258,50.596-112.258,113.031
				c0,62.231,50.409,112.835,112.258,112.835c29.084,0,55.455-11.05,75.423-29.275l0,0l0,0c4.07-3.681,7.756-7.557,11.237-11.822
				h-22.682c-3.096-3.876-5.812-7.751-8.523-12.018h39.741c2.519-3.884,4.664-7.759,6.598-12.024h-52.741
				c-1.747-3.877-3.486-7.76-4.847-11.831h62.239c1.354-3.876,2.328-7.946,3.287-12.017c0.783-3.885,1.552-7.947,1.949-12.025
				c0.382-3.877,0.581-7.752,0.581-11.823S282.539,158.501,282.157,154.617L282.157,154.617z"/>
			<path fill-rule="evenodd" clip-rule="evenodd" fill="#FFFFFF" d="M418.459,192.822c0-2.137,1.549-3.688,3.485-3.688
				c2.134,0,3.686,1.552,3.686,3.688c0,1.935-1.552,3.681-3.686,3.681C420.008,196.502,418.459,194.756,418.459,192.822
				L418.459,192.822z M421.944,195.528c1.549,0,2.91-1.162,2.91-2.706c0-1.56-1.361-2.722-2.91-2.722
				c-1.356,0-2.705,1.162-2.705,2.722C419.239,194.366,420.588,195.528,421.944,195.528L421.944,195.528z M421.56,194.366h-0.772
				v-3.104h1.353c0.199,0,0.585,0,0.772,0c0.397,0.195,0.397,0.585,0.397,0.967c0,0.195-0.198,0.593-0.585,0.779l0.769,1.357h-0.968
				l-0.386-1.162h-0.58V194.366v-1.738h0.385c0.195,0,0.395,0,0.395-0.203c0.187,0,0.187-0.195,0.187-0.383c0,0,0-0.194-0.187-0.194
				c0-0.195-0.199,0-0.395,0h-0.385v0.78V194.366L421.56,194.366z"/>
			<path fill-rule="evenodd" clip-rule="evenodd" fill="#666666" d="M207.701,199.217c-3.68,0.967-6.395,1.551-9.104,1.551
				c-5.821,0-9.312-3.688-9.312-10.277c0-1.357,0.195-2.715,0.387-4.266l0.775-4.461l0.585-3.689l5.231-31.786H207.9l-1.36,6.972
				h7.37l-1.751,11.635h-7.362l-3.1,19.005c-0.199,0.967-0.199,1.543-0.199,1.934c0,2.527,1.166,3.494,4.071,3.494
				c1.356,0,2.519-0.195,3.684-0.391L207.701,199.217L207.701,199.217z"/>
			<path fill-rule="evenodd" clip-rule="evenodd" fill="#666666" d="M245.317,198.827c-4.266,1.162-8.142,1.739-12.407,1.739
				c-13.187,0-20.751-6.972-20.751-20.744c0-16.088,8.921-27.724,21.329-27.724c9.888,0,16.283,6.598,16.283,16.868
				c0,3.494-0.387,6.784-1.354,11.44h-24.233c-0.195,0.779-0.195,1.162-0.195,1.552c0,5.429,3.686,8.142,10.661,8.142
				c4.465,0,8.345-0.967,12.603-2.908L245.317,198.827L245.317,198.827z M238.144,171.096c0-0.968,0-1.74,0-2.317
				c0-3.884-2.129-6.013-5.818-6.013c-3.875,0-6.59,2.909-7.751,8.33H238.144L238.144,171.096z"/>
			<polygon fill-rule="evenodd" clip-rule="evenodd" fill="#666666" points="114.639,199.801 102.622,199.801 109.602,155.787 
				93.896,199.801 85.559,199.801 84.587,155.982 77.218,199.801 65.388,199.801 74.894,142.6 92.539,142.6 92.928,177.887 
				104.751,142.6 124.138,142.6 114.639,199.801 			"/>
			<path fill-rule="evenodd" clip-rule="evenodd" fill="#666666" d="M143.914,179.049c-1.162-0.194-1.552-0.194-2.324-0.194
				c-6.979,0-10.473,2.714-10.473,6.979c0,2.908,1.747,4.851,4.461,4.851C141.396,190.685,143.724,185.834,143.914,179.049
				L143.914,179.049z M153.608,199.801h-10.466l0.195-4.851c-2.714,3.681-6.402,5.615-12.797,5.615
				c-5.822,0-10.86-5.225-10.86-12.79c0-2.137,0.386-4.07,0.971-6.012c1.938-7.176,9.108-11.636,20.163-11.831
				c1.361,0,3.49,0,5.432,0.195c0.382-1.544,0.382-2.129,0.382-3.096c0-3.104-2.519-4.071-8.142-4.071
				c-3.486,0-7.37,0.577-10.083,1.552l-1.747,0.382l-0.772,0.195l1.747-10.474c5.619-1.747,9.693-2.519,14.154-2.519
				c10.465,0,16.088,4.851,16.088,13.765c0,2.332,0.195,4.07-0.577,9.116l-2.714,16.673l-0.39,2.909l-0.195,2.332l-0.195,1.544
				L153.608,199.801L153.608,199.801z"/>
			<path fill-rule="evenodd" clip-rule="evenodd" fill="#666666" d="M303.876,153.658c3.486,0,6.59,0.959,10.855,3.096l2.133-12.407
				c-1.165-0.585-1.552-0.585-3.111-1.162l-4.839-1.357c-1.552-0.39-3.485-0.585-5.623-0.585c-6.013,0-9.506,0.195-13.183,2.332
				c-1.946,1.349-4.465,3.096-7.183,6.2l-1.548-0.39l-12.407,8.727l0.584-4.851h-12.801l-7.556,46.541h12.207l4.462-25.018
				c0,0,1.75-3.485,2.519-4.655c2.332-2.909,4.266-2.909,6.789-2.909c0.386,0,0.775,0,0.966,0c-0.385,2.714-0.58,5.623-0.58,8.922
				c0,15.121,8.53,24.627,21.718,24.627c3.299,0,6.208-0.389,10.668-1.551l2.138-13.188c-3.883,2.137-7.369,3.104-10.286,3.104
				c-7.175,0-11.44-5.428-11.44-13.959C288.357,162.572,294.761,153.658,303.876,153.658L303.876,153.658z"/>
			<path fill-rule="evenodd" clip-rule="evenodd" fill="#666666" d="M406.824,142.6l-2.715,16.283
				c-2.904-4.453-6.402-6.59-11.058-6.59c-6.399,0-12.399,3.688-16.089,10.668v-0.195l-7.751-4.655l0.771-4.851h-12.991
				l-7.37,46.541h12.021l4.074-25.018c0,0,3.108-3.485,3.876-4.655c1.938-2.324,3.884-2.714,5.436-2.909
				c-1.365,3.877-2.132,8.531-2.132,13.772c0,11.636,6,19.388,14.922,19.388c4.465,0,7.954-1.553,11.252-5.233l-0.588,4.655h11.44
				l9.315-57.201H406.824L406.824,142.6z M391.897,188.743c-4.078,0-6.211-3.104-6.211-9.107c0-9.117,3.879-15.707,9.502-15.707
				c4.266,0,6.398,3.291,6.398,9.109C401.587,182.348,397.707,188.743,391.897,188.743L391.897,188.743z"/>
			<path fill-rule="evenodd" clip-rule="evenodd" fill="#666666" d="M335.865,179.049c-1.161-0.194-1.548-0.194-2.327-0.194
				c-6.984,0-10.47,2.714-10.47,6.979c0,2.908,1.747,4.851,4.453,4.851C333.339,190.685,335.67,185.834,335.865,179.049
				L335.865,179.049z M345.555,199.801h-10.668l0.398-4.851c-2.719,3.681-6.398,5.615-12.802,5.615
				c-6.013,0-11.241-5.038-11.241-12.79c0-11.051,8.325-17.843,21.512-17.843c1.364,0,3.485,0,5.232,0.195
				c0.402-1.544,0.59-2.129,0.59-3.096c0-3.104-2.523-4.071-8.341-4.071c-3.299,0-7.366,0.577-10.084,1.552l-1.552,0.382
				l-0.765,0.195l1.732-10.474c5.63-1.747,9.704-2.519,14.153-2.519c10.474,0,15.901,4.851,15.901,13.765
				c0,2.332,0.391,4.07-0.577,9.116l-2.519,16.673l-0.391,2.909l-0.393,2.332l-0.188,1.544V199.801L345.555,199.801z"/>
			<path fill-rule="evenodd" clip-rule="evenodd" fill="#666666" d="M179.012,163.149c2.328,0,5.619,0.195,9.104,0.779l1.75-10.855
				c-3.488-0.39-8.146-0.975-10.854-0.975c-13.573,0-18.034,7.37-18.034,15.901c0,5.623,2.519,9.695,9.116,12.798
				c4.844,2.323,5.616,2.713,5.616,4.842c0,2.909-2.515,4.656-7.167,4.656c-3.688,0-7.174-0.578-11.058-1.934l-1.349,10.66
				l0.187,0.195l2.328,0.381c0.776,0.203,1.751,0.391,3.101,0.586c2.913,0.195,5.427,0.382,6.979,0.382
				c13.578,0,19.201-5.225,19.201-15.503c0-6.403-3.104-10.279-9.117-12.993c-5.233-2.324-5.817-2.713-5.817-4.851
				C172.995,165.091,175.326,163.149,179.012,163.149L179.012,163.149z"/>
			<path fill-rule="evenodd" clip-rule="evenodd" fill="#FFFFFF" d="M320.151,140.658l-2.132,12.416
				c-4.267-2.137-7.366-3.104-10.853-3.104c-9.116,0-15.511,8.914-15.511,21.523c0,8.719,4.27,13.951,11.44,13.951
				c2.901,0,6.403-0.967,10.27-2.9l-2.124,12.984c-4.461,1.162-7.366,1.747-10.665,1.747c-13.187,0-21.328-9.499-21.328-24.814
				c0-20.362,11.245-34.704,27.334-34.704c2.128,0,4.07,0.195,5.622,0.577l4.847,1.162
				C318.6,140.081,318.998,140.276,320.151,140.658L320.151,140.658z"/>
			<path fill-rule="evenodd" clip-rule="evenodd" fill="#FFFFFF" d="M280.991,149.19c-0.386,0-0.783,0-1.165,0
				c-4.07,0-6.391,1.941-10.084,7.564l1.163-7.174h-11.052l-7.552,46.533h12.216c4.453-28.503,5.619-33.346,11.433-33.346
				c0.39,0,0.39,0,0.772,0c1.169-5.623,2.721-9.693,4.655-13.382L280.991,149.19L280.991,149.19z"/>
			<path fill-rule="evenodd" clip-rule="evenodd" fill="#FFFFFF" d="M210.803,195.528c-3.292,1.162-6.006,1.553-8.72,1.553
				c-6.207,0-9.697-3.486-9.697-10.279c0-1.162,0.199-2.713,0.391-4.062l0.775-4.664l0.577-3.673l5.24-31.802h12.018l-1.356,6.979
				h6.199l-1.548,11.44h-6.204l-3.29,19.387c-0.195,0.779-0.195,1.357-0.195,1.941c0,2.324,1.161,3.291,4.071,3.291
				c1.356,0,2.519,0,3.298-0.382L210.803,195.528L210.803,195.528z"/>
			<path fill-rule="evenodd" clip-rule="evenodd" fill="#FFFFFF" d="M164.078,164.319c0,5.81,2.717,9.889,9.117,12.984
				c5.038,2.332,5.817,3.104,5.817,5.045c0,2.909-2.138,4.258-6.984,4.258c-3.685,0-6.979-0.576-10.855-1.738l-1.747,10.66
				l0.582,0.195l2.133,0.39c0.776,0.194,1.747,0.39,3.299,0.39c2.714,0.391,5.037,0.391,6.589,0.391
				c12.799,0,18.811-4.852,18.811-15.52c0-6.395-2.523-10.075-8.531-12.984c-5.233-2.332-5.817-2.909-5.817-5.046
				c0-2.519,2.136-3.681,6.012-3.681c2.325,0,5.615,0.187,8.724,0.577l1.742-10.66c-3.101-0.585-7.947-0.967-10.66-0.967
				C168.729,148.612,163.886,155.787,164.078,164.319L164.078,164.319z"/>
			<path fill-rule="evenodd" clip-rule="evenodd" fill="#FFFFFF" d="M413.023,196.113h-11.437l0.585-4.461
				c-3.303,3.494-6.788,5.038-11.249,5.038c-8.922,0-14.739-7.557-14.739-19.191c0-15.512,9.116-28.691,19.784-28.691
				c4.851,0,8.337,2.128,11.628,6.395l2.722-16.283h12.021L413.023,196.113L413.023,196.113z M395.188,185.257
				c5.63,0,9.502-6.598,9.502-15.706c0-6.013-2.133-9.116-6.402-9.116c-5.424,0-9.486,6.402-9.486,15.511
				C388.802,182.154,390.923,185.257,395.188,185.257L395.188,185.257z"/>
			<path fill-rule="evenodd" clip-rule="evenodd" fill="#FFFFFF" d="M248.032,195.146c-4.267,1.356-8.139,1.935-12.604,1.935
				c-13.572,0-20.552-7.176-20.552-20.939c0-15.901,8.918-27.723,21.138-27.723c10.083,0,16.474,6.589,16.474,16.868
				c0,3.494-0.386,6.784-1.548,11.635h-24.042c-0.191,0.578-0.191,0.967-0.191,1.357c0,5.428,3.681,8.141,10.664,8.141
				c4.456,0,8.329-0.779,12.598-2.908L248.032,195.146L248.032,195.146z M241.247,167.415c0-0.967,0-1.739,0-2.324
				c0-3.876-2.133-6.013-5.818-6.013c-3.879,0-6.59,2.909-7.755,8.337H241.247L241.247,167.415z"/>
			<polygon fill-rule="evenodd" clip-rule="evenodd" fill="#FFFFFF" points="117.743,196.113 105.726,196.113 112.697,152.098 
				96.991,196.113 88.655,196.113 87.688,152.488 80.318,196.113 69.077,196.113 78.579,138.919 96.024,138.919 96.609,174.402 
				108.237,138.919 127.241,138.919 117.743,196.113 			"/>
			<path fill-rule="evenodd" clip-rule="evenodd" fill="#FFFFFF" d="M147.794,175.369c-1.166,0-1.743-0.194-2.718-0.194
				c-6.785,0-10.274,2.52-10.274,7.174c0,2.909,1.552,4.656,4.27,4.656C144.109,187.004,147.604,182.348,147.794,175.369
				L147.794,175.369z M156.712,196.113h-10.083l0.195-4.851c-3.1,3.884-7.174,5.631-12.797,5.631c-6.59,0-11.051-5.046-11.051-12.61
				c0-11.44,7.756-18.03,21.329-18.03c1.356,0,3.104,0.194,5.038,0.39c0.39-1.552,0.39-2.129,0.39-2.909
				c0-3.104-2.128-4.266-7.751-4.266c-3.494,0-7.37,0.382-10.083,1.162l-1.747,0.585l-1.162,0.195l1.743-10.474
				c6.008-1.746,10.083-2.324,14.54-2.324c10.474,0,16.096,4.648,16.096,13.569c0,2.332-0.195,4.071-0.967,9.311l-2.718,16.479
				l-0.386,2.901l-0.199,2.331l-0.191,1.747L156.712,196.113L156.712,196.113z"/>
			<path fill-rule="evenodd" clip-rule="evenodd" fill="#FFFFFF" d="M339.733,175.369c-1.345,0-1.942-0.194-2.709-0.194
				c-6.984,0-10.471,2.52-10.471,7.174c0,2.909,1.747,4.656,4.465,4.656C335.865,187.004,339.542,182.348,339.733,175.369
				L339.733,175.369z M348.655,196.113h-10.079l0.19-4.851c-3.097,3.884-7.167,5.631-12.797,5.631
				c-6.586,0-11.051-5.046-11.051-12.61c0-11.44,7.756-18.03,21.32-18.03c1.365,0,3.112,0.194,4.851,0.39
				c0.398-1.552,0.586-2.129,0.586-2.909c0-3.104-2.134-4.266-7.756-4.266c-3.485,0-7.557,0.382-10.271,1.162l-1.548,0.585
				l-1.17,0.195l1.743-10.474c6.017-1.746,10.079-2.324,14.548-2.324c10.47,0,15.886,4.648,15.886,13.569
				c0,2.332,0,4.071-0.967,9.311l-2.52,16.479l-0.382,2.901l-0.383,2.331l-0.202,1.747V196.113L348.655,196.113z"/>
			<path fill-rule="evenodd" clip-rule="evenodd" fill="#FFFFFF" d="M381.229,149.19c-0.382,0-0.78,0-1.162,0
				c-4.07,0-6.403,1.941-10.084,7.564l1.163-7.174h-11.051l-7.37,46.533h12.018c4.469-28.503,5.631-33.346,11.44-33.346
				c0.397,0,0.397,0,0.779,0c1.166-5.623,2.718-9.693,4.652-13.382L381.229,149.19L381.229,149.19z"/>
		</g>
	</g>
</g>
</svg>
