<?xml version="1.0" encoding="utf-8"?>
<!-- Generator: Adobe Illustrator 16.0.0, SVG Export Plug-In . SVG Version: 6.00 Build 0)  -->
<!DOCTYPE svg PUBLIC "-//W3C//DTD SVG 1.1//EN" "http://www.w3.org/Graphics/SVG/1.1/DTD/svg11.dtd">
<svg version="1.1" id="Layer_1" xmlns="http://www.w3.org/2000/svg" xmlns:xlink="http://www.w3.org/1999/xlink" x="0px" y="0px"
	 width="492.579px" height="340.157px" viewBox="0 0 492.579 340.157" enable-background="new 0 0 492.579 340.157"
	 xml:space="preserve">
<g>
	<polygon fill-rule="evenodd" clip-rule="evenodd" fill="#828282" points="194.025,220.098 210.416,118.75 236.619,118.75 
		220.229,220.098 194.025,220.098 	"/>
	<path fill-rule="evenodd" clip-rule="evenodd" fill="#828282" d="M315.225,121.228c-5.177-2.048-13.372-4.312-23.506-4.312
		c-25.879,0-44.102,13.8-44.21,33.53c-0.216,14.555,13.047,22.64,22.966,27.492c10.139,4.963,13.587,8.197,13.587,12.615
		c-0.105,6.797-8.195,9.92-15.743,9.92c-10.457,0-16.066-1.613-24.582-5.391l-3.455-1.615l-3.662,22.75
		c6.146,2.801,17.465,5.281,29.221,5.391c27.498,0,45.394-13.586,45.612-34.611c0.104-11.539-6.904-20.377-22.001-27.6
		c-9.162-4.637-14.771-7.764-14.771-12.507c0.109-4.314,4.747-8.732,15.096-8.732c8.52-0.216,14.772,1.831,19.52,3.881l2.371,1.077
		L315.225,121.228L315.225,121.228z"/>
	<path fill-rule="evenodd" clip-rule="evenodd" fill="#828282" d="M350.054,184.192c2.156-5.82,10.457-28.355,10.457-28.355
		c-0.104,0.216,2.156-5.929,3.453-9.703l1.833,8.733c0,0,4.958,24.259,6.038,29.325
		C367.734,184.192,355.229,184.192,350.054,184.192L350.054,184.192z M382.402,118.75H362.13c-6.252,0-10.999,1.832-13.696,8.409
		l-38.925,92.94h27.497c0,0,4.528-12.51,5.5-15.205c3.019,0,29.759,0,33.644,0c0.753,3.561,3.124,15.205,3.124,15.205h24.263
		L382.402,118.75L382.402,118.75z"/>
	<path fill-rule="evenodd" clip-rule="evenodd" fill="#828282" d="M172.137,118.75l-25.664,69.108l-2.805-14.016
		c-4.743-16.172-19.625-33.745-36.229-42.479l23.506,88.625h27.714l41.188-101.239H172.137L172.137,118.75z"/>
	<path fill-rule="evenodd" clip-rule="evenodd" fill="#A6A6A6" d="M122.644,118.75H80.481l-0.429,2.047
		c32.887,8.41,54.668,28.68,63.616,53.045l-9.164-46.577C132.994,120.797,128.359,118.963,122.644,118.75L122.644,118.75z"/>
</g>
</svg>
