<svg xmlns="http://www.w3.org/2000/svg" viewBox="0 0 294.4 79.6" enable-background="new 0 0 294.4 79.6"><radialGradient id="a" cx="24.111" cy="34.165" r="28.868" fx="24.235" fy="5.298" gradientUnits="userSpaceOnUse"><stop offset=".323" stop-color="#fff"/><stop offset=".678" stop-color="#B9E1F7"/><stop offset=".775" stop-color="#65B5E5"/><stop offset=".851" stop-color="#6DBFEB"/><stop offset=".908" stop-color="#69BBE9"/></radialGradient><path fill-rule="evenodd" clip-rule="evenodd" fill="url(#a)" d="M.9 33.4c0-12.8 10.6-23.1 23.7-23.1s23.7 10.4 23.7 23.1c0 12.8-10.6 23.2-23.7 23.2s-23.7-10.4-23.7-23.2z"/><path fill-rule="evenodd" clip-rule="evenodd" fill="#0A4E8F" d="M82 37.8c-4-10-6-15.4-6-16h-.3c0 .5-2.1 5.9-6.2 16h12.5zm9.8 14.2h-5.4c0-1.1-1.1-4.8-3.2-10.8h-14.9c-2.1 6-3.2 9.6-3.2 10.8h-5.2c0-.6 2.2-6.1 6.6-16.4 4.4-10.3 6.6-16 6.6-17h6c0 1 2.1 6.6 6.3 16.8 4.3 10.1 6.4 15.7 6.4 16.6zM112.9 46.9c0-5.3-.1-10.4-.4-15.4-1.4-1.1-3.1-1.7-5.2-1.7-2.9 0-5.1 1-6.5 2.9-1.4 1.9-2.2 4.3-2.2 7.3 0 2.6.7 4.8 2 6.6 1.4 1.8 3.2 2.7 5.7 2.7 3-.1 5.2-.8 6.6-2.4zm4.1 5.1l-3.8.1c-.1-.7-.2-1.5-.2-2.3h-.3c-1.8 2-4.5 2.9-8 2.9-3.3 0-5.8-1.2-7.8-3.5-1.9-2.4-2.9-5.2-2.9-8.6 0-3.8 1.1-7 3.2-9.8 2.2-2.7 5.2-4.1 9.1-4.1 2.8 0 4.8.6 6 1.7h.2c0-4.2-.1-8.4-.4-12.5l4.9-.2c-.3 4.4-.5 10-.5 17.1 0 7.2.2 13.6.5 19.2z"/><path fill="#0A4E8F" d="M144 27.6c0 .8-1.7 4.9-5.2 12.1-3.5 7.2-5.2 11.3-5.2 12.2h-3.4c0-1.2-1.5-5.4-4.6-12.6-3.1-7.2-4.6-11.1-4.6-11.8h5c0 .8 1.1 4.1 3.4 9.8 2.2 5.7 3.3 9 3.3 9.8h.2c0-.8 1.1-3.9 3.2-9.4s3.2-8.9 3.2-10.1h4.7z"/><path fill-rule="evenodd" clip-rule="evenodd" fill="#0A4E8F" d="M162.6 47c-.1-2.6-.1-4.9-.1-7-3.2 0-5.7.2-7.4.7-2.8.9-4.2 2.5-4.2 4.9 0 2.3 1.6 3.5 4.9 3.5 2.9 0 5.2-.7 6.8-2.1zm4.6 5l-4 .2c-.2-.8-.3-1.6-.3-2.4h-.3c-2.1 1.9-5 2.9-8.6 2.9-2 0-3.7-.6-5.1-1.7-1.4-1.1-2.1-2.8-2.1-4.9 0-2.6 1.1-4.8 3.3-6.4 2.2-1.6 6.4-2.4 12.4-2.5 0-.4.1-.9.1-1.4 0-2.1-.6-3.5-1.7-4.2-1.1-.7-2.8-1-5.1-1-2.7 0-5.3.3-7.9 1l.4-3.6c2.6-.7 5.5-1.1 8.9-1.1 3.1 0 5.4.6 7.1 1.9 1.7 1.2 2.5 3.4 2.5 6.4 0 .8 0 2.3-.1 4.4-.1 2.1-.1 3.5-.1 4.2-.1 3 .1 5.8.6 8.2z"/><path fill="#0A4E8F" d="M194.9 52h-4.7c.4-4.5.6-9.4.6-14.7 0-2.6-.5-4.4-1.6-5.4s-2.6-1.4-4.6-1.4c-2.4 0-4.7.9-6.7 2.6 0 5.8 0 12.2.1 18.9h-4.7c.3-5.8.4-10 .4-12.6 0-4-.4-7.9-1.1-11.7l4.5-.6.5 3.1h.2c2.5-2.3 5.3-3.4 8.1-3.4 2.9 0 5.1.6 6.6 1.9 1.6 1.2 2.3 3.5 2.3 6.7v1.9c0 1-.1 1.6-.1 1.9.1 2.9.1 7.1.2 12.8zM219.7 48.1l-.3 3.4c-1.4.8-3.2 1.2-5.6 1.2-4.4 0-7.8-1.2-10.2-3.7-2.4-2.4-3.5-5.4-3.5-8.9 0-3.7 1.2-6.8 3.7-9.5 2.5-2.6 5.7-3.9 9.8-3.9 2.1 0 3.7.2 5 .6l-.7 4c-1.8-.7-3.6-1-5.5-1-2.4 0-4.4.8-5.8 2.5-1.4 1.7-2.2 3.8-2.2 6.4 0 2.8.9 5.1 2.6 6.9 1.7 1.8 4.1 2.8 7.3 2.8 1.3.1 3.1-.2 5.4-.8z"/><path fill="#2990CF" d="M224.4 52c.2-5.2.3-11 .3-17.5 0-6.2-.1-11.6-.3-16h20.9l-.3 5.6c-5.1-.3-9.8-.4-14-.4.2 2.4.2 5.2.2 8.4 3.6 0 7.4-.1 11.5-.3v5.4c-4-.2-7.9-.2-11.5-.2 0 3.5.1 6.7.2 9.8 4.7 0 9.7-.1 15-.4l-.2 5.7h-21.8z"/><path fill-rule="evenodd" clip-rule="evenodd" fill="#2990CF" d="M259.4 18.5c-1.5 0-2.6.1-3.3.1h-4.5c.2 4.4.3 9.7.3 15.9 0 6.5-.1 12.3-.3 17.5 4.4.2 8 .3 10.5.3 5.6 0 10-1.8 13.1-5.4 3.1-3.6 4.7-7.9 4.7-12.7 0-4.3-1.4-8-4.2-11.1-2.8-3.1-7.3-4.6-13.5-4.6-.4-.1-1.4 0-2.8 0zm-.8 28.2c-.2-4-.2-8.1-.2-12.2 0-3.7-.1-7.3-.3-10.7 1.3-.1 2.3-.2 3-.2 3.9 0 6.9 1.1 8.8 3.4 1.9 2.2 2.9 5 2.9 8.3 0 3.3-.9 6.1-2.7 8.4-1.8 2.3-4.5 3.4-8.2 3.4-1-.1-2.1-.2-3.3-.4z"/><path fill-rule="evenodd" clip-rule="evenodd" fill="#0A4E8F" d="M19.9 24.6c-2.8-1.8-4.7-4.1-5.4-6.5-.3-1.2-.3-2.4-.5-2.5-.1-.2 0 1.4.2 2.4.5 2.6 2.5 5.2 5.4 7.3-1.1 2.6-2 5.4-2.8 8.2-3.3-1.7-6-4-7.8-6.4.9-1.9 2-3.9 3.4-5.9 0-.1 1-1.3.9-1.4-.1-.1-.8.6-1.2 1.2-1.1 1.3-2.4 3-3.6 5.2-1.6-2.4-2.3-4.9-2.1-7.4 1.4-1.9 3-3.4 4.6-4.5 0 0 .9-.8 2.9-1.8-1.4.3-3.2 1.4-3.2 1.4-8.9 5.9-11.4 14.6-10.5 21.5.5 8.6 5.7 16.6 14.1 20.4.4 9.6 2.7 18.1 5.8 23.8-2.5-6.5-4.2-14.5-4.4-23.2 12.1 4.6 25.7-1.1 30.8-13.1 5.3-12.3-.4-26.5-12.7-31.7l-.7-.3c1.9.9 3.6 2 5.1 3.2 2.4 2.4 3.6 5.3 2.8 7.9-1.4 4.7-8.5 6.7-15.8 4.5-1.4-.4-2.8-1-4-1.6 4.2-10.4 10.3-19.2 16.7-25.3-6.4 4.7-13.3 13.4-18 24.6zm20.9 4.9c-.2-1.1-.5-2.1-.9-3.1 1-.8 1.7-1.9 2.1-3 .7-2.3-.1-4.8-1.8-7.1 2.3 2.4 4.1 5.2 5.2 8.3.2 1.4.2 2.8-.2 4.1-.6 2-1.9 3.7-3.6 5-.3-1.5-.5-2.9-.8-4.2zm-39.3 2.7c.2-3.9 1.3-7.6 3.1-10.5.5-1 1.1-1.9 1.7-2.7-.5 2.6.2 5.4 1.9 8l-.2.4c-1.5 3.2-2.5 7.1-2.6 11.6-2.1-2.1-3.5-4.5-3.9-6.8zm20.6 3.3c-1.3-.4-2.5-.9-3.7-1.4.7-2.8 1.6-5.5 2.6-8.1 1.4.8 2.9 1.5 4.5 2s3.1.7 4.6.8c.4 2.7.5 5.3.4 7.9h-.2c-2.6.1-5.4-.3-8.2-1.2zm16.6-8.3c.6 2.5.9 5 1 7.5-2.2 1.1-4.9 1.9-7.8 2 .1-2 0-3.9-.2-5.6-.1-.8-.2-1.5-.3-2.2h.3c2.7 0 5.1-.6 7-1.7zm-32.4 12.7c0-3.9.7-7.9 2.4-12 1.8 2.6 4.5 4.9 7.9 6.7-.2.8-.4 1.5-.5 2.3-.6 2.7-1.1 5.3-1.3 8-3.4-1.4-6.3-3.1-8.5-5zm35.2-4.1c2.4-1.4 4.1-3.4 4.8-5.9.1-.2.1-.4.1-.6.5 3.9 0 8-1.6 11.9-1.2 1.6-3 2.9-5.2 3.9 1.3-3.1 1.8-6.3 1.9-9.3zm-36.7 10.6c-2.1-3.7-3.2-7.7-3.3-11.5.7 2 2.1 3.9 4 5.7.1 2.6.5 5.3 1.4 8.1-.8-.7-1.5-1.5-2.1-2.3zm12.4-.7l-1-.3c.3-2.7.8-5.4 1.4-8.2.1-.6.3-1.3.5-1.9 1.4.6 2.8 1.2 4.4 1.7 2.7.8 5.4 1.2 8 1.3-.2 2.4-.5 4.7-1 6.7l-.6 2.4h-.5c-3.7 0-7.5-.5-11.2-1.7zm14.6-7.4c2.9-.1 5.6-.7 7.9-1.7-.1 2.2-.4 4.3-.8 6.2-.2 1.1-.5 2.1-.9 3-2.4.9-5.1 1.4-8.1 1.5 1.1-3 1.7-6.1 1.9-9zm-17.6 15.5c-2.5-1.1-4.8-2.5-6.6-4.3-.6-2.1-1-4.8-1.2-8 2.2 1.9 5 3.5 8.2 4.8-.3 2.5-.4 5-.4 7.5zm24.5-6.4c1.4-.5 2.6-1.1 3.7-1.7-1.7 2.5-3.9 4.6-6.4 6.2 1.1-1.5 2-3 2.7-4.5zm-23 6.9c0-2.5.1-5 .4-7.5l1.3.4c3.7 1.1 7.4 1.7 10.9 1.7-1 2.9-2.1 5.1-3 6.6-.7.1-1.3.1-2 .1-2.5 0-5.1-.4-7.6-1.3zm13.6-5.3c2.8 0 5.5-.4 7.9-1.1-.9 2-1.8 3.7-2.6 4.9-2.7 1.5-5.7 2.4-8.8 2.8 1.5-2.2 2.6-4.4 3.5-6.6z"/><g fill-rule="evenodd" clip-rule="evenodd" fill="#90CEF0"><path d="M285 24h1v-5.4h1.9v-.9h-4.8v.9h1.9zM288.2 24h.9v-4.6c0-.5-.1-.7-.1-.9.1.3.3.7.7 1.8l1.4 3.6h.4l1.4-3.6c.4-1 .5-1.2.7-1.8-.1.4-.1.8-.1 1.9v3.6h.9v-6.4h-1.2l-1.3 4.1c-.4.8-.5 1.1-.6 1.5-.1-.4-.2-.7-.5-1.6l-1.4-4h-1.2v6.4z"/></g></svg>