<?xml version="1.0" encoding="utf-8"?>
<!-- Generator: Adobe Illustrator 17.1.0, SVG Export Plug-In . SVG Version: 6.00 Build 0)  -->
<!DOCTYPE svg PUBLIC "-//W3C//DTD SVG 1.1//EN" "http://www.w3.org/Graphics/SVG/1.1/DTD/svg11.dtd">
<svg version="1.1" id="Layer_1" xmlns="http://www.w3.org/2000/svg" xmlns:xlink="http://www.w3.org/1999/xlink" x="0px" y="0px"
	 viewBox="0 0 387.9 101.7" enable-background="new 0 0 387.9 101.7" xml:space="preserve">
<path fill-rule="evenodd" clip-rule="evenodd" fill="#989898" d="M25.4,31.4c-3.5-2.3-6-5.3-6.8-8.4c-0.4-1.5-0.4-3-0.6-3.2
	c-0.2-0.2,0,1.8,0.2,3.1c0.7,3.3,3.1,6.7,6.9,9.3c-1.3,3.3-2.5,6.8-3.5,10.5c-4.2-2.2-7.6-5.1-10-8.2c1.1-2.5,2.6-5,4.3-7.5
	c0-0.1,1.2-1.6,1.1-1.7c-0.1-0.1-1,0.8-1.6,1.5c-1.4,1.7-3.1,3.9-4.6,6.7c-2-3-3-6.3-2.7-9.4c1.8-2.4,3.9-4.3,5.8-5.8
	c0,0,1.1-1,3.7-2.3c-1.8,0.4-4.1,1.8-4.1,1.8C2.3,25.3-0.9,36.4,0.2,45.2c0.7,11,7.4,21.2,18,26.1c0.5,12.3,3.4,23.1,7.4,30.4
	c-3.2-8.3-5.3-18.5-5.6-29.6c15.4,5.8,32.8-1.4,39.3-16.7c6.7-15.7-0.5-33.8-16.2-40.5l-0.9-0.3c2.4,1.1,4.6,2.5,6.5,4.2
	c3.1,3.1,4.5,6.8,3.5,10.1c-1.8,6-10.8,8.6-20.2,5.8c-1.8-0.6-3.5-1.3-5.1-2.1C32.4,19,40.2,7.7,48.3,0
	C40.2,5.9,31.4,17.1,25.4,31.4z M52,37.7c-0.3-1.4-0.7-2.7-1.1-4c1.2-1.1,2.2-2.4,2.6-3.9c0.9-2.9-0.1-6.1-2.3-9
	c3,3.1,5.2,6.7,6.6,10.6c0.3,1.8,0.2,3.5-0.3,5.2c-0.8,2.5-2.4,4.7-4.6,6.4C52.7,41.1,52.4,39.3,52,37.7z M1.9,41.2
	c0.3-5,1.7-9.7,4-13.4c0.7-1.2,1.4-2.4,2.2-3.4c-0.6,3.4,0.3,6.9,2.4,10.2L10.1,35c-1.9,4-3.2,9.1-3.3,14.8
	C4.2,47.1,2.4,44.1,1.9,41.2z M28.2,45.4c-1.6-0.5-3.2-1.1-4.7-1.8c0.9-3.6,2.1-7,3.3-10.3c1.7,1,3.7,1.9,5.8,2.5c2,0.6,4,1,5.9,1.1
	c0.5,3.4,0.6,6.8,0.5,10.1h-0.2C35.3,47,31.8,46.5,28.2,45.4z M49.4,34.8c0.8,3.2,1.2,6.4,1.3,9.6c-2.8,1.5-6.2,2.4-10,2.6
	c0.1-2.5,0-4.9-0.3-7.1c-0.1-1-0.3-1.9-0.4-2.9h0.3C43.8,37,47,36.2,49.4,34.8z M8.1,51c0-5,0.8-10.1,3.1-15.4
	c2.3,3.3,5.8,6.3,10.1,8.6c-0.2,1-0.5,1.9-0.7,2.9c-0.8,3.4-1.4,6.8-1.7,10.2C14.5,55.7,10.9,53.5,8.1,51z M52.9,45.7
	c3-1.8,5.2-4.4,6.2-7.5c0.1-0.2,0.1-0.5,0.2-0.8c0.7,5,0.1,10.3-2,15.3c-1.6,2-3.8,3.7-6.6,5C52.2,53.6,52.8,49.5,52.9,45.7z
	 M6.1,59.3c-2.7-4.7-4-9.8-4.3-14.6c0.9,2.5,2.7,5,5.1,7.3c0.1,3.3,0.7,6.8,1.8,10.4C7.8,61.3,6.9,60.3,6.1,59.3z M22,58.5
	c-0.4-0.1-0.8-0.3-1.3-0.4c0.4-3.5,1-6.9,1.8-10.4c0.2-0.8,0.4-1.6,0.6-2.4c1.8,0.8,3.6,1.6,5.6,2.2c3.5,1,6.9,1.6,10.2,1.7
	c-0.2,3-0.6,6-1.3,8.6c-0.2,1.1-0.5,2.1-0.8,3h-0.6C31.5,60.6,26.7,59.9,22,58.5z M40.6,49c3.7-0.1,7.2-0.8,10-2.1
	c-0.1,2.8-0.5,5.5-1.1,7.9c-0.3,1.4-0.7,2.6-1.1,3.9c-3,1.1-6.6,1.7-10.3,1.9C39.5,56.6,40.3,52.7,40.6,49z M18.1,68.7
	c-3.2-1.4-6.1-3.3-8.5-5.5C8.9,60.4,8.3,57,8.1,53c2.8,2.4,6.3,4.5,10.5,6.1c-0.3,3.3-0.4,6.5-0.4,9.6
	C18.2,68.7,18.1,68.7,18.1,68.7z M49.4,60.6c1.7-0.6,3.3-1.3,4.8-2.2c-2.2,3.2-5,5.9-8.2,7.9C47.4,64.4,48.5,62.5,49.4,60.6z
	 M20,69.4c0-3.2,0.2-6.4,0.5-9.6c0.5,0.2,1.1,0.4,1.6,0.5c4.7,1.4,9.4,2.1,13.9,2.2c-1.2,3.7-2.7,6.6-3.8,8.4
	c-0.8,0.1-1.7,0.1-2.5,0.1C26.5,71.1,23.2,70.6,20,69.4z M37.4,62.6c3.6,0,7-0.5,10.1-1.4c-1.1,2.6-2.3,4.7-3.3,6.2
	c-3.5,1.9-7.3,3.1-11.2,3.5C34.8,68.2,36.3,65.4,37.4,62.6z"/>
<path fill="#989898" d="M20.5,47.2c-5,21.8-1.3,42.7,5.2,54.5c-5.5-14.2-7.7-34-3.2-54.1C26.9,27.5,37.3,10.5,48.3,0
	C37.4,8,25.2,25.3,20.5,47.2z"/>
<path fill-rule="evenodd" clip-rule="evenodd" fill="#989898" d="M107.7,49c-5.7-14.2-8.6-21.8-8.6-22.7h-0.4
	c0,0.8-2.9,8.3-8.8,22.7H107.7z M121.6,69.1h-7.7c0-1.6-1.5-6.7-4.6-15.3h-21c-3,8.5-4.5,13.6-4.5,15.3h-7.4c0-0.9,3.1-8.6,9.4-23.3
	c6.3-14.6,9.4-22.7,9.4-24.1h8.4c0,1.4,3,9.4,9,23.8C118.6,59.9,121.6,67.8,121.6,69.1z"/>
<path fill-rule="evenodd" clip-rule="evenodd" fill="#989898" d="M151.5,61.9c0-7.5-0.2-14.8-0.6-21.8c-2-1.6-4.4-2.4-7.3-2.4
	c-4.1,0-7.2,1.4-9.2,4.1c-2.1,2.7-3.1,6.2-3.1,10.3c0,3.7,1,6.8,2.9,9.3c1.9,2.5,4.6,3.8,8,3.8C146.4,65.2,149.5,64.1,151.5,61.9z
	 M157.3,69.1l-5.4,0.2c-0.2-1-0.3-2.2-0.3-3.3h-0.4c-2.5,2.8-6.3,4.1-11.3,4.1c-4.6,0-8.3-1.7-11-5c-2.7-3.3-4.1-7.4-4.1-12.1
	c0-5.4,1.5-10,4.5-13.9c3-3.9,7.3-5.8,12.8-5.8c3.9,0,6.8,0.8,8.4,2.4h0.3c0-6-0.2-11.9-0.5-17.7l6.9-0.3
	c-0.5,6.2-0.7,14.2-0.7,24.2C156.6,52.1,156.8,61.1,157.3,69.1z"/>
<path fill="#989898" d="M195.5,34.5c0,1.2-2.5,6.9-7.4,17.2c-4.9,10.3-7.4,16.1-7.4,17.4h-4.9c0-1.7-2.2-7.6-6.5-17.8
	c-4.3-10.2-6.5-15.8-6.5-16.8h7.1c0,1.2,1.6,5.8,4.7,13.9c3.2,8.1,4.7,12.7,4.7,13.9h0.3c0-1.1,1.5-5.6,4.5-13.4
	c3-7.8,4.5-12.6,4.5-14.4H195.5z"/>
<path fill-rule="evenodd" clip-rule="evenodd" fill="#989898" d="M221.9,62.1c-0.1-3.7-0.2-7-0.2-9.9c-4.6,0-8.1,0.4-10.4,1
	c-4,1.2-6,3.5-6,7c0,3.3,2.3,5,7,5C216.4,65.1,219.5,64.1,221.9,62.1z M228.4,69.1l-5.7,0.2c-0.3-1.2-0.4-2.3-0.4-3.4h-0.4
	c-3,2.7-7.1,4.1-12.2,4.1c-2.8,0-5.2-0.8-7.2-2.5c-2-1.6-3-4-3-7c0-3.7,1.6-6.8,4.7-9c3.1-2.3,9-3.5,17.6-3.6c0.1-0.6,0.1-1.2,0.1-2
	c0-3-0.8-5-2.4-6c-1.6-1-4-1.5-7.2-1.5c-3.8,0-7.6,0.5-11.2,1.4l0.6-5c3.6-1,7.8-1.6,12.6-1.6c4.3,0,7.7,0.9,10,2.7
	c2.4,1.8,3.5,4.8,3.5,9.1c0,1.2-0.1,3.2-0.2,6.2c-0.1,3-0.2,5-0.2,6C227.4,61.8,227.7,65.7,228.4,69.1z"/>
<path fill="#989898" d="M267.6,69.1h-6.6c0.5-6.4,0.8-13.3,0.8-20.9c0-3.7-0.8-6.3-2.3-7.7c-1.5-1.4-3.7-2.1-6.5-2.1
	c-3.5,0-6.6,1.2-9.5,3.8c0,8.3,0.1,17.2,0.1,26.9h-6.6c0.4-8.2,0.6-14.2,0.6-17.9c0-5.7-0.5-11.2-1.6-16.5l6.4-0.9l0.7,4.5h0.3
	c3.6-3.2,7.4-4.9,11.5-4.9c4,0,7.2,0.9,9.3,2.7c2.2,1.8,3.3,5,3.3,9.5c0,0.5,0,1.4-0.1,2.7c0,1.4-0.1,2.3-0.1,2.8
	C267.4,55.1,267.5,61.1,267.6,69.1z"/>
<path fill="#989898" d="M302.7,63.6l-0.4,4.9c-2,1.1-4.6,1.7-7.9,1.7c-6.3,0-11.1-1.7-14.4-5.2c-3.3-3.5-5-7.7-5-12.6
	c0-5.2,1.8-9.7,5.2-13.4c3.5-3.7,8.1-5.6,13.9-5.6c2.9,0,5.2,0.3,7.1,0.9l-1,5.7c-2.6-0.9-5.1-1.4-7.8-1.4c-3.5,0-6.2,1.2-8.2,3.6
	c-2,2.4-3.1,5.4-3.1,9c0,3.9,1.2,7.2,3.6,9.8c2.4,2.6,5.9,3.9,10.3,3.9C296.9,64.9,299.5,64.5,302.7,63.6z"/>
<path fill="#989898" d="M309.4,69.2c0.3-7.3,0.5-15.6,0.5-24.8c0-8.8-0.2-16.4-0.5-22.6H339l-0.4,8c-7.3-0.4-13.9-0.6-19.8-0.6
	c0.2,3.4,0.4,7.4,0.4,11.9c5.1,0,10.5-0.1,16.3-0.4v7.6c-5.7-0.2-11.1-0.4-16.3-0.4c0,4.9,0.1,9.5,0.3,13.8c6.6,0,13.7-0.2,21.3-0.6
	l-0.3,8H309.4z"/>
<path fill-rule="evenodd" clip-rule="evenodd" fill="#989898" d="M358.9,21.6c-2.1,0.1-3.6,0.1-4.7,0.1h-6.4
	c0.3,6.2,0.5,13.8,0.5,22.6c0,9.2-0.2,17.5-0.5,24.8c6.3,0.3,11.3,0.4,14.9,0.4c7.9,0,14.1-2.6,18.6-7.7c4.4-5.2,6.6-11.2,6.6-18.1
	c0-6.1-2-11.4-5.9-15.7c-4-4.4-10.3-6.5-19.1-6.5C362.3,21.5,361,21.5,358.9,21.6z M357.9,61.6c-0.2-5.7-0.4-11.4-0.4-17.3
	c0-5.3-0.1-10.4-0.4-15.2c1.8-0.2,3.2-0.3,4.3-0.3c5.6,0,9.7,1.6,12.5,4.8c2.7,3.2,4.1,7.1,4.1,11.8s-1.3,8.6-3.8,11.9
	c-2.5,3.2-6.4,4.9-11.6,4.9C361,62.1,359.5,61.9,357.9,61.6z"/>
</svg>
