<?xml version="1.0" encoding="utf-8"?>
<!-- Generator: Adobe Illustrator 17.0.0, SVG Export Plug-In . SVG Version: 6.00 Build 0)  -->
<!DOCTYPE svg PUBLIC "-//W3C//DTD SVG 1.1//EN" "http://www.w3.org/Graphics/SVG/1.1/DTD/svg11.dtd">
<svg version="1.1" id="Layer_1" xmlns="http://www.w3.org/2000/svg" xmlns:xlink="http://www.w3.org/1999/xlink" x="0px" y="0px"
	 width="200.484px" height="70.724px" viewBox="0 0 200.484 70.724" enable-background="new 0 0 200.484 70.724"
	 xml:space="preserve">
<g>
	<path fill="#6FC96F" d="M100.173,35.639c0,0.642-0.17,1.083-0.508,1.324c-0.339,0.24-0.669,0.36-0.99,0.36H82.168
		c0,1.499,0.147,2.854,0.441,4.067c0.294,1.213,0.78,2.252,1.458,3.116c0.678,0.865,1.561,1.53,2.648,1.993
		c1.088,0.464,2.426,0.696,4.014,0.696c1.123,0,2.131-0.099,3.023-0.295c0.891-0.196,1.662-0.414,2.313-0.655
		c0.65-0.241,1.186-0.459,1.605-0.655c0.419-0.196,0.718-0.295,0.896-0.295c0.106,0,0.204,0.027,0.294,0.081
		c0.089,0.053,0.16,0.138,0.214,0.254c0.054,0.116,0.094,0.264,0.12,0.441c0.027,0.179,0.04,0.401,0.04,0.669
		c0,0.125-0.009,0.245-0.026,0.361c-0.018,0.116-0.04,0.223-0.066,0.32c-0.027,0.099-0.067,0.192-0.121,0.281
		c-0.054,0.09-0.125,0.179-0.214,0.268c-0.09,0.09-0.365,0.245-0.829,0.468c-0.464,0.224-1.07,0.446-1.819,0.669
		c-0.749,0.224-1.619,0.424-2.608,0.603c-0.99,0.178-2.056,0.268-3.197,0.268c-1.873,0-3.532-0.281-4.976-0.843
		c-1.445-0.562-2.658-1.392-3.639-2.488c-0.981-1.097-1.726-2.457-2.234-4.08c-0.508-1.623-0.763-3.505-0.763-5.645
		c0-2.052,0.263-3.889,0.79-5.512c0.526-1.623,1.279-3.001,2.261-4.133c0.98-1.133,2.162-1.998,3.545-2.595
		c1.382-0.598,2.92-0.896,4.615-0.896c1.819,0,3.371,0.304,4.655,0.91c1.284,0.606,2.341,1.423,3.17,2.448
		c0.83,1.026,1.436,2.216,1.819,3.572c0.384,1.356,0.575,2.782,0.575,4.28V35.639z M96.883,34.702
		c0.053-2.568-0.535-4.575-1.767-6.02c-1.23-1.445-3.022-2.167-5.377-2.167c-1.213,0-2.279,0.228-3.197,0.682
		c-0.919,0.455-1.695,1.057-2.328,1.806c-0.633,0.749-1.119,1.619-1.458,2.608c-0.339,0.99-0.535,2.02-0.588,3.091H96.883z"/>
	<path fill="#6FC96F" d="M124.412,45.403c0,0.214-0.009,0.406-0.026,0.575c-0.018,0.17-0.045,0.317-0.08,0.441
		c-0.036,0.125-0.085,0.236-0.147,0.335c-0.062,0.098-0.21,0.263-0.441,0.494c-0.232,0.232-0.62,0.526-1.164,0.883
		c-0.544,0.357-1.154,0.669-1.832,0.937c-0.679,0.268-1.409,0.486-2.194,0.655c-0.785,0.17-1.597,0.255-2.435,0.255
		c-1.677,0-3.161-0.281-4.454-0.843c-1.294-0.562-2.377-1.392-3.251-2.488c-0.874-1.097-1.538-2.443-1.993-4.04
		c-0.455-1.596-0.682-3.438-0.682-5.524c0-2.354,0.28-4.37,0.843-6.047c0.562-1.676,1.333-3.049,2.313-4.12
		c0.982-1.07,2.127-1.859,3.439-2.368c1.311-0.508,2.715-0.763,4.214-0.763c0.802,0,1.568,0.076,2.301,0.227
		c0.73,0.152,1.404,0.353,2.02,0.602c0.615,0.25,1.164,0.535,1.646,0.856c0.481,0.321,0.833,0.593,1.057,0.816
		c0.223,0.224,0.374,0.393,0.455,0.508c0.08,0.116,0.143,0.246,0.187,0.388c0.045,0.143,0.076,0.299,0.094,0.468
		c0.018,0.17,0.027,0.37,0.027,0.602c0,0.517-0.076,0.878-0.228,1.084c-0.152,0.205-0.317,0.308-0.495,0.308
		c-0.25,0-0.558-0.161-0.923-0.482c-0.366-0.321-0.834-0.673-1.404-1.057c-0.571-0.383-1.263-0.736-2.074-1.057
		c-0.812-0.321-1.778-0.481-2.902-0.481c-2.318,0-4.106,0.892-5.364,2.675c-1.258,1.783-1.886,4.36-1.886,7.731
		c0,1.695,0.169,3.18,0.508,4.455c0.339,1.275,0.825,2.337,1.458,3.184c0.633,0.848,1.405,1.48,2.314,1.899
		c0.909,0.419,1.936,0.629,3.077,0.629c1.069,0,2.015-0.17,2.836-0.509c0.819-0.338,1.533-0.713,2.14-1.123
		c0.606-0.41,1.11-0.785,1.512-1.124c0.401-0.339,0.7-0.509,0.896-0.509c0.106,0,0.2,0.032,0.28,0.094
		c0.081,0.063,0.147,0.161,0.201,0.295c0.054,0.134,0.094,0.294,0.12,0.481C124.399,44.935,124.412,45.153,124.412,45.403z"/>
	<path fill="#6FC96F" d="M150.443,48.988c0,0.107-0.027,0.205-0.08,0.294c-0.054,0.09-0.139,0.161-0.255,0.215
		c-0.116,0.053-0.276,0.098-0.482,0.134c-0.205,0.035-0.459,0.053-0.763,0.053c-0.32,0-0.584-0.018-0.789-0.053
		c-0.205-0.036-0.365-0.081-0.482-0.134c-0.116-0.054-0.2-0.125-0.254-0.215c-0.054-0.089-0.08-0.187-0.08-0.294V34.621
		c0-1.498-0.116-2.715-0.349-3.651c-0.231-0.937-0.579-1.739-1.043-2.408c-0.464-0.669-1.057-1.186-1.779-1.552
		c-0.723-0.366-1.564-0.548-2.528-0.548c-1.23,0-2.461,0.437-3.691,1.311c-1.231,0.874-2.524,2.158-3.88,3.853v17.363
		c0,0.107-0.026,0.205-0.08,0.294c-0.054,0.09-0.139,0.161-0.254,0.215c-0.116,0.053-0.277,0.098-0.481,0.134
		c-0.206,0.035-0.469,0.053-0.79,0.053c-0.303,0-0.558-0.018-0.762-0.053c-0.205-0.036-0.371-0.081-0.495-0.134
		c-0.125-0.054-0.21-0.125-0.254-0.215c-0.045-0.089-0.067-0.187-0.067-0.294V12.924c0-0.107,0.022-0.205,0.067-0.294
		c0.044-0.089,0.129-0.165,0.254-0.228c0.124-0.062,0.29-0.107,0.495-0.134c0.204-0.026,0.459-0.04,0.762-0.04
		c0.321,0,0.584,0.014,0.79,0.04c0.204,0.027,0.365,0.072,0.481,0.134c0.115,0.063,0.2,0.139,0.254,0.228
		c0.054,0.089,0.08,0.188,0.08,0.294V28.04c1.32-1.462,2.64-2.537,3.96-3.224c1.319-0.686,2.64-1.03,3.959-1.03
		c1.588,0,2.926,0.268,4.014,0.803c1.088,0.535,1.966,1.257,2.635,2.167c0.669,0.91,1.15,1.971,1.445,3.184
		c0.294,1.213,0.441,2.676,0.441,4.388V48.988z"/>
	<path fill="#6FC96F" d="M180.702,36.628c0,1.927-0.25,3.701-0.749,5.324c-0.499,1.623-1.244,3.032-2.233,4.228
		c-0.99,1.194-2.226,2.126-3.706,2.795c-1.48,0.669-3.201,1.004-5.163,1.004c-1.891,0-3.545-0.299-4.963-0.897
		c-1.418-0.598-2.605-1.453-3.559-2.568c-0.954-1.114-1.668-2.466-2.14-4.054c-0.474-1.587-0.709-3.379-0.709-5.377
		c0-1.927,0.244-3.701,0.735-5.324c0.49-1.623,1.23-3.027,2.221-4.213c0.989-1.186,2.225-2.109,3.705-2.769
		c1.48-0.66,3.211-0.99,5.19-0.99c1.891,0,3.545,0.294,4.963,0.883c1.418,0.589,2.6,1.441,3.545,2.555
		c0.945,1.115,1.658,2.466,2.141,4.053C180.462,32.865,180.702,34.648,180.702,36.628z M177.331,36.923
		c0-1.374-0.134-2.684-0.401-3.934c-0.268-1.248-0.713-2.35-1.337-3.304c-0.625-0.954-1.463-1.712-2.516-2.274
		c-1.052-0.562-2.363-0.843-3.933-0.843c-1.444,0-2.693,0.259-3.745,0.776c-1.053,0.518-1.913,1.235-2.582,2.153
		c-0.669,0.919-1.164,2.003-1.484,3.251c-0.321,1.248-0.482,2.595-0.482,4.04c0,1.391,0.134,2.715,0.401,3.973
		c0.268,1.257,0.714,2.358,1.338,3.304c0.624,0.946,1.463,1.695,2.515,2.247c1.053,0.554,2.363,0.83,3.934,0.83
		c1.444,0,2.692-0.259,3.745-0.776c1.052-0.517,1.913-1.23,2.582-2.14c0.669-0.91,1.163-1.989,1.484-3.237
		C177.171,39.741,177.331,38.385,177.331,36.923z"/>
</g>
<g>
	<g>
		<circle fill="#6FC96F" cx="44.05" cy="42.756" r="2.567"/>
		<g>
			<circle fill="#6FC96F" cx="51.765" cy="19.308" r="1.782"/>
			<circle fill="#6FC96F" cx="36.184" cy="57.832" r="1.693"/>
			<circle fill="#6FC96F" cx="36.184" cy="11.947" r="1.693"/>
			<circle fill="#6FC96F" cx="59.126" cy="42.756" r="1.572"/>
			<circle fill="#6FC96F" cx="59.126" cy="27.023" r="1.572"/>
			<circle fill="#6FC96F" cx="28.318" cy="27.023" r="2.567"/>
			<circle fill="#6FC96F" cx="44.05" cy="11.947" r="1.572"/>
			<circle fill="#6FC96F" cx="28.318" cy="11.947" r="1.572"/>
			<circle fill="#6FC96F" cx="13.241" cy="42.756" r="1.572"/>
			<circle fill="#6FC96F" cx="13.241" cy="27.023" r="1.572"/>
			<circle fill="#6FC96F" cx="59.126" cy="34.889" r="1.693"/>
			<circle fill="#6FC96F" cx="28.318" cy="19.308" r="2.101"/>
			<circle fill="#6FC96F" cx="13.241" cy="34.889" r="1.693"/>
			<circle fill="#6FC96F" cx="20.603" cy="50.47" r="1.782"/>
			<circle fill="#6FC96F" cx="51.765" cy="50.47" r="1.782"/>
			<circle fill="#6FC96F" cx="44.05" cy="57.832" r="1.572"/>
			<circle fill="#6FC96F" cx="28.318" cy="57.832" r="1.572"/>
		</g>
		<circle fill="#6FC96F" cx="36.184" cy="34.889" r="3.121"/>
		<circle fill="#6FC96F" cx="44.05" cy="34.889" r="2.801"/>
		<circle fill="#6FC96F" cx="36.184" cy="42.756" r="2.801"/>
		<circle fill="#6FC96F" cx="28.318" cy="34.889" r="2.801"/>
		<circle fill="#6FC96F" cx="36.184" cy="27.023" r="2.801"/>
		<circle fill="#6FC96F" cx="44.05" cy="27.023" r="2.567"/>
		<circle fill="#6FC96F" cx="28.318" cy="42.756" r="2.567"/>
		<circle fill="#6FC96F" cx="20.603" cy="34.889" r="2.284"/>
		<circle fill="#6FC96F" cx="51.765" cy="34.889" r="2.284"/>
		<circle fill="#6FC96F" cx="36.184" cy="50.47" r="2.284"/>
		<circle fill="#6FC96F" cx="36.184" cy="19.308" r="2.284"/>
		<circle fill="#6FC96F" cx="51.765" cy="42.756" r="2.101"/>
		<circle fill="#6FC96F" cx="51.765" cy="27.023" r="2.101"/>
		<circle fill="#6FC96F" cx="44.05" cy="50.47" r="2.101"/>
		<circle fill="#6FC96F" cx="28.318" cy="50.47" r="2.101"/>
		<circle fill="#6FC96F" cx="20.603" cy="42.756" r="2.101"/>
		<circle fill="#6FC96F" cx="20.603" cy="27.023" r="2.101"/>
		<circle fill="#6FC96F" cx="44.05" cy="19.308" r="2.101"/>
	</g>
	<circle fill="#6FC96F" cx="20.603" cy="19.312" r="1.782"/>
</g>
<g>
	<path fill="#6FC96F" d="M181.536,14.066h-1.229v-0.443h2.992v0.443h-1.235v3.598h-0.528V14.066z"/>
</g>
<g>
	<path fill="#6FC96F" d="M187.157,15.89c-0.029-0.564-0.066-1.241-0.061-1.745h-0.018c-0.138,0.474-0.306,0.977-0.51,1.535
		l-0.713,1.961h-0.396l-0.653-1.925c-0.191-0.57-0.354-1.091-0.468-1.571h-0.012c-0.012,0.504-0.043,1.181-0.078,1.787l-0.108,1.733
		h-0.497l0.281-4.042h0.666l0.689,1.955c0.168,0.498,0.306,0.941,0.408,1.361h0.018c0.102-0.408,0.246-0.851,0.426-1.361l0.72-1.955
		h0.665l0.253,4.042h-0.511L187.157,15.89z"/>
</g>
</svg>
